<?xml version="1.0" encoding="UTF-8"?>
<!DOCTYPE svg PUBLIC "-//W3C//DTD SVG 1.1//EN" "http://www.w3.org/Graphics/SVG/1.1/DTD/svg11.dtd">
<svg xmlns="http://www.w3.org/2000/svg" version="1.1" width="1024px" height="1024px" style="shape-rendering:geometricPrecision; text-rendering:geometricPrecision; image-rendering:optimizeQuality; fill-rule:evenodd; clip-rule:evenodd" xmlns:xlink="http://www.w3.org/1999/xlink">
<g><path style="opacity:0.01" fill="#f2eff3" d="M 517.5,268.5 C 516.833,268.167 516.167,267.833 515.5,267.5C 514.678,265.611 513.845,263.611 513,261.5C 512.282,260.549 511.449,260.383 510.5,261C 508.688,266.034 507.355,271.2 506.5,276.5C 505.662,276.158 505.328,275.492 505.5,274.5C 506.511,268.604 506.511,262.77 505.5,257C 509.769,255.732 514.103,255.899 518.5,257.5C 516.453,261.051 516.119,264.717 517.5,268.5 Z"/></g>
<g><path style="opacity:0.996" fill="#151316" d="M 516.5,277.5 C 518.407,288.28 520.74,298.946 523.5,309.5C 522.9,306.375 521.733,306.042 520,308.5C 519.667,307.833 519.333,307.167 519,306.5C 518.722,307.416 518.222,308.082 517.5,308.5C 515.203,302.089 513.37,295.423 512,288.5C 511.338,290.813 510.838,293.146 510.5,295.5C 509.325,295.719 508.325,295.386 507.5,294.5C 508.485,292.902 508.651,291.235 508,289.5C 507.641,292.544 506.974,292.878 506,290.5C 505.722,291.416 505.222,292.082 504.5,292.5C 504.676,289.273 505.343,286.273 506.5,283.5C 507.161,284.718 507.828,286.051 508.5,287.5C 509.308,285.577 509.808,283.577 510,281.5C 513.187,280.902 514.854,278.569 515,274.5C 515.232,275.737 515.732,276.737 516.5,277.5 Z"/></g>
<g><path style="opacity:0.996" fill="#181618" d="M 515.5,267.5 C 515.616,270.86 515.949,274.193 516.5,277.5C 515.732,276.737 515.232,275.737 515,274.5C 514.854,278.569 513.187,280.902 510,281.5C 509.808,283.577 509.308,285.577 508.5,287.5C 507.828,286.051 507.161,284.718 506.5,283.5C 506.5,281.167 506.5,278.833 506.5,276.5C 507.355,271.2 508.688,266.034 510.5,261C 511.449,260.383 512.282,260.549 513,261.5C 513.845,263.611 514.678,265.611 515.5,267.5 Z"/></g>
<g><path style="opacity:0.122" fill="#ece9ed" d="M 517.5,308.5 C 517.5,310.167 517.5,311.833 517.5,313.5C 517.047,314.458 516.381,315.292 515.5,316C 516.758,317.741 517.758,319.574 518.5,321.5C 517.883,321.389 517.383,321.056 517,320.5C 516.506,322.134 516.34,323.801 516.5,325.5C 515.833,325.5 515.167,325.5 514.5,325.5C 513.699,323.958 513.366,322.292 513.5,320.5C 513.83,313.468 513.497,306.468 512.5,299.5C 511.702,299.957 511.369,300.624 511.5,301.5C 511.666,309.174 511.5,316.841 511,324.5C 509.094,328.899 506.594,332.899 503.5,336.5C 506.28,339.084 508.28,342.084 509.5,345.5C 509.808,347.924 509.474,350.257 508.5,352.5C 507.479,350.812 506.145,349.479 504.5,348.5C 502.632,344.292 499.965,340.625 496.5,337.5C 500.347,331.792 503.18,325.458 505,318.5C 507.31,310.927 509.143,303.26 510.5,295.5C 510.838,293.146 511.338,290.813 512,288.5C 513.37,295.423 515.203,302.089 517.5,308.5 Z M 505.5,322.5 C 506.797,324.693 506.797,327.027 505.5,329.5C 504.286,327.141 504.286,324.808 505.5,322.5 Z M 504.5,343.5 C 505.289,343.783 505.956,344.283 506.5,345C 505.184,345.528 504.517,345.028 504.5,343.5 Z"/></g>
<g><path style="opacity:0.996" fill="#131114" d="M 510.5,295.5 C 509.143,303.26 507.31,310.927 505,318.5C 503.18,325.458 500.347,331.792 496.5,337.5C 494.877,334.785 494.21,331.785 494.5,328.5C 498.73,316.646 502.063,304.646 504.5,292.5C 505.222,292.082 505.722,291.416 506,290.5C 506.974,292.878 507.641,292.544 508,289.5C 508.651,291.235 508.485,292.902 507.5,294.5C 508.325,295.386 509.325,295.719 510.5,295.5 Z"/></g>
<g><path style="opacity:0.757" fill="#858387" d="M 513.5,320.5 C 512.833,314.167 512.167,307.833 511.5,301.5C 511.369,300.624 511.702,299.957 512.5,299.5C 513.497,306.468 513.83,313.468 513.5,320.5 Z"/></g>
<g><path style="opacity:0.09" fill="#edeaee" d="M 515.5,267.5 C 516.167,267.833 516.833,268.167 517.5,268.5C 519.725,285.404 523.225,302.071 528,318.5C 531.539,325.408 534.373,332.575 536.5,340C 535.626,344.543 532.96,347.543 528.5,349C 525.902,351.701 523.569,354.534 521.5,357.5C 520.173,361.197 520.173,364.864 521.5,368.5C 520.662,368.842 520.328,369.508 520.5,370.5C 519.596,369.791 519.263,368.791 519.5,367.5C 519.334,363.486 519.501,359.486 520,355.5C 524,350.167 528.667,345.5 534,341.5C 534.167,340.667 534.333,339.833 534.5,339C 530.313,329.264 526.647,319.43 523.5,309.5C 520.74,298.946 518.407,288.28 516.5,277.5C 515.949,274.193 515.616,270.86 515.5,267.5 Z"/></g>
<g><path style="opacity:0.996" fill="#171517" d="M 523.5,309.5 C 526.647,319.43 530.313,329.264 534.5,339C 534.333,339.833 534.167,340.667 534,341.5C 528.667,345.5 524,350.167 520,355.5C 519.501,359.486 519.334,363.486 519.5,367.5C 519.167,367.5 518.833,367.5 518.5,367.5C 518.666,362.156 518.499,356.823 518,351.5C 517.329,352.252 516.496,352.586 515.5,352.5C 519.161,347.508 523.161,342.841 527.5,338.5C 523.745,330.215 520.412,321.882 517.5,313.5C 517.5,311.833 517.5,310.167 517.5,308.5C 518.222,308.082 518.722,307.416 519,306.5C 519.333,307.167 519.667,307.833 520,308.5C 521.733,306.042 522.9,306.375 523.5,309.5 Z"/></g>
<g><path style="opacity:0.996" fill="#110f11" d="M 511.5,301.5 C 512.167,307.833 512.833,314.167 513.5,320.5C 513.366,322.292 513.699,323.958 514.5,325.5C 516.275,328.887 517.942,332.387 519.5,336C 516.863,339.774 515.197,343.941 514.5,348.5C 513.579,347.019 512.412,345.686 511,344.5C 510.235,344.57 509.735,344.903 509.5,345.5C 508.28,342.084 506.28,339.084 503.5,336.5C 506.594,332.899 509.094,328.899 511,324.5C 511.5,316.841 511.666,309.174 511.5,301.5 Z"/></g>
<g><path style="opacity:0.088" fill="#eae7ea" d="M 517.5,313.5 C 520.412,321.882 523.745,330.215 527.5,338.5C 523.161,342.841 519.161,347.508 515.5,352.5C 514.508,352.672 513.842,352.338 513.5,351.5C 514.404,350.791 514.737,349.791 514.5,348.5C 515.197,343.941 516.863,339.774 519.5,336C 517.942,332.387 516.275,328.887 514.5,325.5C 515.167,325.5 515.833,325.5 516.5,325.5C 518.176,324.817 518.843,323.483 518.5,321.5C 517.758,319.574 516.758,317.741 515.5,316C 516.381,315.292 517.047,314.458 517.5,313.5 Z"/></g>
<g><path style="opacity:0.996" fill="#191619" d="M 494.5,328.5 C 494.21,331.785 494.877,334.785 496.5,337.5C 499.965,340.625 502.632,344.292 504.5,348.5C 504.631,349.376 504.298,350.043 503.5,350.5C 502.416,349.335 501.583,348.002 501,346.5C 500.506,348.134 500.34,349.801 500.5,351.5C 497.528,347.696 494.028,344.363 490,341.5C 490.217,336.681 491.717,332.347 494.5,328.5 Z"/></g>
<g><path style="opacity:0.009" fill="#ece9ed" d="M 505.5,274.5 C 505.328,275.492 505.662,276.158 506.5,276.5C 506.5,278.833 506.5,281.167 506.5,283.5C 505.343,286.273 504.676,289.273 504.5,292.5C 502.063,304.646 498.73,316.646 494.5,328.5C 491.717,332.347 490.217,336.681 490,341.5C 494.028,344.363 497.528,347.696 500.5,351.5C 501.989,353.805 503.489,356.138 505,358.5C 505.675,365.528 505.508,372.528 504.5,379.5C 501.663,386.671 498.996,394.004 496.5,401.5C 492.112,408.957 488.779,416.957 486.5,425.5C 490.088,432.343 494.422,438.677 499.5,444.5C 499.5,445.167 499.5,445.833 499.5,446.5C 493.335,440.026 488.001,432.859 483.5,425C 492.444,407.775 499.444,389.775 504.5,371C 503.7,366.92 503.2,362.753 503,358.5C 499.044,352.21 494.044,346.876 488,342.5C 487.833,341.667 487.667,340.833 487.5,340C 496.709,318.896 502.709,297.063 505.5,274.5 Z"/></g>
<g><path style="opacity:0.996" fill="#171417" d="M 514.5,348.5 C 514.737,349.791 514.404,350.791 513.5,351.5C 513.189,350.522 512.522,349.855 511.5,349.5C 510.571,350.689 510.238,352.022 510.5,353.5C 509.325,353.281 508.325,353.614 507.5,354.5C 507.977,355.931 508.643,357.264 509.5,358.5C 511.936,357.109 512.602,357.609 511.5,360C 512.756,360.417 513.423,361.25 513.5,362.5C 511.744,363.552 511.077,365.219 511.5,367.5C 511.149,371.684 510.482,375.684 509.5,379.5C 507.876,379.36 506.71,380.027 506,381.5C 505.283,380.956 504.783,380.289 504.5,379.5C 505.508,372.528 505.675,365.528 505,358.5C 503.489,356.138 501.989,353.805 500.5,351.5C 500.34,349.801 500.506,348.134 501,346.5C 501.583,348.002 502.416,349.335 503.5,350.5C 504.298,350.043 504.631,349.376 504.5,348.5C 506.145,349.479 507.479,350.812 508.5,352.5C 509.474,350.257 509.808,347.924 509.5,345.5C 509.735,344.903 510.235,344.57 511,344.5C 512.412,345.686 513.579,347.019 514.5,348.5 Z"/></g>
<g><path style="opacity:0.996" fill="#0c090c" d="M 513.5,351.5 C 513.842,352.338 514.508,352.672 515.5,352.5C 516.496,352.586 517.329,352.252 518,351.5C 518.499,356.823 518.666,362.156 518.5,367.5C 517.92,374.618 516.754,374.951 515,368.5C 514.617,369.056 514.117,369.389 513.5,369.5C 513.5,368.833 513.5,368.167 513.5,367.5C 513.5,365.833 513.5,364.167 513.5,362.5C 513.423,361.25 512.756,360.417 511.5,360C 512.602,357.609 511.936,357.109 509.5,358.5C 508.643,357.264 507.977,355.931 507.5,354.5C 508.325,353.614 509.325,353.281 510.5,353.5C 510.238,352.022 510.571,350.689 511.5,349.5C 512.522,349.855 513.189,350.522 513.5,351.5 Z"/></g>
<g><path style="opacity:0.906" fill="#716e72" d="M 513.5,362.5 C 513.5,364.167 513.5,365.833 513.5,367.5C 512.833,367.5 512.167,367.5 511.5,367.5C 511.077,365.219 511.744,363.552 513.5,362.5 Z"/></g>
<g><path style="opacity:0.175" fill="#e7e4e8" d="M 473.5,431.5 C 473.167,431.5 472.833,431.5 472.5,431.5C 470.124,427.595 469.124,423.261 469.5,418.5C 470.458,416.698 471.125,414.698 471.5,412.5C 473.317,407.044 475.317,401.711 477.5,396.5C 482.046,389.775 487.212,383.442 493,377.5C 493.49,376.207 493.657,374.873 493.5,373.5C 479.372,378.297 467.039,385.964 456.5,396.5C 452.066,399.599 448.733,403.599 446.5,408.5C 444.058,411.465 443.058,414.965 443.5,419C 443.604,427.311 446.104,434.811 451,441.5C 456.112,446.459 461.612,450.793 467.5,454.5C 466.833,454.5 466.167,454.5 465.5,454.5C 450.682,447.02 442.682,435.02 441.5,418.5C 442.167,411.168 445,404.835 450,399.5C 462.407,386.81 476.741,377.143 493,370.5C 495.977,373.1 496.31,376.1 494,379.5C 481.887,391.225 474.387,405.392 471.5,422C 471.655,425.292 472.322,428.459 473.5,431.5 Z M 467.5,397.5 C 467.322,400.216 466.822,402.883 466,405.5C 463.757,408.572 462.091,411.906 461,415.5C 458.833,413.333 456.667,411.167 454.5,409C 456.072,405.426 458.405,402.426 461.5,400C 463.217,398.441 465.217,397.608 467.5,397.5 Z"/></g>
<g><path style="opacity:0.996" fill="#171518" d="M 477.5,396.5 C 476.167,396.167 474.833,395.833 473.5,395.5C 475.587,392.659 477.087,389.659 478,386.5C 471.911,390.128 466.078,394.128 460.5,398.5C 459.329,397.655 457.995,396.989 456.5,396.5C 467.039,385.964 479.372,378.297 493.5,373.5C 493.657,374.873 493.49,376.207 493,377.5C 487.212,383.442 482.046,389.775 477.5,396.5 Z"/></g>
<g><path style="opacity:0.084" fill="#efecf0" d="M 521.5,368.5 C 523.47,377.176 525.637,385.842 528,394.5C 530.859,402.552 534.526,410.219 539,417.5C 539.667,421.167 539.667,424.833 539,428.5C 538.623,429.942 537.79,430.942 536.5,431.5C 536.5,430.833 536.5,430.167 536.5,429.5C 537.435,426.887 537.602,424.221 537,421.5C 532.711,409.946 528.211,398.612 523.5,387.5C 522.023,381.922 521.023,376.256 520.5,370.5C 520.328,369.508 520.662,368.842 521.5,368.5 Z"/></g>
<g><path style="opacity:0.996" fill="#121013" d="M 518.5,367.5 C 518.833,367.5 519.167,367.5 519.5,367.5C 519.263,368.791 519.596,369.791 520.5,370.5C 521.023,376.256 522.023,381.922 523.5,387.5C 523.279,390.097 522.779,390.097 522,387.5C 521.892,390.687 522.725,393.687 524.5,396.5C 524.167,396.833 523.833,397.167 523.5,397.5C 522.573,395.887 521.739,394.221 521,392.5C 520.722,393.416 520.222,394.082 519.5,394.5C 517.03,386.286 515.03,377.952 513.5,369.5C 514.117,369.389 514.617,369.056 515,368.5C 516.754,374.951 517.92,374.618 518.5,367.5 Z"/></g>
<g><path style="opacity:0.996" fill="#161417" d="M 504.5,379.5 C 504.783,380.289 505.283,380.956 506,381.5C 506.71,380.027 507.876,379.36 509.5,379.5C 509.579,382.271 509.079,384.937 508,387.5C 505.761,395.174 502.928,402.507 499.5,409.5C 498.797,408.193 498.797,406.693 499.5,405C 499.285,403.092 498.285,401.926 496.5,401.5C 498.996,394.004 501.663,386.671 504.5,379.5 Z"/></g>
<g><path style="opacity:0.051" fill="#e8e4e9" d="M 572.5,444.5 C 572.5,444.167 572.5,443.833 572.5,443.5C 572.5,442.833 572.5,442.167 572.5,441.5C 578.001,436.836 581.167,430.836 582,423.5C 582.828,417.142 581.328,411.476 577.5,406.5C 577.167,405.833 576.833,405.167 576.5,404.5C 569.761,396.097 561.761,389.097 552.5,383.5C 546.079,379.452 539.412,376.286 532.5,374C 531.483,375.049 531.316,376.216 532,377.5C 536.468,381.132 539.968,385.466 542.5,390.5C 542.833,391.167 543.167,391.833 543.5,392.5C 543.5,393.167 543.5,393.833 543.5,394.5C 539.564,388.396 535.064,382.729 530,377.5C 528.576,372.338 530.41,370.171 535.5,371C 548.443,378.051 560.609,386.218 572,395.5C 575.333,400.167 578.667,404.833 582,409.5C 586.044,423.192 582.877,434.859 572.5,444.5 Z"/></g>
<g><path style="opacity:0.996" fill="#131113" d="M 552.5,383.5 C 552.561,385.592 553.561,387.092 555.5,388C 553.575,387.865 551.575,387.698 549.5,387.5C 549.167,387.5 548.833,387.5 548.5,387.5C 547.434,386.308 546.601,386.641 546,388.5C 545.667,387.833 545.333,387.167 545,386.5C 544.8,388.32 543.966,389.653 542.5,390.5C 539.968,385.466 536.468,381.132 532,377.5C 531.316,376.216 531.483,375.049 532.5,374C 539.412,376.286 546.079,379.452 552.5,383.5 Z"/></g>
<g><path style="opacity:0.99" fill="#171518" d="M 552.5,383.5 C 561.761,389.097 569.761,396.097 576.5,404.5C 575.883,404.611 575.383,404.944 575,405.5C 575.068,407.342 574.901,409.009 574.5,410.5C 567.745,401.077 559.412,393.41 549.5,387.5C 551.575,387.698 553.575,387.865 555.5,388C 553.561,387.092 552.561,385.592 552.5,383.5 Z"/></g>
<g><path style="opacity:0.033" fill="#ebe7eb" d="M 473.5,395.5 C 470.132,399.569 467.799,404.236 466.5,409.5C 465.292,412.818 463.958,416.151 462.5,419.5C 459.259,416.713 455.593,414.713 451.5,413.5C 450.903,413.265 450.57,412.765 450.5,412C 452.911,406.764 456.245,402.264 460.5,398.5C 466.078,394.128 471.911,390.128 478,386.5C 477.087,389.659 475.587,392.659 473.5,395.5 Z M 467.5,397.5 C 465.217,397.608 463.217,398.441 461.5,400C 458.405,402.426 456.072,405.426 454.5,409C 456.667,411.167 458.833,413.333 461,415.5C 462.091,411.906 463.757,408.572 466,405.5C 466.822,402.883 467.322,400.216 467.5,397.5 Z"/></g>
<g><path style="opacity:0.98" fill="#120f13" d="M 456.5,396.5 C 457.995,396.989 459.329,397.655 460.5,398.5C 456.245,402.264 452.911,406.764 450.5,412C 450.57,412.765 450.903,413.265 451.5,413.5C 451.611,414.117 451.944,414.617 452.5,415C 451.269,416.405 449.936,417.571 448.5,418.5C 448.5,420.5 448.5,422.5 448.5,424.5C 446.974,423.508 446.307,422.008 446.5,420C 446.748,418.284 447.415,416.784 448.5,415.5C 447.624,414.749 446.624,414.249 445.5,414C 446.406,412.301 446.739,410.467 446.5,408.5C 448.733,403.599 452.066,399.599 456.5,396.5 Z"/></g>
<g><path style="opacity:0.016" fill="#f0edf1" d="M 548.5,387.5 C 548.833,387.5 549.167,387.5 549.5,387.5C 559.412,393.41 567.745,401.077 574.5,410.5C 574.5,410.833 574.5,411.167 574.5,411.5C 572.844,413.06 570.844,414.06 568.5,414.5C 566.589,415.075 564.922,416.075 563.5,417.5C 562.883,417.611 562.383,417.944 562,418.5C 558.367,407.735 553.534,397.569 547.5,388C 547.728,387.601 548.062,387.435 548.5,387.5 Z M 556.5,396.5 C 562.191,399.678 567.191,403.845 571.5,409C 568.738,411.787 565.405,413.287 561.5,413.5C 560.66,407.515 558.993,401.848 556.5,396.5 Z"/></g>
<g><path style="opacity:0.996" fill="#181619" d="M 391.5,411.5 C 390.603,412.598 389.77,412.598 389,411.5C 384.409,402.012 383.576,402.345 386.5,412.5C 386.333,413.167 386.167,413.833 386,414.5C 385.701,411.202 384.867,410.868 383.5,413.5C 381.968,410.235 380.635,406.902 379.5,403.5C 378.61,401.218 378.444,398.885 379,396.5C 379.837,394.993 381.004,394.493 382.5,395C 385.879,400.255 388.879,405.755 391.5,411.5 Z"/></g>
<g><path style="opacity:0.996" fill="#131013" d="M 473.5,395.5 C 474.833,395.833 476.167,396.167 477.5,396.5C 475.317,401.711 473.317,407.044 471.5,412.5C 470.057,413.335 469.057,414.668 468.5,416.5C 467.056,414.392 466.39,412.059 466.5,409.5C 467.799,404.236 470.132,399.569 473.5,395.5 Z"/></g>
<g><path style="opacity:0.996" fill="#161417" d="M 523.5,387.5 C 528.211,398.612 532.711,409.946 537,421.5C 537.602,424.221 537.435,426.887 536.5,429.5C 530.405,437.351 524.072,445.018 517.5,452.5C 516.069,451.906 514.402,450.906 512.5,449.5C 518.205,440.947 524.538,432.781 531.5,425C 526.991,414.963 522.991,404.797 519.5,394.5C 520.222,394.082 520.722,393.416 521,392.5C 521.739,394.221 522.573,395.887 523.5,397.5C 523.833,397.167 524.167,396.833 524.5,396.5C 522.725,393.687 521.892,390.687 522,387.5C 522.779,390.097 523.279,390.097 523.5,387.5 Z"/></g>
<g><path style="opacity:0.996" fill="#19171a" d="M 548.5,387.5 C 548.062,387.435 547.728,387.601 547.5,388C 553.534,397.569 558.367,407.735 562,418.5C 562.383,417.944 562.883,417.611 563.5,417.5C 563.25,418.922 562.417,419.922 561,420.5C 560.333,419.167 559.667,419.167 559,420.5C 558.51,421.793 558.343,423.127 558.5,424.5C 558.045,421.015 557.879,417.348 558,413.5C 556.207,412.619 555.54,413.286 556,415.5C 556.889,414.112 557.389,414.278 557.5,416C 556.944,417.011 556.278,417.844 555.5,418.5C 553.511,412.046 551.011,405.712 548,399.5C 546.974,396.761 545.474,394.428 543.5,392.5C 543.167,391.833 542.833,391.167 542.5,390.5C 543.966,389.653 544.8,388.32 545,386.5C 545.333,387.167 545.667,387.833 546,388.5C 546.601,386.641 547.434,386.308 548.5,387.5 Z"/></g>
<g><path style="opacity:0.784" fill="#807d81" d="M 574.5,411.5 C 575.404,412.209 575.737,413.209 575.5,414.5C 573.167,414.5 570.833,414.5 568.5,414.5C 570.844,414.06 572.844,413.06 574.5,411.5 Z"/></g>
<g><path style="opacity:0.996" fill="#161317" d="M 446.5,408.5 C 446.739,410.467 446.406,412.301 445.5,414C 446.624,414.249 447.624,414.749 448.5,415.5C 447.415,416.784 446.748,418.284 446.5,420C 446.307,422.008 446.974,423.508 448.5,424.5C 449.805,429.589 451.972,434.255 455,438.5C 460.813,442.646 466.646,446.646 472.5,450.5C 470.622,451.934 469.955,453.601 470.5,455.5C 469.391,455.443 468.391,455.11 467.5,454.5C 461.612,450.793 456.112,446.459 451,441.5C 446.104,434.811 443.604,427.311 443.5,419C 443.058,414.965 444.058,411.465 446.5,408.5 Z"/></g>
<g><path style="opacity:0.004" fill="#e6e2e6" d="M 511.5,367.5 C 512.167,367.5 512.833,367.5 513.5,367.5C 513.5,368.167 513.5,368.833 513.5,369.5C 515.03,377.952 517.03,386.286 519.5,394.5C 522.991,404.797 526.991,414.963 531.5,425C 524.538,432.781 518.205,440.947 512.5,449.5C 510.183,445.854 507.516,442.52 504.5,439.5C 500.971,434.452 496.971,429.785 492.5,425.5C 495.419,420.338 497.752,415.005 499.5,409.5C 502.928,402.507 505.761,395.174 508,387.5C 509.079,384.937 509.579,382.271 509.5,379.5C 510.482,375.684 511.149,371.684 511.5,367.5 Z M 512.5,378.5 C 513.117,378.611 513.617,378.944 514,379.5C 514.481,383.531 515.147,387.531 516,391.5C 520.251,402.077 524.417,412.744 528.5,423.5C 528.281,424.938 527.781,426.271 527,427.5C 521.767,432.973 517.267,438.973 513.5,445.5C 506.79,439.059 500.79,432.059 495.5,424.5C 502.303,409.566 507.969,394.233 512.5,378.5 Z"/></g>
<g><path style="opacity:0.996" fill="#131014" d="M 645.5,399.5 C 642.983,409.213 639.983,418.88 636.5,428.5C 635.778,428.918 635.278,429.584 635,430.5C 634.057,427.983 632.89,426.316 631.5,425.5C 629.595,428.304 627.929,431.304 626.5,434.5C 625.883,434.389 625.383,434.056 625,433.5C 623.667,435.5 622.333,437.5 621,439.5C 619.961,438.756 619.461,437.756 619.5,436.5C 626.621,423.256 633.455,409.923 640,396.5C 641.699,395.594 643.533,395.261 645.5,395.5C 645.5,396.833 645.5,398.167 645.5,399.5 Z"/></g>
<g><path style="opacity:0.996" fill="#161316" d="M 496.5,401.5 C 498.285,401.926 499.285,403.092 499.5,405C 498.797,406.693 498.797,408.193 499.5,409.5C 497.752,415.005 495.419,420.338 492.5,425.5C 496.971,429.785 500.971,434.452 504.5,439.5C 503.504,439.586 502.671,439.252 502,438.5C 500.664,440.525 500.164,442.525 500.5,444.5C 500.167,444.5 499.833,444.5 499.5,444.5C 494.422,438.677 490.088,432.343 486.5,425.5C 488.779,416.957 492.112,408.957 496.5,401.5 Z"/></g>
<g><path style="opacity:0.105" fill="#eeeaee" d="M 645.5,403.5 C 645.5,402.167 645.5,400.833 645.5,399.5C 645.5,398.167 645.5,396.833 645.5,395.5C 643.533,395.261 641.699,395.594 640,396.5C 633.455,409.923 626.621,423.256 619.5,436.5C 613.761,445.635 607.761,454.635 601.5,463.5C 599.212,467.456 596.212,470.789 592.5,473.5C 592.5,472.833 592.5,472.167 592.5,471.5C 595.498,468.333 598.331,465 601,461.5C 615.221,439.728 627.887,417.061 639,393.5C 641.197,391.269 643.53,391.269 646,393.5C 647.783,396.992 647.617,400.325 645.5,403.5 Z"/></g>
<g><path style="opacity:0.996" fill="#151316" d="M 466.5,409.5 C 466.39,412.059 467.056,414.392 468.5,416.5C 469.057,414.668 470.057,413.335 471.5,412.5C 471.125,414.698 470.458,416.698 469.5,418.5C 468.221,419.968 466.554,420.635 464.5,420.5C 464.608,422.514 463.942,424.18 462.5,425.5C 461.167,425.167 459.833,424.833 458.5,424.5C 455.506,422 452.173,420 448.5,418.5C 449.936,417.571 451.269,416.405 452.5,415C 451.944,414.617 451.611,414.117 451.5,413.5C 455.593,414.713 459.259,416.713 462.5,419.5C 463.958,416.151 465.292,412.818 466.5,409.5 Z"/></g>
<g><path style="opacity:0.996" fill="#100e11" d="M 576.5,404.5 C 576.833,405.167 577.167,405.833 577.5,406.5C 576.876,406.917 576.543,407.584 576.5,408.5C 577.378,411.13 578.045,413.797 578.5,416.5C 574.313,416.395 570.313,417.228 566.5,419C 567.167,419.333 567.833,419.667 568.5,420C 567.748,420.671 567.414,421.504 567.5,422.5C 566.081,423.451 564.415,423.784 562.5,423.5C 562.371,425.216 562.038,426.883 561.5,428.5C 560.857,426.924 559.857,425.59 558.5,424.5C 558.343,423.127 558.51,421.793 559,420.5C 559.667,419.167 560.333,419.167 561,420.5C 562.417,419.922 563.25,418.922 563.5,417.5C 564.922,416.075 566.589,415.075 568.5,414.5C 570.833,414.5 573.167,414.5 575.5,414.5C 575.737,413.209 575.404,412.209 574.5,411.5C 574.5,411.167 574.5,410.833 574.5,410.5C 574.901,409.009 575.068,407.342 575,405.5C 575.383,404.944 575.883,404.611 576.5,404.5 Z"/></g>
<g><path style="opacity:0.067" fill="#eae7eb" d="M 406.5,434.5 C 405.662,434.842 405.328,435.508 405.5,436.5C 400.089,428.687 395.422,420.353 391.5,411.5C 388.879,405.755 385.879,400.255 382.5,395C 381.004,394.493 379.837,394.993 379,396.5C 378.444,398.885 378.61,401.218 379.5,403.5C 379.5,404.5 379.5,405.5 379.5,406.5C 376.653,401.896 375.986,396.896 377.5,391.5C 381.527,392.787 385.527,393.287 389.5,393C 387.582,394.77 387.082,396.937 388,399.5C 393.655,411.478 399.822,423.145 406.5,434.5 Z"/></g>
<g><path style="opacity:0.996" fill="#121014" d="M 391.5,411.5 C 395.422,420.353 400.089,428.687 405.5,436.5C 406.833,439.167 408.167,441.833 409.5,444.5C 409.316,446.925 408.649,446.925 407.5,444.5C 406.914,444.709 406.414,445.043 406,445.5C 404.871,443.859 403.371,442.859 401.5,442.5C 400.121,438.075 397.954,434.075 395,430.5C 395.341,434.205 396.175,437.872 397.5,441.5C 396.732,442.263 396.232,443.263 396,444.5C 395.296,442.273 394.129,441.94 392.5,443.5C 389.13,433.714 386.13,423.714 383.5,413.5C 384.867,410.868 385.701,411.202 386,414.5C 386.167,413.833 386.333,413.167 386.5,412.5C 383.576,402.345 384.409,402.012 389,411.5C 389.77,412.598 390.603,412.598 391.5,411.5 Z"/></g>
<g><path style="opacity:0.996" fill="#131014" d="M 558.5,424.5 C 559.857,425.59 560.857,426.924 561.5,428.5C 560.431,435.297 557.765,441.297 553.5,446.5C 553.209,445.351 552.376,444.684 551,444.5C 549.467,444.773 547.967,445.106 546.5,445.5C 552.888,437.669 555.888,428.669 555.5,418.5C 556.278,417.844 556.944,417.011 557.5,416C 557.389,414.278 556.889,414.112 556,415.5C 555.54,413.286 556.207,412.619 558,413.5C 557.879,417.348 558.045,421.015 558.5,424.5 Z"/></g>
<g><path style="opacity:0.961" fill="#161417" d="M 636.5,428.5 C 634.03,436.715 632.03,445.049 630.5,453.5C 626.943,463.816 626.777,474.15 630,484.5C 631.518,485.163 632.685,486.163 633.5,487.5C 631.897,487.312 630.563,487.812 629.5,489C 631.595,489.556 631.762,490.056 630,490.5C 628.006,490.939 625.84,490.939 623.5,490.5C 623.5,490.167 623.5,489.833 623.5,489.5C 625.484,489.617 627.15,488.95 628.5,487.5C 627.753,487.264 626.92,486.93 626,486.5C 625.383,485.551 625.549,484.718 626.5,484C 625.833,483.667 625.167,483.333 624.5,483C 625.26,481.559 625.926,480.059 626.5,478.5C 625.889,476.278 625.889,473.945 626.5,471.5C 626.047,467.827 625.547,464.16 625,460.5C 624.617,461.056 624.117,461.389 623.5,461.5C 625.098,449.241 627.764,437.241 631.5,425.5C 632.89,426.316 634.057,427.983 635,430.5C 635.278,429.584 635.778,428.918 636.5,428.5 Z"/></g>
<g><path style="opacity:0.008" fill="#e0dce1" d="M 645.5,399.5 C 645.5,400.833 645.5,402.167 645.5,403.5C 641.612,419.397 637.278,435.064 632.5,450.5C 631.833,451.5 631.167,452.5 630.5,453.5C 632.03,445.049 634.03,436.715 636.5,428.5C 639.983,418.88 642.983,409.213 645.5,399.5 Z"/></g>
<g><path style="opacity:0.993" fill="#121013" d="M 469.5,418.5 C 469.124,423.261 470.124,427.595 472.5,431.5C 473.216,434.598 474.216,437.598 475.5,440.5C 475.094,444.029 473.427,445.029 470.5,443.5C 466.885,438.012 464.218,432.012 462.5,425.5C 463.942,424.18 464.608,422.514 464.5,420.5C 466.554,420.635 468.221,419.968 469.5,418.5 Z"/></g>
<g><path style="opacity:0.09" fill="#e5e2e6" d="M 543.5,392.5 C 545.474,394.428 546.974,396.761 548,399.5C 551.011,405.712 553.511,412.046 555.5,418.5C 555.888,428.669 552.888,437.669 546.5,445.5C 544.147,447.86 542.147,450.527 540.5,453.5C 536.54,457.397 533.04,461.731 530,466.5C 526.393,473.192 522.893,479.858 519.5,486.5C 524.345,471.146 532.511,457.813 544,446.5C 546.936,441.627 549.603,436.627 552,431.5C 552.584,427.905 553.418,424.405 554.5,421C 551.529,411.89 547.862,403.056 543.5,394.5C 543.5,393.833 543.5,393.167 543.5,392.5 Z"/></g>
<g><path style="opacity:0.996" fill="#141215" d="M 577.5,406.5 C 581.328,411.476 582.828,417.142 582,423.5C 581.167,430.836 578.001,436.836 572.5,441.5C 571.943,439.765 571.61,438.098 571.5,436.5C 575.975,431.261 577.308,425.261 575.5,418.5C 573.09,420.372 570.423,421.705 567.5,422.5C 567.414,421.504 567.748,420.671 568.5,420C 567.833,419.667 567.167,419.333 566.5,419C 570.313,417.228 574.313,416.395 578.5,416.5C 578.045,413.797 577.378,411.13 576.5,408.5C 576.543,407.584 576.876,406.917 577.5,406.5 Z"/></g>
<g><path style="opacity:0.044" fill="#f0ecf1" d="M 705.5,463.5 C 705.5,463.167 705.5,462.833 705.5,462.5C 709.046,461.615 711.712,459.615 713.5,456.5C 717.132,446.14 713.299,440.14 702,438.5C 693.37,440.249 689.87,445.249 691.5,453.5C 691.5,453.833 691.5,454.167 691.5,454.5C 691.5,455.167 691.5,455.833 691.5,456.5C 687.765,452.122 687.598,447.455 691,442.5C 694.646,438.129 699.146,435.629 704.5,435C 708.589,437.127 712.423,439.627 716,442.5C 716.83,448.196 716.663,453.863 715.5,459.5C 712.74,462.199 709.406,463.533 705.5,463.5 Z M 703.5,448.5 C 704.5,448.5 705.5,448.5 706.5,448.5C 706.386,454.764 705.386,454.764 703.5,448.5 Z"/></g>
<g><path style="opacity:0.016" fill="#eae7eb" d="M 406.5,434.5 C 414.817,450.825 425.483,465.492 438.5,478.5C 438.5,479.167 438.5,479.833 438.5,480.5C 434.589,477.092 430.755,473.426 427,469.5C 421.144,461.1 415.311,452.767 409.5,444.5C 408.167,441.833 406.833,439.167 405.5,436.5C 405.328,435.508 405.662,434.842 406.5,434.5 Z"/></g>
<g><path style="opacity:0.065" fill="#e2dfe3" d="M 379.5,403.5 C 380.635,406.902 381.968,410.235 383.5,413.5C 386.13,423.714 389.13,433.714 392.5,443.5C 394.536,451.418 396.203,459.418 397.5,467.5C 397.167,467.5 396.833,467.5 396.5,467.5C 391.887,451.499 387.387,435.499 383,419.5C 380.985,415.836 379.485,412.002 378.5,408C 379.056,407.617 379.389,407.117 379.5,406.5C 379.5,405.5 379.5,404.5 379.5,403.5 Z"/></g>
<g><path style="opacity:0.23" fill="#e5e2e6" d="M 448.5,418.5 C 452.173,420 455.506,422 458.5,424.5C 459.833,424.833 461.167,425.167 462.5,425.5C 464.218,432.012 466.885,438.012 470.5,443.5C 471.581,445.764 472.915,447.931 474.5,450C 473.906,450.464 473.239,450.631 472.5,450.5C 466.646,446.646 460.813,442.646 455,438.5C 451.972,434.255 449.805,429.589 448.5,424.5C 448.5,422.5 448.5,420.5 448.5,418.5 Z M 458.5,424.5 C 458.762,426.564 459.929,427.897 462,428.5C 462.23,433.126 463.73,437.293 466.5,441C 466,441.5 465.5,442 465,442.5C 457.85,438.9 453.016,433.233 450.5,425.5C 450.865,424.098 451.699,423.098 453,422.5C 454.8,423.32 456.634,423.986 458.5,424.5 Z"/></g>
<g><path style="opacity:0.155" fill="#e8e5e9" d="M 571.5,436.5 C 565.828,442.338 559.162,446.671 551.5,449.5C 552.167,448.5 552.833,447.5 553.5,446.5C 557.765,441.297 560.431,435.297 561.5,428.5C 562.038,426.883 562.371,425.216 562.5,423.5C 564.415,423.784 566.081,423.451 567.5,422.5C 570.423,421.705 573.09,420.372 575.5,418.5C 577.308,425.261 575.975,431.261 571.5,436.5 Z M 572.5,421.5 C 574.026,422.105 575.026,423.271 575.5,425C 573.302,427.81 571.635,430.976 570.5,434.5C 567.978,436.856 565.312,439.023 562.5,441C 561.5,441.667 560.5,441.667 559.5,441C 561.799,436.359 563.632,431.526 565,426.5C 567.74,425.101 570.24,423.434 572.5,421.5 Z"/></g>
<g><path style="opacity:0.984" fill="#191619" d="M 713.5,456.5 C 712.032,454.084 711.365,451.417 711.5,448.5C 710.5,448.5 709.5,448.5 708.5,448.5C 704.451,443.179 700.451,443.179 696.5,448.5C 694.683,447.781 694.016,446.781 694.5,445.5C 692.124,447.627 691.124,450.293 691.5,453.5C 689.87,445.249 693.37,440.249 702,438.5C 713.299,440.14 717.132,446.14 713.5,456.5 Z M 703.5,448.5 C 705.386,454.764 706.386,454.764 706.5,448.5C 705.5,448.5 704.5,448.5 703.5,448.5 Z"/></g>
<g><path style="opacity:0.992" fill="#171518" d="M 475.5,440.5 C 478.821,445.129 482.154,449.796 485.5,454.5C 483.153,455.76 481.32,455.094 480,452.5C 477.925,453.895 476.092,453.562 474.5,451.5C 474.537,453.322 474.204,455.322 473.5,457.5C 471.973,457.573 470.973,456.906 470.5,455.5C 469.955,453.601 470.622,451.934 472.5,450.5C 473.239,450.631 473.906,450.464 474.5,450C 472.915,447.931 471.581,445.764 470.5,443.5C 473.427,445.029 475.094,444.029 475.5,440.5 Z"/></g>
<g><path style="opacity:0.991" fill="#131114" d="M 397.5,441.5 C 400.645,452.927 402.478,464.593 403,476.5C 403.278,477.416 403.778,478.082 404.5,478.5C 404.586,480.677 405.253,482.677 406.5,484.5C 403.8,486.234 401.8,488.568 400.5,491.5C 403.854,495.019 407.02,498.686 410,502.5C 410.49,501.207 410.657,499.873 410.5,498.5C 411.289,498.783 411.956,499.283 412.5,500C 411.167,501 411.167,502 412.5,503C 411.552,503.483 410.552,503.649 409.5,503.5C 409.714,505.144 409.38,506.644 408.5,508C 410.687,509.025 412.354,510.525 413.5,512.5C 413.103,513.525 412.437,513.692 411.5,513C 404.737,504.714 396.737,498.214 387.5,493.5C 391.884,493.97 395.884,492.97 399.5,490.5C 399.291,489.914 398.957,489.414 398.5,489C 402.173,488.108 402.34,486.608 399,484.5C 398.333,487.167 397.667,487.167 397,484.5C 396.617,485.056 396.117,485.389 395.5,485.5C 398.295,479.68 398.962,473.68 397.5,467.5C 396.203,459.418 394.536,451.418 392.5,443.5C 394.129,441.94 395.296,442.273 396,444.5C 396.232,443.263 396.732,442.263 397.5,441.5 Z"/></g>
<g><path style="opacity:0.207" fill="#e5e2e6" d="M 401.5,442.5 C 403.789,451.42 405.789,460.42 407.5,469.5C 406.662,469.842 406.328,470.508 406.5,471.5C 405.691,469.708 405.191,467.708 405,465.5C 404.501,469.821 404.334,474.154 404.5,478.5C 403.778,478.082 403.278,477.416 403,476.5C 402.478,464.593 400.645,452.927 397.5,441.5C 396.175,437.872 395.341,434.205 395,430.5C 397.954,434.075 400.121,438.075 401.5,442.5 Z"/></g>
<g><path style="opacity:0.996" fill="#151115" d="M 504.5,439.5 C 507.516,442.52 510.183,445.854 512.5,449.5C 514.402,450.906 516.069,451.906 517.5,452.5C 516.469,455.711 514.469,457.544 511.5,458C 507.621,453.626 503.954,449.126 500.5,444.5C 500.164,442.525 500.664,440.525 502,438.5C 502.671,439.252 503.504,439.586 504.5,439.5 Z"/></g>
<g><path style="opacity:0.02" fill="#eae6ea" d="M 536.5,429.5 C 536.5,430.167 536.5,430.833 536.5,431.5C 529.332,440.841 522.332,450.341 515.5,460C 513.447,460.325 511.447,459.991 509.5,459C 506.713,454.381 503.38,450.215 499.5,446.5C 499.5,445.833 499.5,445.167 499.5,444.5C 499.833,444.5 500.167,444.5 500.5,444.5C 503.954,449.126 507.621,453.626 511.5,458C 514.469,457.544 516.469,455.711 517.5,452.5C 524.072,445.018 530.405,437.351 536.5,429.5 Z"/></g>
<g><path style="opacity:0.022" fill="#ece8ec" d="M 708.5,448.5 C 709.823,453.489 707.823,456.489 702.5,457.5C 698.094,456.096 696.094,453.096 696.5,448.5C 700.451,443.179 704.451,443.179 708.5,448.5 Z M 703.5,448.5 C 705.386,454.764 706.386,454.764 706.5,448.5C 705.5,448.5 704.5,448.5 703.5,448.5 Z"/></g>
<g><path style="opacity:0.996" fill="#171517" d="M 571.5,436.5 C 571.61,438.098 571.943,439.765 572.5,441.5C 572.5,442.167 572.5,442.833 572.5,443.5C 567.167,447.167 561.833,450.833 556.5,454.5C 555.209,453.527 555.209,452.527 556.5,451.5C 554.182,451.531 552.515,450.864 551.5,449.5C 559.162,446.671 565.828,442.338 571.5,436.5 Z"/></g>
<g><path style="opacity:0.996" fill="#0e0d10" d="M 553.5,446.5 C 552.833,447.5 552.167,448.5 551.5,449.5C 552.515,450.864 554.182,451.531 556.5,451.5C 555.209,452.527 555.209,453.527 556.5,454.5C 554.302,456.098 551.969,457.431 549.5,458.5C 548.07,458.421 546.736,458.754 545.5,459.5C 546.016,458.242 545.35,457.242 543.5,456.5C 542.749,457.376 542.249,458.376 542,459.5C 540.955,457.258 540.455,455.258 540.5,453.5C 542.147,450.527 544.147,447.86 546.5,445.5C 547.967,445.106 549.467,444.773 551,444.5C 552.376,444.684 553.209,445.351 553.5,446.5 Z"/></g>
<g><path style="opacity:0.98" fill="#1e1b1e" d="M 626.5,434.5 C 621.921,441.314 617.087,447.981 612,454.5C 610.878,456.407 610.045,458.407 609.5,460.5C 607.806,461.527 606.473,462.861 605.5,464.5C 604.708,462.255 603.375,461.922 601.5,463.5C 607.761,454.635 613.761,445.635 619.5,436.5C 619.461,437.756 619.961,438.756 621,439.5C 622.333,437.5 623.667,435.5 625,433.5C 625.383,434.056 625.883,434.389 626.5,434.5 Z"/></g>
<g><path style="opacity:0.085" fill="#f0edf1" d="M 346.5,464.5 C 345.791,465.404 344.791,465.737 343.5,465.5C 341.784,463.975 339.784,462.975 337.5,462.5C 336.34,461.735 335.34,460.735 334.5,459.5C 338.001,455.917 339.001,451.917 337.5,447.5C 336.028,441.538 332.195,438.871 326,439.5C 320.14,439.34 316.307,442.007 314.5,447.5C 313.833,448.5 313.167,449.5 312.5,450.5C 311.995,443.125 315.662,438.625 323.5,437C 337.573,437.236 342.573,444.069 338.5,457.5C 339.953,461.226 342.619,463.559 346.5,464.5 Z"/></g>
<g><path style="opacity:0.973" fill="#131014" d="M 337.5,447.5 C 336.894,451.297 335.394,454.63 333,457.5C 332.5,457 332,456.5 331.5,456C 332.337,454.989 332.67,453.822 332.5,452.5C 332.143,447.303 329.476,444.803 324.5,445C 322.365,445.876 321.031,447.376 320.5,449.5C 319.075,452.723 319.408,455.89 321.5,459C 320.552,459.483 319.552,459.649 318.5,459.5C 316.827,458.657 315.66,457.324 315,455.5C 314.503,452.854 314.336,450.187 314.5,447.5C 316.307,442.007 320.14,439.34 326,439.5C 332.195,438.871 336.028,441.538 337.5,447.5 Z M 326.5,447.5 C 330.916,448.435 331.582,450.602 328.5,454C 324.075,454.956 322.408,453.123 323.5,448.5C 324.791,448.737 325.791,448.404 326.5,447.5 Z"/></g>
<g><path style="opacity:0.059" fill="#ece8ec" d="M 332.5,452.5 C 329.561,458.192 325.728,458.859 321,454.5C 320.506,452.866 320.34,451.199 320.5,449.5C 321.031,447.376 322.365,445.876 324.5,445C 329.476,444.803 332.143,447.303 332.5,452.5 Z M 326.5,447.5 C 325.791,448.404 324.791,448.737 323.5,448.5C 322.408,453.123 324.075,454.956 328.5,454C 331.582,450.602 330.916,448.435 326.5,447.5 Z"/></g>
<g><path style="opacity:0.996" fill="#121114" d="M 485.5,454.5 C 487.758,457.357 489.758,460.357 491.5,463.5C 489.603,466.833 487.27,466.833 484.5,463.5C 483.893,463.624 483.56,463.957 483.5,464.5C 480.129,462.154 476.796,459.821 473.5,457.5C 474.204,455.322 474.537,453.322 474.5,451.5C 476.092,453.562 477.925,453.895 480,452.5C 481.32,455.094 483.153,455.76 485.5,454.5 Z"/></g>
<g><path style="opacity:0.096" fill="#dfdcdf" d="M 631.5,425.5 C 627.764,437.241 625.098,449.241 623.5,461.5C 623.672,462.492 623.338,463.158 622.5,463.5C 621.985,458.914 620.985,458.581 619.5,462.5C 622.069,454.971 623.902,447.304 625,439.5C 614.423,456.727 608.59,475.394 607.5,495.5C 607.5,496.167 607.5,496.833 607.5,497.5C 606.517,493.702 606.183,489.702 606.5,485.5C 607.07,478.221 608.737,471.221 611.5,464.5C 611.66,462.645 610.993,461.312 609.5,460.5C 610.045,458.407 610.878,456.407 612,454.5C 617.087,447.981 621.921,441.314 626.5,434.5C 627.929,431.304 629.595,428.304 631.5,425.5 Z"/></g>
<g><path style="opacity:0.996" fill="#110f12" d="M 696.5,448.5 C 696.094,453.096 698.094,456.096 702.5,457.5C 707.823,456.489 709.823,453.489 708.5,448.5C 709.5,448.5 710.5,448.5 711.5,448.5C 711.365,451.417 712.032,454.084 713.5,456.5C 711.712,459.615 709.046,461.615 705.5,462.5C 703.833,462.5 702.167,462.5 700.5,462.5C 699.054,467.392 697.054,472.059 694.5,476.5C 691.085,475.604 690.752,474.104 693.5,472C 693.07,471.035 692.404,470.535 691.5,470.5C 692.463,469.637 692.463,468.97 691.5,468.5C 681.964,474.101 672.297,479.434 662.5,484.5C 661.167,484.833 659.833,485.167 658.5,485.5C 657.118,484.199 655.452,483.366 653.5,483C 654.966,482.365 656.3,481.531 657.5,480.5C 657.833,481.167 658.167,481.833 658.5,482.5C 659.429,481.311 659.762,479.978 659.5,478.5C 661.179,478.715 662.179,478.048 662.5,476.5C 673.536,470.982 684.536,465.482 695.5,460C 693.531,458.5 692.198,456.667 691.5,454.5C 691.5,454.167 691.5,453.833 691.5,453.5C 691.124,450.293 692.124,447.627 694.5,445.5C 694.016,446.781 694.683,447.781 696.5,448.5 Z M 703.5,448.5 C 705.386,454.764 706.386,454.764 706.5,448.5C 705.5,448.5 704.5,448.5 703.5,448.5 Z"/></g>
<g><path style="opacity:0.961" fill="#181518" d="M 337.5,447.5 C 339.001,451.917 338.001,455.917 334.5,459.5C 335.34,460.735 336.34,461.735 337.5,462.5C 336.279,463.028 335.113,463.695 334,464.5C 333.667,463.833 333.333,463.167 333,462.5C 332.302,463.691 331.469,464.691 330.5,465.5C 329.596,464.791 329.263,463.791 329.5,462.5C 326.482,462.665 323.482,462.498 320.5,462C 319.619,461.292 318.953,460.458 318.5,459.5C 319.552,459.649 320.552,459.483 321.5,459C 319.408,455.89 319.075,452.723 320.5,449.5C 320.34,451.199 320.506,452.866 321,454.5C 325.728,458.859 329.561,458.192 332.5,452.5C 332.67,453.822 332.337,454.989 331.5,456C 332,456.5 332.5,457 333,457.5C 335.394,454.63 336.894,451.297 337.5,447.5 Z"/></g>
<g><path style="opacity:0.014" fill="#edeaee" d="M 428.5,478.5 C 428.5,479.167 428.5,479.833 428.5,480.5C 424.446,476.088 420.613,471.421 417,466.5C 416.667,466.833 416.333,467.167 416,467.5C 416.194,471.947 417.194,476.28 419,480.5C 419.822,488.012 419.655,495.345 418.5,502.5C 418.5,501.167 418.5,499.833 418.5,498.5C 418.758,490.208 417.425,482.208 414.5,474.5C 411.739,465.056 408.905,455.723 406,446.5C 413.264,457.371 420.764,468.038 428.5,478.5 Z"/></g>
<g><path style="opacity:0.984" fill="#121013" d="M 337.5,462.5 C 339.784,462.975 341.784,463.975 343.5,465.5C 350.349,468.787 357.015,472.454 363.5,476.5C 362.232,477.787 362.565,478.787 364.5,479.5C 362.955,480.452 361.288,480.785 359.5,480.5C 359.5,479.5 359.5,478.5 359.5,477.5C 357.585,477.216 355.919,477.549 354.5,478.5C 349.362,475.763 344.362,472.763 339.5,469.5C 339.167,469.833 338.833,470.167 338.5,470.5C 340.432,473.366 342.099,476.366 343.5,479.5C 343.208,482.765 343.875,485.765 345.5,488.5C 345.465,490.974 344.798,491.14 343.5,489C 343.833,488.667 344.167,488.333 344.5,488C 343.423,487.53 342.423,487.697 341.5,488.5C 337.613,481.055 333.946,473.388 330.5,465.5C 331.469,464.691 332.302,463.691 333,462.5C 333.333,463.167 333.667,463.833 334,464.5C 335.113,463.695 336.279,463.028 337.5,462.5 Z"/></g>
<g><path style="opacity:0.996" fill="#151315" d="M 482.5,500.5 C 479.1,498.963 475.767,497.13 472.5,495C 473.833,494.667 475.167,494.333 476.5,494C 474.69,491.356 472.69,488.856 470.5,486.5C 469.548,488.045 469.215,489.712 469.5,491.5C 469.316,493.925 468.649,493.925 467.5,491.5C 466.056,492.981 465.389,492.648 465.5,490.5C 466.445,482.503 464.278,475.503 459,469.5C 459.31,474.107 459.476,478.773 459.5,483.5C 457.997,483.165 456.664,483.165 455.5,483.5C 456.569,480.592 456.736,477.592 456,474.5C 453.298,469.437 451.464,464.103 450.5,458.5C 463.691,464.531 472.524,474.531 477,488.5C 479.383,492.105 481.883,495.605 484.5,499C 484.164,500.03 483.497,500.53 482.5,500.5 Z"/></g>
<g><path style="opacity:0.996" fill="#1a171a" d="M 401.5,442.5 C 403.371,442.859 404.871,443.859 406,445.5C 406.414,445.043 406.914,444.709 407.5,444.5C 408.649,446.925 409.316,446.925 409.5,444.5C 415.311,452.767 421.144,461.1 427,469.5C 430.755,473.426 434.589,477.092 438.5,480.5C 440.267,482.89 442.6,484.557 445.5,485.5C 444.657,486.983 443.657,488.65 442.5,490.5C 439.732,488.913 437.065,487.08 434.5,485C 433.002,482.336 431.002,480.17 428.5,478.5C 420.764,468.038 413.264,457.371 406,446.5C 408.905,455.723 411.739,465.056 414.5,474.5C 413.782,476.246 412.782,476.912 411.5,476.5C 412.485,478.098 412.651,479.765 412,481.5C 411.333,479.5 410.667,477.5 410,475.5C 409.333,479.5 409.333,483.5 410,487.5C 410.699,482.719 411.199,482.553 411.5,487C 411.212,489.187 410.878,491.354 410.5,493.5C 409.778,493.082 409.278,492.416 409,491.5C 408.829,483.989 408.329,476.655 407.5,469.5C 405.789,460.42 403.789,451.42 401.5,442.5 Z"/></g>
<g><path style="opacity:0.005" fill="#eeebef" d="M 592.5,471.5 C 592.5,472.167 592.5,472.833 592.5,473.5C 588.716,478.624 584.049,482.624 578.5,485.5C 569.909,487.917 566.242,484.583 567.5,475.5C 568.788,469.972 570.455,464.639 572.5,459.5C 563.293,462.876 556.96,469.209 553.5,478.5C 550.863,486.162 546.53,492.829 540.5,498.5C 541.325,499.386 542.325,499.719 543.5,499.5C 543.5,499.833 543.5,500.167 543.5,500.5C 540.227,503.144 536.56,505.311 532.5,507C 528.139,510.237 525.139,514.403 523.5,519.5C 523.747,520.713 524.414,521.38 525.5,521.5C 527.265,522.461 529.265,522.795 531.5,522.5C 529.167,523.167 526.833,523.833 524.5,524.5C 522.396,524.799 520.396,524.466 518.5,523.5C 521.665,517.166 525.331,511.166 529.5,505.5C 528.575,504.438 527.575,504.438 526.5,505.5C 524.81,505.144 523.81,504.144 523.5,502.5C 524.265,502.923 525.098,503.257 526,503.5C 528.325,501.226 531.159,500.059 534.5,500C 538.291,495.509 542.457,491.342 547,487.5C 550.988,474.669 558.488,464.502 569.5,457C 571.134,456.506 572.801,456.34 574.5,456.5C 575.69,460.473 574.857,464.14 572,467.5C 571.198,472.419 571.365,477.252 572.5,482C 576.12,482.841 579.454,482.174 582.5,480C 586.05,477.273 589.383,474.439 592.5,471.5 Z"/></g>
<g><path style="opacity:0.996" fill="#131114" d="M 567.5,475.5 C 566.651,477.888 565.651,480.221 564.5,482.5C 564.595,478.775 564.762,475.109 565,471.5C 561.69,475.791 559.19,480.457 557.5,485.5C 552.324,487.175 551.657,486.341 555.5,483C 554.418,481.67 553.751,480.17 553.5,478.5C 556.96,469.209 563.293,462.876 572.5,459.5C 570.455,464.639 568.788,469.972 567.5,475.5 Z"/></g>
<g><path style="opacity:0.004" fill="#ebe8ec" d="M 572.5,443.5 C 572.5,443.833 572.5,444.167 572.5,444.5C 560.165,453.776 547.999,463.443 536,473.5C 529.101,481.967 524.935,491.633 523.5,502.5C 523.81,504.144 524.81,505.144 526.5,505.5C 525.167,507.5 523.5,509.167 521.5,510.5C 520.408,502.569 521.574,494.903 525,487.5C 527.667,482.833 530.333,478.167 533,473.5C 538.097,467.895 543.597,462.895 549.5,458.5C 551.969,457.431 554.302,456.098 556.5,454.5C 561.833,450.833 567.167,447.167 572.5,443.5 Z"/></g>
<g><path style="opacity:0.996" fill="#121012" d="M 619.5,462.5 C 616.751,468.5 615.418,474.834 615.5,481.5C 614.437,485.639 613.77,489.972 613.5,494.5C 612.837,492.958 612.17,491.291 611.5,489.5C 610.949,491.413 610.782,493.413 611,495.5C 609.908,493.069 608.741,493.069 607.5,495.5C 608.59,475.394 614.423,456.727 625,439.5C 623.902,447.304 622.069,454.971 619.5,462.5 Z"/></g>
<g><path style="opacity:0.996" fill="#141215" d="M 540.5,453.5 C 540.455,455.258 540.955,457.258 542,459.5C 542.249,458.376 542.749,457.376 543.5,456.5C 545.35,457.242 546.016,458.242 545.5,459.5C 546.736,458.754 548.07,458.421 549.5,458.5C 543.597,462.895 538.097,467.895 533,473.5C 530.333,478.167 527.667,482.833 525,487.5C 521.574,494.903 520.408,502.569 521.5,510.5C 518.291,514.229 515.458,518.229 513,522.5C 513.707,520.157 513.374,517.824 512,515.5C 511.722,516.416 511.222,517.082 510.5,517.5C 510.06,514.62 509.06,511.954 507.5,509.5C 509.581,507.578 509.581,505.411 507.5,503C 508.865,503.143 510.198,503.643 511.5,504.5C 512.397,505.598 513.23,505.598 514,504.5C 516.143,498.572 517.977,492.572 519.5,486.5C 522.893,479.858 526.393,473.192 530,466.5C 533.04,461.731 536.54,457.397 540.5,453.5 Z"/></g>
<g><path style="opacity:0.211" fill="#e9e6ea" d="M 691.5,454.5 C 692.198,456.667 693.531,458.5 695.5,460C 684.536,465.482 673.536,470.982 662.5,476.5C 654.986,480.423 647.319,484.09 639.5,487.5C 640.75,485.846 642.084,484.179 643.5,482.5C 657.811,476.012 672.144,469.512 686.5,463C 688.765,461.242 690.432,459.075 691.5,456.5C 691.5,455.833 691.5,455.167 691.5,454.5 Z"/></g>
<g><path style="opacity:0.102" fill="#e8e5e9" d="M 407.5,469.5 C 408.329,476.655 408.829,483.989 409,491.5C 409.278,492.416 409.778,493.082 410.5,493.5C 410.5,495.167 410.5,496.833 410.5,498.5C 410.657,499.873 410.49,501.207 410,502.5C 407.02,498.686 403.854,495.019 400.5,491.5C 401.8,488.568 403.8,486.234 406.5,484.5C 405.253,482.677 404.586,480.677 404.5,478.5C 405.117,478.389 405.617,478.056 406,477.5C 406.495,475.527 406.662,473.527 406.5,471.5C 406.328,470.508 406.662,469.842 407.5,469.5 Z M 404.5,487.5 C 406.616,489.088 406.949,491.088 405.5,493.5C 403.784,491.563 403.451,489.563 404.5,487.5 Z"/></g>
<g><path style="opacity:0.028" fill="#eeebef" d="M 479.5,500.5 C 480.5,500.5 481.5,500.5 482.5,500.5C 483.497,500.53 484.164,500.03 484.5,499C 481.883,495.605 479.383,492.105 477,488.5C 472.524,474.531 463.691,464.531 450.5,458.5C 451.464,464.103 453.298,469.437 456,474.5C 456.736,477.592 456.569,480.592 455.5,483.5C 452.691,486.489 449.358,487.156 445.5,485.5C 442.6,484.557 440.267,482.89 438.5,480.5C 438.5,479.833 438.5,479.167 438.5,478.5C 441.638,480.818 445.138,482.485 449,483.5C 453.202,482.431 454.869,479.764 454,475.5C 452.352,470.361 450.186,465.528 447.5,461C 448.183,457.086 450.517,455.752 454.5,457C 458.964,460.498 463.464,463.998 468,467.5C 474.501,479.186 481.668,490.519 489.5,501.5C 486.554,502.655 483.554,502.821 480.5,502C 479.944,501.617 479.611,501.117 479.5,500.5 Z"/></g>
<g><path style="opacity:0.084" fill="#ece9ed" d="M 472.5,431.5 C 472.833,431.5 473.167,431.5 473.5,431.5C 475.369,435.566 477.536,439.566 480,443.5C 487.333,453.5 494.667,463.5 502,473.5C 505.895,482.096 509.728,490.763 513.5,499.5C 514.462,494.574 516.462,490.24 519.5,486.5C 517.977,492.572 516.143,498.572 514,504.5C 513.23,505.598 512.397,505.598 511.5,504.5C 508.253,489.009 501.587,475.343 491.5,463.5C 489.758,460.357 487.758,457.357 485.5,454.5C 482.154,449.796 478.821,445.129 475.5,440.5C 474.216,437.598 473.216,434.598 472.5,431.5 Z"/></g>
<g><path style="opacity:0.098" fill="#ebe8ec" d="M 465.5,454.5 C 466.167,454.5 466.833,454.5 467.5,454.5C 468.391,455.11 469.391,455.443 470.5,455.5C 470.973,456.906 471.973,457.573 473.5,457.5C 476.796,459.821 480.129,462.154 483.5,464.5C 488.442,469.009 492.942,474.009 497,479.5C 500.628,485.417 503.128,491.75 504.5,498.5C 503.833,498.5 503.5,498.833 503.5,499.5C 500.233,490.193 495.566,481.526 489.5,473.5C 482.201,466.196 474.201,459.862 465.5,454.5 Z"/></g>
<g><path style="opacity:0.06" fill="#eeebee" d="M 632.5,450.5 C 631.49,458.051 630.157,465.551 628.5,473C 629.426,478.694 632.426,482.861 637.5,485.5C 638.242,483.892 638.409,482.225 638,480.5C 639.444,482.155 641.278,482.822 643.5,482.5C 642.084,484.179 640.75,485.846 639.5,487.5C 637.95,488.72 636.284,488.72 634.5,487.5C 634.167,487.5 633.833,487.5 633.5,487.5C 632.685,486.163 631.518,485.163 630,484.5C 626.777,474.15 626.943,463.816 630.5,453.5C 631.167,452.5 631.833,451.5 632.5,450.5 Z"/></g>
<g><path style="opacity:0.012" fill="#e1dee2" d="M 705.5,462.5 C 705.5,462.833 705.5,463.167 705.5,463.5C 704.469,464.249 703.302,464.915 702,465.5C 689.161,490.543 677.995,516.21 668.5,542.5C 668.167,542.5 667.833,542.5 667.5,542.5C 667.5,541.5 667.5,540.5 667.5,539.5C 670.477,532.254 673.477,524.921 676.5,517.5C 679.89,508.386 683.557,499.386 687.5,490.5C 689.813,485.942 692.146,481.276 694.5,476.5C 697.054,472.059 699.054,467.392 700.5,462.5C 702.167,462.5 703.833,462.5 705.5,462.5 Z"/></g>
<g><path style="opacity:0.076" fill="#e4e1e5" d="M 346.5,464.5 C 360.515,472.117 374.682,479.45 389,486.5C 391.915,485.917 393.915,484.25 395,481.5C 396.073,476.57 396.573,471.903 396.5,467.5C 396.833,467.5 397.167,467.5 397.5,467.5C 398.962,473.68 398.295,479.68 395.5,485.5C 394.524,486.815 393.524,488.148 392.5,489.5C 389.154,488.495 385.821,487.495 382.5,486.5C 376.332,482.915 369.999,479.582 363.5,476.5C 357.015,472.454 350.349,468.787 343.5,465.5C 344.791,465.737 345.791,465.404 346.5,464.5 Z"/></g>
<g><path style="opacity:0.996" fill="#161417" d="M 491.5,463.5 C 501.587,475.343 508.253,489.009 511.5,504.5C 510.198,503.643 508.865,503.143 507.5,503C 509.581,505.411 509.581,507.578 507.5,509.5C 505.935,506.087 504.935,502.42 504.5,498.5C 503.128,491.75 500.628,485.417 497,479.5C 492.942,474.009 488.442,469.009 483.5,464.5C 483.56,463.957 483.893,463.624 484.5,463.5C 487.27,466.833 489.603,466.833 491.5,463.5 Z"/></g>
<g><path style="opacity:0.996" fill="#131113" d="M 691.5,470.5 C 692.404,470.535 693.07,471.035 693.5,472C 690.752,474.104 691.085,475.604 694.5,476.5C 692.146,481.276 689.813,485.942 687.5,490.5C 686.21,489.942 685.377,488.942 685,487.5C 684.29,488.973 683.124,489.64 681.5,489.5C 684.582,483.001 687.915,476.668 691.5,470.5 Z"/></g>
<g><path style="opacity:0.059" fill="#e6e3e7" d="M 609.5,460.5 C 603.58,472.597 594.914,482.43 583.5,490C 576.136,493.35 568.803,496.683 561.5,500C 555.478,499.347 549.478,499.513 543.5,500.5C 543.5,500.167 543.5,499.833 543.5,499.5C 546.666,497.537 550,496.871 553.5,497.5C 556.304,498.638 559.304,498.805 562.5,498C 568.936,494.782 575.269,491.616 581.5,488.5C 591.118,482.215 599.118,474.215 605.5,464.5C 606.473,462.861 607.806,461.527 609.5,460.5 Z"/></g>
<g><path style="opacity:0.98" fill="#19171a" d="M 605.5,464.5 C 599.118,474.215 591.118,482.215 581.5,488.5C 581.5,486.5 580.5,485.5 578.5,485.5C 584.049,482.624 588.716,478.624 592.5,473.5C 596.212,470.789 599.212,467.456 601.5,463.5C 603.375,461.922 604.708,462.255 605.5,464.5 Z"/></g>
<g><path style="opacity:0.084" fill="#e8e5e9" d="M 465.5,490.5 C 461.908,492.711 458.075,493.044 454,491.5C 455.852,489.095 457.685,486.429 459.5,483.5C 459.476,478.773 459.31,474.107 459,469.5C 464.278,475.503 466.445,482.503 465.5,490.5 Z M 460.5,483.5 C 462.441,485.011 462.941,487.011 462,489.5C 460.365,490.849 458.865,490.682 457.5,489C 460.035,488.072 461.035,486.238 460.5,483.5 Z"/></g>
<g><path style="opacity:0.996" fill="#100e10" d="M 623.5,489.5 C 621.384,487.271 619.051,485.271 616.5,483.5C 618.403,482.053 620.07,480.386 621.5,478.5C 622.394,473.544 622.727,468.544 622.5,463.5C 623.338,463.158 623.672,462.492 623.5,461.5C 624.117,461.389 624.617,461.056 625,460.5C 625.547,464.16 626.047,467.827 626.5,471.5C 625.889,473.945 625.889,476.278 626.5,478.5C 625.926,480.059 625.26,481.559 624.5,483C 625.167,483.333 625.833,483.667 626.5,484C 625.549,484.718 625.383,485.551 626,486.5C 626.92,486.93 627.753,487.264 628.5,487.5C 627.15,488.95 625.484,489.617 623.5,489.5 Z"/></g>
<g><path style="opacity:0.974" fill="#161417" d="M 567.5,475.5 C 566.242,484.583 569.909,487.917 578.5,485.5C 580.5,485.5 581.5,486.5 581.5,488.5C 575.269,491.616 568.936,494.782 562.5,498C 559.304,498.805 556.304,498.638 553.5,497.5C 552.314,496.039 552.314,494.705 553.5,493.5C 558.543,494.091 563.21,493.091 567.5,490.5C 565.924,488.021 564.924,485.354 564.5,482.5C 565.651,480.221 566.651,477.888 567.5,475.5 Z"/></g>
<g><path style="opacity:0.158" fill="#edeaee" d="M 622.5,463.5 C 622.727,468.544 622.394,473.544 621.5,478.5C 620.07,480.386 618.403,482.053 616.5,483.5C 619.051,485.271 621.384,487.271 623.5,489.5C 623.5,489.833 623.5,490.167 623.5,490.5C 620.589,493.99 617.922,497.656 615.5,501.5C 614.681,495.003 614.681,488.336 615.5,481.5C 615.418,474.834 616.751,468.5 619.5,462.5C 620.985,458.581 621.985,458.914 622.5,463.5 Z M 617.5,488.5 C 618.756,488.461 619.756,488.961 620.5,490C 617.22,495.881 616.22,495.381 617.5,488.5 Z"/></g>
<g><path style="opacity:0.004" fill="#e2dfe3" d="M 564.5,482.5 C 564.924,485.354 565.924,488.021 567.5,490.5C 563.21,493.091 558.543,494.091 553.5,493.5C 553.776,490.281 555.109,487.615 557.5,485.5C 559.19,480.457 561.69,475.791 565,471.5C 564.762,475.109 564.595,478.775 564.5,482.5 Z M 561.5,480.5 C 563.076,483.228 563.576,486.228 563,489.5C 561.333,490.167 559.667,490.833 558,491.5C 557.308,490.975 556.808,490.308 556.5,489.5C 558.954,486.924 560.621,483.924 561.5,480.5 Z"/></g>
<g><path style="opacity:0.996" fill="#181618" d="M 662.5,476.5 C 662.179,478.048 661.179,478.715 659.5,478.5C 659.762,479.978 659.429,481.311 658.5,482.5C 658.167,481.833 657.833,481.167 657.5,480.5C 656.3,481.531 654.966,482.365 653.5,483C 655.452,483.366 657.118,484.199 658.5,485.5C 652.681,488.747 646.681,491.413 640.5,493.5C 637.579,493.283 634.913,493.949 632.5,495.5C 632.137,493.089 633.137,491.589 635.5,491C 634.5,490.667 633.5,490.333 632.5,490C 633.756,489.583 634.423,488.75 634.5,487.5C 636.284,488.72 637.95,488.72 639.5,487.5C 647.319,484.09 654.986,480.423 662.5,476.5 Z"/></g>
<g><path style="opacity:0.996" fill="#0b080c" d="M 387.5,493.5 C 385.883,492.962 384.216,492.629 382.5,492.5C 382.611,491.883 382.944,491.383 383.5,491C 380.072,490.06 378.072,488.226 377.5,485.5C 379.349,486.593 381.016,487.926 382.5,489.5C 383.087,488.767 383.087,487.767 382.5,486.5C 385.821,487.495 389.154,488.495 392.5,489.5C 393.524,488.148 394.524,486.815 395.5,485.5C 396.117,485.389 396.617,485.056 397,484.5C 397.667,487.167 398.333,487.167 399,484.5C 402.34,486.608 402.173,488.108 398.5,489C 398.957,489.414 399.291,489.914 399.5,490.5C 395.884,492.97 391.884,493.97 387.5,493.5 Z"/></g>
<g><path style="opacity:0.878" fill="#171417" d="M 363.5,476.5 C 369.999,479.582 376.332,482.915 382.5,486.5C 383.087,487.767 383.087,488.767 382.5,489.5C 381.016,487.926 379.349,486.593 377.5,485.5C 378.072,488.226 380.072,490.06 383.5,491C 382.944,491.383 382.611,491.883 382.5,492.5C 381.041,492.567 379.708,492.234 378.5,491.5C 370.468,487.152 362.468,482.819 354.5,478.5C 355.919,477.549 357.585,477.216 359.5,477.5C 359.5,478.5 359.5,479.5 359.5,480.5C 361.288,480.785 362.955,480.452 364.5,479.5C 362.565,478.787 362.232,477.787 363.5,476.5 Z"/></g>
<g><path style="opacity:0.996" fill="#19171a" d="M 553.5,478.5 C 553.751,480.17 554.418,481.67 555.5,483C 551.657,486.341 552.324,487.175 557.5,485.5C 555.109,487.615 553.776,490.281 553.5,493.5C 552.314,494.705 552.314,496.039 553.5,497.5C 550,496.871 546.666,497.537 543.5,499.5C 542.325,499.719 541.325,499.386 540.5,498.5C 546.53,492.829 550.863,486.162 553.5,478.5 Z"/></g>
<g><path style="opacity:0.08" fill="#e7e4e7" d="M 662.5,484.5 C 663.167,484.5 663.833,484.5 664.5,484.5C 662.073,486.558 659.407,488.391 656.5,490C 659.352,492.521 660.852,495.687 661,499.5C 661.14,510.551 661.64,520.218 662.5,528.5C 663.167,528.5 663.5,528.833 663.5,529.5C 663.167,531.5 662.833,533.5 662.5,535.5C 661.883,535.611 661.383,535.944 661,536.5C 659.252,527.543 659.085,518.543 660.5,509.5C 660.701,504.952 659.867,500.619 658,496.5C 655.778,493.697 653.945,493.863 652.5,497C 654.267,505.395 654.934,513.895 654.5,522.5C 654.5,524.5 654.5,526.5 654.5,528.5C 652.55,517.987 650.883,507.321 649.5,496.5C 649.833,495.833 650.167,495.167 650.5,494.5C 648.955,493.548 647.288,493.215 645.5,493.5C 643.833,493.5 642.167,493.5 640.5,493.5C 646.681,491.413 652.681,488.747 658.5,485.5C 659.833,485.167 661.167,484.833 662.5,484.5 Z"/></g>
<g><path style="opacity:0.996" fill="#131014" d="M 414.5,474.5 C 417.425,482.208 418.758,490.208 418.5,498.5C 417.519,502.748 416.352,507.081 415,511.5C 414.617,512.056 414.117,512.389 413.5,512.5C 412.354,510.525 410.687,509.025 408.5,508C 409.38,506.644 409.714,505.144 409.5,503.5C 410.552,503.649 411.552,503.483 412.5,503C 411.167,502 411.167,501 412.5,500C 411.956,499.283 411.289,498.783 410.5,498.5C 410.5,496.833 410.5,495.167 410.5,493.5C 410.878,491.354 411.212,489.187 411.5,487C 411.199,482.553 410.699,482.719 410,487.5C 409.333,483.5 409.333,479.5 410,475.5C 410.667,477.5 411.333,479.5 412,481.5C 412.651,479.765 412.485,478.098 411.5,476.5C 412.782,476.912 413.782,476.246 414.5,474.5 Z"/></g>
<g><path style="opacity:0.984" fill="#1d1a1d" d="M 459.5,483.5 C 457.685,486.429 455.852,489.095 454,491.5C 458.075,493.044 461.908,492.711 465.5,490.5C 465.389,492.648 466.056,492.981 467.5,491.5C 468.649,493.925 469.316,493.925 469.5,491.5C 471.251,496.93 469.085,499.264 463,498.5C 459.765,498.418 456.598,497.918 453.5,497C 449.678,494.913 446.011,492.747 442.5,490.5C 443.657,488.65 444.657,486.983 445.5,485.5C 449.358,487.156 452.691,486.489 455.5,483.5C 456.664,483.165 457.997,483.165 459.5,483.5 Z"/></g>
<g><path style="opacity:0.996" fill="#0e0b0f" d="M 613.5,494.5 C 613.5,497.167 613.5,499.833 613.5,502.5C 615.766,506.057 615.099,509.057 611.5,511.5C 610.069,511.119 609.236,510.119 609,508.5C 608.064,504.886 607.564,501.22 607.5,497.5C 607.5,496.833 607.5,496.167 607.5,495.5C 608.741,493.069 609.908,493.069 611,495.5C 610.782,493.413 610.949,491.413 611.5,489.5C 612.17,491.291 612.837,492.958 613.5,494.5 Z"/></g>
<g><path style="opacity:0.996" fill="#121012" d="M 633.5,487.5 C 633.833,487.5 634.167,487.5 634.5,487.5C 634.423,488.75 633.756,489.583 632.5,490C 633.5,490.333 634.5,490.667 635.5,491C 633.137,491.589 632.137,493.089 632.5,495.5C 625.419,499.744 619.419,505.244 614.5,512C 613.251,512.74 612.251,512.573 611.5,511.5C 615.099,509.057 615.766,506.057 613.5,502.5C 614.492,502.672 615.158,502.338 615.5,501.5C 617.922,497.656 620.589,493.99 623.5,490.5C 625.84,490.939 628.006,490.939 630,490.5C 631.762,490.056 631.595,489.556 629.5,489C 630.563,487.812 631.897,487.312 633.5,487.5 Z"/></g>
<g><path style="opacity:0.086" fill="#edeaee" d="M 606.5,485.5 C 606.183,489.702 606.517,493.702 607.5,497.5C 607.564,501.22 608.064,504.886 609,508.5C 609.236,510.119 610.069,511.119 611.5,511.5C 612.251,512.573 613.251,512.74 614.5,512C 619.419,505.244 625.419,499.744 632.5,495.5C 634.913,493.949 637.579,493.283 640.5,493.5C 642.167,493.5 643.833,493.5 645.5,493.5C 641.675,494.842 637.675,496.009 633.5,497C 632.284,498.74 630.618,499.74 628.5,500C 623.588,505.418 618.254,510.251 612.5,514.5C 610.971,514.471 609.804,513.804 609,512.5C 604.623,503.649 603.79,494.649 606.5,485.5 Z"/></g>
<g><path style="opacity:0.159" fill="#e6e3e7" d="M 428.5,478.5 C 431.002,480.17 433.002,482.336 434.5,485C 437.065,487.08 439.732,488.913 442.5,490.5C 446.011,492.747 449.678,494.913 453.5,497C 456.598,497.918 459.765,498.418 463,498.5C 469.085,499.264 471.251,496.93 469.5,491.5C 469.215,489.712 469.548,488.045 470.5,486.5C 472.69,488.856 474.69,491.356 476.5,494C 475.167,494.333 473.833,494.667 472.5,495C 475.767,497.13 479.1,498.963 482.5,500.5C 481.5,500.5 480.5,500.5 479.5,500.5C 474.809,498.515 469.976,498.515 465,500.5C 449.93,498.989 437.764,492.322 428.5,480.5C 428.5,479.833 428.5,479.167 428.5,478.5 Z"/></g>
<g><path style="opacity:0.34" fill="#8d8a8e" d="M 615.5,481.5 C 614.681,488.336 614.681,495.003 615.5,501.5C 615.158,502.338 614.492,502.672 613.5,502.5C 613.5,499.833 613.5,497.167 613.5,494.5C 613.77,489.972 614.437,485.639 615.5,481.5 Z"/></g>
<g><path style="opacity:0.155" fill="#e8e5e9" d="M 504.5,498.5 C 504.935,502.42 505.935,506.087 507.5,509.5C 509.06,511.954 510.06,514.62 510.5,517.5C 510.785,519.288 510.452,520.955 509.5,522.5C 506.245,516.255 502.245,510.589 497.5,505.5C 496.702,505.957 496.369,506.624 496.5,507.5C 495.833,506.5 495.167,505.5 494.5,504.5C 495.261,503.609 496.261,502.942 497.5,502.5C 501.474,506.668 503.474,505.668 503.5,499.5C 503.5,498.833 503.833,498.5 504.5,498.5 Z"/></g>
<g><path style="opacity:0.097" fill="#ece9ed" d="M 354.5,478.5 C 362.468,482.819 370.468,487.152 378.5,491.5C 378.167,492.167 377.833,492.833 377.5,493.5C 375.321,493.84 373.488,494.84 372,496.5C 370.692,499.73 369.692,503.064 369,506.5C 368.841,514.535 369.341,522.535 370.5,530.5C 370.664,533.187 370.497,535.854 370,538.5C 367.582,533.056 365.082,527.723 362.5,522.5C 361.784,519.402 360.784,516.402 359.5,513.5C 354.878,501.954 349.878,490.621 344.5,479.5C 344.167,479.5 343.833,479.5 343.5,479.5C 342.099,476.366 340.432,473.366 338.5,470.5C 338.833,470.167 339.167,469.833 339.5,469.5C 344.362,472.763 349.362,475.763 354.5,478.5 Z M 344.5,479.5 C 344.586,478.504 344.252,477.671 343.5,477C 344.126,476.25 344.626,475.416 345,474.5C 353.702,480.351 362.702,485.684 372,490.5C 371.305,494.24 369.972,497.906 368,501.5C 366.823,506.86 366.656,512.193 367.5,517.5C 366.965,519.661 366.132,521.661 365,523.5C 359.397,508.957 353.231,494.624 346.5,480.5C 346.043,479.702 345.376,479.369 344.5,479.5 Z"/></g>
<g><path style="opacity:0.996" fill="#161518" d="M 343.5,479.5 C 343.833,479.5 344.167,479.5 344.5,479.5C 349.878,490.621 354.878,501.954 359.5,513.5C 358.883,513.389 358.383,513.056 358,512.5C 357.581,513.672 356.915,514.672 356,515.5C 355.735,513.837 356.235,512.337 357.5,511C 356.258,510.689 355.258,511.189 354.5,512.5C 354.12,510.979 353.954,509.313 354,507.5C 352.798,509.677 352.298,512.011 352.5,514.5C 348.315,506.121 344.649,497.455 341.5,488.5C 342.423,487.697 343.423,487.53 344.5,488C 344.167,488.333 343.833,488.667 343.5,489C 344.798,491.14 345.465,490.974 345.5,488.5C 343.875,485.765 343.208,482.765 343.5,479.5 Z"/></g>
<g><path style="opacity:0.996" fill="#121012" d="M 687.5,490.5 C 683.557,499.386 679.89,508.386 676.5,517.5C 674.908,518.602 674.075,517.935 674,515.5C 672.898,520.17 671.398,520.504 669.5,516.5C 672.714,507.078 676.714,498.078 681.5,489.5C 683.124,489.64 684.29,488.973 685,487.5C 685.377,488.942 686.21,489.942 687.5,490.5 Z"/></g>
<g><path style="opacity:0.004" fill="#e5e2e6" d="M 314.5,447.5 C 314.336,450.187 314.503,452.854 315,455.5C 315.66,457.324 316.827,458.657 318.5,459.5C 318.953,460.458 319.619,461.292 320.5,462C 323.482,462.498 326.482,462.665 329.5,462.5C 329.263,463.791 329.596,464.791 330.5,465.5C 333.946,473.388 337.613,481.055 341.5,488.5C 344.649,497.455 348.315,506.121 352.5,514.5C 353.94,520.046 355.94,525.38 358.5,530.5C 360.358,536.593 362.525,542.593 365,548.5C 366.828,549.752 368.661,549.752 370.5,548.5C 369.552,549.978 368.219,550.978 366.5,551.5C 365.504,551.586 364.671,551.252 364,550.5C 357.72,536.023 352.053,521.356 347,506.5C 340.884,492.268 334.218,478.268 327,464.5C 318.02,464.53 313.187,459.863 312.5,450.5C 313.167,449.5 313.833,448.5 314.5,447.5 Z"/></g>
<g><path style="opacity:0.996" fill="#171518" d="M 377.5,493.5 C 375.194,502.676 374.194,512.009 374.5,521.5C 374.348,525.924 373.681,530.257 372.5,534.5C 371.833,533.167 371.167,531.833 370.5,530.5C 369.341,522.535 368.841,514.535 369,506.5C 369.692,503.064 370.692,499.73 372,496.5C 373.488,494.84 375.321,493.84 377.5,493.5 Z"/></g>
<g><path style="opacity:0.087" fill="#e7e4e8" d="M 378.5,491.5 C 379.708,492.234 381.041,492.567 382.5,492.5C 384.216,492.629 385.883,492.962 387.5,493.5C 396.737,498.214 404.737,504.714 411.5,513C 412.437,513.692 413.103,513.525 413.5,512.5C 414.117,512.389 414.617,512.056 415,511.5C 416.352,507.081 417.519,502.748 418.5,498.5C 418.5,499.833 418.5,501.167 418.5,502.5C 419.115,506.96 418.115,510.96 415.5,514.5C 413.5,515.833 411.5,515.833 409.5,514.5C 404.672,507.506 398.672,501.672 391.5,497C 382.431,491.661 377.597,494.161 377,504.5C 376.627,510.189 376.127,515.855 375.5,521.5C 375.167,521.5 374.833,521.5 374.5,521.5C 374.194,512.009 375.194,502.676 377.5,493.5C 377.833,492.833 378.167,492.167 378.5,491.5 Z"/></g>
<g><path style="opacity:0.996" fill="#151316" d="M 662.5,535.5 C 662.611,536.117 662.944,536.617 663.5,537C 661.681,537.74 660.348,538.907 659.5,540.5C 657.733,534.451 656.067,528.451 654.5,522.5C 654.934,513.895 654.267,505.395 652.5,497C 653.945,493.863 655.778,493.697 658,496.5C 659.867,500.619 660.701,504.952 660.5,509.5C 659.085,518.543 659.252,527.543 661,536.5C 661.383,535.944 661.883,535.611 662.5,535.5 Z"/></g>
<g><path style="opacity:0.106" fill="#e9e6ea" d="M 691.5,470.5 C 687.915,476.668 684.582,483.001 681.5,489.5C 676.714,498.078 672.714,507.078 669.5,516.5C 667.037,520.443 665.37,524.776 664.5,529.5C 664.167,529.5 663.833,529.5 663.5,529.5C 663.5,528.833 663.167,528.5 662.5,528.5C 662.643,524.244 664.143,520.578 667,517.5C 672.353,503.937 678.186,490.603 684.5,477.5C 684.167,476.5 683.5,475.833 682.5,475.5C 676.746,479.044 670.746,482.044 664.5,484.5C 663.833,484.5 663.167,484.5 662.5,484.5C 672.297,479.434 681.964,474.101 691.5,468.5C 692.463,468.97 692.463,469.637 691.5,470.5 Z"/></g>
<g><path style="opacity:0.996" fill="#0e0d11" d="M 359.5,513.5 C 360.784,516.402 361.784,519.402 362.5,522.5C 361.792,525.549 360.459,528.215 358.5,530.5C 355.94,525.38 353.94,520.046 352.5,514.5C 352.298,512.011 352.798,509.677 354,507.5C 353.954,509.313 354.12,510.979 354.5,512.5C 355.258,511.189 356.258,510.689 357.5,511C 356.235,512.337 355.735,513.837 356,515.5C 356.915,514.672 357.581,513.672 358,512.5C 358.383,513.056 358.883,513.389 359.5,513.5 Z"/></g>
<g><path style="opacity:0.996" fill="#1e1c1f" d="M 524.5,524.5 C 525.833,525.5 525.833,526.5 524.5,527.5C 520.266,527.193 516.266,527.86 512.5,529.5C 508.984,528.081 505.318,527.414 501.5,527.5C 500.167,527.5 498.833,527.5 497.5,527.5C 497.5,526.5 497.5,525.5 497.5,524.5C 499.92,524.292 502.253,524.626 504.5,525.5C 504.833,525 505.167,524.5 505.5,524C 502.101,518.702 499.101,513.202 496.5,507.5C 496.369,506.624 496.702,505.957 497.5,505.5C 502.245,510.589 506.245,516.255 509.5,522.5C 510.452,520.955 510.785,519.288 510.5,517.5C 511.222,517.082 511.722,516.416 512,515.5C 513.374,517.824 513.707,520.157 513,522.5C 515.458,518.229 518.291,514.229 521.5,510.5C 523.5,509.167 525.167,507.5 526.5,505.5C 527.575,504.438 528.575,504.438 529.5,505.5C 525.331,511.166 521.665,517.166 518.5,523.5C 520.396,524.466 522.396,524.799 524.5,524.5 Z"/></g>
<g><path style="opacity:0.016" fill="#eeebef" d="M 494.5,504.5 C 495.167,505.5 495.833,506.5 496.5,507.5C 499.101,513.202 502.101,518.702 505.5,524C 505.167,524.5 504.833,525 504.5,525.5C 502.253,524.626 499.92,524.292 497.5,524.5C 497.167,524.5 496.833,524.5 496.5,524.5C 488.35,523.507 480.017,523.174 471.5,523.5C 474.305,522.681 477.305,522.181 480.5,522C 478.19,521.503 475.857,521.337 473.5,521.5C 482.329,521.021 491.329,520.854 500.5,521C 496.982,516.116 494.982,510.616 494.5,504.5 Z"/></g>
<g><path style="opacity:0.035" fill="#f7f4f8" d="M 573.5,522.5 C 571.565,523.15 569.565,523.483 567.5,523.5C 555.505,523.034 543.505,522.7 531.5,522.5C 529.265,522.795 527.265,522.461 525.5,521.5C 539.789,520.367 554.122,520.201 568.5,521C 570.382,521.198 572.048,521.698 573.5,522.5 Z"/></g>
<g><path style="opacity:0.992" fill="#413e42" d="M 471.5,523.5 C 480.017,523.174 488.35,523.507 496.5,524.5C 481.816,524.315 467.149,524.649 452.5,525.5C 458.594,523.906 464.928,523.239 471.5,523.5 Z"/></g>
<g><path style="opacity:0.996" fill="#1e1c1f" d="M 531.5,522.5 C 543.505,522.7 555.505,523.034 567.5,523.5C 567.5,523.833 567.5,524.167 567.5,524.5C 562.156,524.816 556.822,525.316 551.5,526C 553.608,526.36 555.608,527.027 557.5,528C 556.5,528.333 555.5,528.667 554.5,529C 555.416,529.278 556.082,529.778 556.5,530.5C 551.859,529.873 547.193,529.54 542.5,529.5C 536.366,528.914 530.366,528.248 524.5,527.5C 525.833,526.5 525.833,525.5 524.5,524.5C 526.833,523.833 529.167,523.167 531.5,522.5 Z"/></g>
<g><path style="opacity:0.996" fill="#0f0c0f" d="M 496.5,524.5 C 496.833,524.5 497.167,524.5 497.5,524.5C 497.5,525.5 497.5,526.5 497.5,527.5C 482.529,529.364 467.529,531.03 452.5,532.5C 449.423,531.144 446.09,530.311 442.5,530C 444.833,529.667 447.167,529.333 449.5,529C 450.973,528.29 451.64,527.124 451.5,525.5C 451.833,525.5 452.167,525.5 452.5,525.5C 467.149,524.649 481.816,524.315 496.5,524.5 Z"/></g>
<g><path style="opacity:0.996" fill="#110f11" d="M 567.5,524.5 C 573.288,524.312 578.955,524.978 584.5,526.5C 584.414,527.496 584.748,528.329 585.5,529C 588.244,529.803 590.911,530.803 593.5,532C 591.765,532.651 590.098,532.485 588.5,531.5C 587.304,531.846 587.304,532.346 588.5,533C 585.854,533.497 583.187,533.664 580.5,533.5C 572.488,532.632 564.488,531.632 556.5,530.5C 556.082,529.778 555.416,529.278 554.5,529C 555.5,528.667 556.5,528.333 557.5,528C 555.608,527.027 553.608,526.36 551.5,526C 556.822,525.316 562.156,524.816 567.5,524.5 Z"/></g>
<g><path style="opacity:0.996" fill="#141315" d="M 676.5,517.5 C 673.477,524.921 670.477,532.254 667.5,539.5C 667.106,538.033 666.773,536.533 666.5,535C 666.539,533.106 667.206,532.106 668.5,532C 667.529,529.742 666.196,528.909 664.5,529.5C 665.37,524.776 667.037,520.443 669.5,516.5C 671.398,520.504 672.898,520.17 674,515.5C 674.075,517.935 674.908,518.602 676.5,517.5 Z"/></g>
<g><path style="opacity:0.115" fill="#f3f0f4" d="M 501.5,528.5 C 501.5,528.167 501.5,527.833 501.5,527.5C 505.318,527.414 508.984,528.081 512.5,529.5C 516.266,527.86 520.266,527.193 524.5,527.5C 530.366,528.248 536.366,528.914 542.5,529.5C 542.5,530.167 542.5,530.833 542.5,531.5C 541.167,531.5 539.833,531.5 538.5,531.5C 533.741,529.867 529.408,530.7 525.5,534C 528.003,535.784 528.003,537.451 525.5,539C 530.684,539.174 535.684,539.674 540.5,540.5C 526.5,540.5 512.5,540.5 498.5,540.5C 500.698,539.835 503.031,539.168 505.5,538.5C 505,537.5 504.5,536.5 504,535.5C 502.16,536.833 501.66,536.666 502.5,535C 504.424,534.821 506.091,534.654 507.5,534.5C 502.938,533.86 502.604,532.694 506.5,531C 505.167,530.333 505.167,529.667 506.5,529C 504.866,528.506 503.199,528.34 501.5,528.5 Z"/></g>
<g><path style="opacity:0.996" fill="#100e10" d="M 451.5,525.5 C 451.64,527.124 450.973,528.29 449.5,529C 447.167,529.333 444.833,529.667 442.5,530C 446.09,530.311 449.423,531.144 452.5,532.5C 452.5,532.833 452.5,533.167 452.5,533.5C 445.747,533.984 439.08,534.984 432.5,536.5C 431.116,535.199 429.616,535.199 428,536.5C 427.5,535.333 426.667,534.5 425.5,534C 426.973,533.29 427.64,532.124 427.5,530.5C 435.342,528.207 443.342,526.541 451.5,525.5 Z"/></g>
<g><path style="opacity:0.159" fill="#e9e6ea" d="M 573.5,522.5 C 600.16,525.613 625.493,532.946 649.5,544.5C 650.11,545.391 650.443,546.391 650.5,547.5C 646.248,546.041 642.248,544.041 638.5,541.5C 621.071,534.468 603.071,529.468 584.5,526.5C 578.955,524.978 573.288,524.312 567.5,524.5C 567.5,524.167 567.5,523.833 567.5,523.5C 569.565,523.483 571.565,523.15 573.5,522.5 Z"/></g>
<g><path style="opacity:0.035" fill="#e6e3e7" d="M 497.5,527.5 C 498.833,527.5 500.167,527.5 501.5,527.5C 501.5,527.833 501.5,528.167 501.5,528.5C 500.448,528.351 499.448,528.517 498.5,529C 499.412,530.625 498.745,531.459 496.5,531.5C 486.192,532.234 475.859,532.734 465.5,533C 461.367,534.863 457.033,535.696 452.5,535.5C 452.5,534.833 452.5,534.167 452.5,533.5C 452.5,533.167 452.5,532.833 452.5,532.5C 467.529,531.03 482.529,529.364 497.5,527.5 Z"/></g>
<g><path style="opacity:0.996" fill="#121013" d="M 667.5,539.5 C 667.5,540.5 667.5,541.5 667.5,542.5C 666.772,544.512 665.938,546.512 665,548.5C 663.989,549.337 662.822,549.67 661.5,549.5C 659.874,546.754 659.207,543.754 659.5,540.5C 660.348,538.907 661.681,537.74 663.5,537C 662.944,536.617 662.611,536.117 662.5,535.5C 662.833,533.5 663.167,531.5 663.5,529.5C 663.833,529.5 664.167,529.5 664.5,529.5C 666.196,528.909 667.529,529.742 668.5,532C 667.206,532.106 666.539,533.106 666.5,535C 666.773,536.533 667.106,538.033 667.5,539.5 Z"/></g>
<g><path style="opacity:0.996" fill="#141114" d="M 427.5,530.5 C 427.64,532.124 426.973,533.29 425.5,534C 426.667,534.5 427.5,535.333 428,536.5C 429.616,535.199 431.116,535.199 432.5,536.5C 426.227,537.984 419.894,539.317 413.5,540.5C 411.641,539.406 409.641,538.573 407.5,538C 409.431,537.098 411.097,535.931 412.5,534.5C 417.44,533.015 422.44,531.681 427.5,530.5 Z"/></g>
<g><path style="opacity:0.996" fill="#171517" d="M 584.5,526.5 C 603.071,529.468 621.071,534.468 638.5,541.5C 638.511,543.017 639.177,544.184 640.5,545C 639.756,546.039 638.756,546.539 637.5,546.5C 632.482,545.16 627.482,543.826 622.5,542.5C 608.563,538.846 594.563,535.846 580.5,533.5C 583.187,533.664 585.854,533.497 588.5,533C 587.304,532.346 587.304,531.846 588.5,531.5C 590.098,532.485 591.765,532.651 593.5,532C 590.911,530.803 588.244,529.803 585.5,529C 584.748,528.329 584.414,527.496 584.5,526.5 Z"/></g>
<g><path style="opacity:0.106" fill="#f0edf1" d="M 473.5,521.5 C 475.857,521.337 478.19,521.503 480.5,522C 477.305,522.181 474.305,522.681 471.5,523.5C 464.928,523.239 458.594,523.906 452.5,525.5C 452.167,525.5 451.833,525.5 451.5,525.5C 443.342,526.541 435.342,528.207 427.5,530.5C 422.44,531.681 417.44,533.015 412.5,534.5C 401.474,537.85 391.14,542.517 381.5,548.5C 380.833,548.833 380.167,549.167 379.5,549.5C 379.196,548.85 378.863,548.183 378.5,547.5C 379.602,546.824 380.602,546.158 381.5,545.5C 410.251,530.807 440.918,522.807 473.5,521.5 Z"/></g>
<g><path style="opacity:0.209" fill="#f5f2f6" d="M 501.5,528.5 C 503.199,528.34 504.866,528.506 506.5,529C 505.167,529.667 505.167,530.333 506.5,531C 502.604,532.694 502.938,533.86 507.5,534.5C 506.091,534.654 504.424,534.821 502.5,535C 501.66,536.666 502.16,536.833 504,535.5C 504.5,536.5 505,537.5 505.5,538.5C 503.031,539.168 500.698,539.835 498.5,540.5C 493.305,540.179 488.305,540.513 483.5,541.5C 481.167,541.5 478.833,541.5 476.5,541.5C 469.3,541.578 462.3,542.245 455.5,543.5C 448.713,543.946 442.046,544.946 435.5,546.5C 427.067,547.704 418.734,549.371 410.5,551.5C 410.5,551.167 410.5,550.833 410.5,550.5C 411.058,549.21 412.058,548.377 413.5,548C 421.787,547.318 429.787,545.485 437.5,542.5C 438.293,542.931 439.127,543.265 440,543.5C 459.211,538.825 478.711,535.991 498.5,535C 499.167,534.667 499.833,534.333 500.5,534C 499.142,533.066 497.808,532.232 496.5,531.5C 498.745,531.459 499.412,530.625 498.5,529C 499.448,528.517 500.448,528.351 501.5,528.5 Z"/></g>
<g><path style="opacity:0.055" fill="#f0ecf0" d="M 542.5,529.5 C 547.193,529.54 551.859,529.873 556.5,530.5C 564.488,531.632 572.488,532.632 580.5,533.5C 594.563,535.846 608.563,538.846 622.5,542.5C 622.833,543.167 623.167,543.833 623.5,544.5C 596.891,537.471 569.891,533.138 542.5,531.5C 542.5,530.833 542.5,530.167 542.5,529.5 Z"/></g>
<g><path style="opacity:0.996" fill="#19171a" d="M 362.5,522.5 C 365.082,527.723 367.582,533.056 370,538.5C 370.497,535.854 370.664,533.187 370.5,530.5C 371.167,531.833 371.833,533.167 372.5,534.5C 371.906,539.186 371.239,543.853 370.5,548.5C 368.661,549.752 366.828,549.752 365,548.5C 362.525,542.593 360.358,536.593 358.5,530.5C 360.459,528.215 361.792,525.549 362.5,522.5 Z"/></g>
<g><path style="opacity:0.181" fill="#f5f2f6" d="M 538.5,531.5 C 536.166,532.124 533.833,532.957 531.5,534C 532.328,534.915 533.328,535.581 534.5,536C 537.224,536.27 539.891,536.77 542.5,537.5C 548.448,536.376 554.448,536.21 560.5,537C 565.564,538.392 570.564,539.559 575.5,540.5C 575.53,541.497 575.03,542.164 574,542.5C 570.224,541.606 566.39,541.272 562.5,541.5C 555.132,541.683 547.799,541.35 540.5,540.5C 535.684,539.674 530.684,539.174 525.5,539C 528.003,537.451 528.003,535.784 525.5,534C 529.408,530.7 533.741,529.867 538.5,531.5 Z"/></g>
<g><path style="opacity:0.994" fill="#120f12" d="M 527.5,546.5 C 514.463,546.223 501.463,546.557 488.5,547.5C 487.167,547.5 485.833,547.5 484.5,547.5C 483.391,546.71 482.058,546.21 480.5,546C 482.384,545.784 484.051,545.117 485.5,544C 484.833,543.667 484.167,543.333 483.5,543C 486.833,542.833 490.167,542.667 493.5,542.5C 504.779,542.752 516.113,542.919 527.5,543C 528.5,543.333 529.5,543.667 530.5,544C 529.429,544.852 528.429,545.685 527.5,546.5 Z"/></g>
<g><path style="opacity:0.03" fill="#e2dfe3" d="M 575.5,540.5 C 589.342,542.103 603.009,544.436 616.5,547.5C 617.339,549.384 618.672,550.717 620.5,551.5C 607.609,548.629 594.609,546.296 581.5,544.5C 575.014,543.711 568.68,542.711 562.5,541.5C 566.39,541.272 570.224,541.606 574,542.5C 575.03,542.164 575.53,541.497 575.5,540.5 Z"/></g>
<g><path style="opacity:0.996" fill="#090709" d="M 476.5,541.5 C 478.833,541.5 481.167,541.5 483.5,541.5C 503.516,541.27 523.516,541.603 543.5,542.5C 543.5,543.5 543.5,544.5 543.5,545.5C 539.202,546.2 534.869,546.533 530.5,546.5C 529.5,546.5 528.5,546.5 527.5,546.5C 528.429,545.685 529.429,544.852 530.5,544C 529.5,543.667 528.5,543.333 527.5,543C 516.113,542.919 504.779,542.752 493.5,542.5C 490.167,542.667 486.833,542.833 483.5,543C 484.167,543.333 484.833,543.667 485.5,544C 484.051,545.117 482.384,545.784 480.5,546C 482.058,546.21 483.391,546.71 484.5,547.5C 482.833,547.5 481.167,547.5 479.5,547.5C 476.334,545.739 472.334,544.239 467.5,543C 470.695,542.819 473.695,542.319 476.5,541.5 Z"/></g>
<g><path style="opacity:0.996" fill="#181618" d="M 483.5,541.5 C 488.305,540.513 493.305,540.179 498.5,540.5C 512.5,540.5 526.5,540.5 540.5,540.5C 547.799,541.35 555.132,541.683 562.5,541.5C 568.68,542.711 575.014,543.711 581.5,544.5C 578.797,545.963 575.797,546.796 572.5,547C 580.465,546.491 587.798,548.158 594.5,552C 592.527,552.495 590.527,552.662 588.5,552.5C 583.193,551.67 577.859,551.003 572.5,550.5C 558.343,549.284 544.343,547.95 530.5,546.5C 534.869,546.533 539.202,546.2 543.5,545.5C 543.5,544.5 543.5,543.5 543.5,542.5C 523.516,541.603 503.516,541.27 483.5,541.5 Z"/></g>
<g><path style="opacity:0.996" fill="#151416" d="M 476.5,541.5 C 473.695,542.319 470.695,542.819 467.5,543C 472.334,544.239 476.334,545.739 479.5,547.5C 474.016,548.518 468.349,549.184 462.5,549.5C 463.058,548.21 464.058,547.377 465.5,547C 462.812,546.608 460.145,546.108 457.5,545.5C 456.287,545.253 455.62,544.586 455.5,543.5C 462.3,542.245 469.3,541.578 476.5,541.5 Z"/></g>
<g><path style="opacity:0.996" fill="#151316" d="M 412.5,534.5 C 411.097,535.931 409.431,537.098 407.5,538C 409.641,538.573 411.641,539.406 413.5,540.5C 403.172,543.944 392.838,547.611 382.5,551.5C 382.436,550.635 382.103,549.635 381.5,548.5C 391.14,542.517 401.474,537.85 412.5,534.5 Z"/></g>
<g><path style="opacity:0.077" fill="#eeebef" d="M 622.5,542.5 C 627.482,543.826 632.482,545.16 637.5,546.5C 642.863,548.678 648.196,551.178 653.5,554C 656.738,556.998 659.071,560.498 660.5,564.5C 660.539,565.583 660.873,566.583 661.5,567.5C 661.043,568.298 660.376,568.631 659.5,568.5C 653.649,564.406 647.315,561.073 640.5,558.5C 635.048,556.126 629.381,554.126 623.5,552.5C 622.391,552.443 621.391,552.11 620.5,551.5C 618.672,550.717 617.339,549.384 616.5,547.5C 625.295,549.697 633.962,552.197 642.5,555C 645.039,558.281 648.372,559.281 652.5,558C 647.889,554.811 643.222,551.811 638.5,549C 636.167,548.667 633.833,548.333 631.5,548C 629.133,546.155 626.467,544.989 623.5,544.5C 623.167,543.833 622.833,543.167 622.5,542.5 Z"/></g>
<g><path style="opacity:0.996" fill="#110f12" d="M 455.5,543.5 C 455.62,544.586 456.287,545.253 457.5,545.5C 460.145,546.108 462.812,546.608 465.5,547C 464.058,547.377 463.058,548.21 462.5,549.5C 455.844,550.499 449.177,551.499 442.5,552.5C 440.473,552.662 438.473,552.495 436.5,552C 437.5,551.667 438.5,551.333 439.5,551C 437.833,550.667 436.167,550.333 434.5,550C 435.328,549.085 436.328,548.419 437.5,548C 436.584,547.722 435.918,547.222 435.5,546.5C 442.046,544.946 448.713,543.946 455.5,543.5 Z"/></g>
<g><path style="opacity:0.996" fill="#141215" d="M 581.5,544.5 C 594.609,546.296 607.609,548.629 620.5,551.5C 621.391,552.11 622.391,552.443 623.5,552.5C 623.082,553.222 622.416,553.722 621.5,554C 624.544,554.359 624.878,555.026 622.5,556C 623.167,556.333 623.833,556.667 624.5,557C 624.116,557.951 623.783,558.784 623.5,559.5C 611.781,556.829 600.115,554.495 588.5,552.5C 590.527,552.662 592.527,552.495 594.5,552C 587.798,548.158 580.465,546.491 572.5,547C 575.797,546.796 578.797,545.963 581.5,544.5 Z"/></g>
<g><path style="opacity:0.158" fill="#ebe7eb" d="M 654.5,522.5 C 656.067,528.451 657.733,534.451 659.5,540.5C 659.207,543.754 659.874,546.754 661.5,549.5C 661.35,551.059 661.017,552.726 660.5,554.5C 657.161,552.159 653.828,549.826 650.5,547.5C 650.443,546.391 650.11,545.391 649.5,544.5C 651.094,544.92 652.594,545.586 654,546.5C 655.059,546.37 655.892,545.87 656.5,545C 656.65,539.535 655.984,534.035 654.5,528.5C 654.5,526.5 654.5,524.5 654.5,522.5 Z"/></g>
<g><path style="opacity:0.004" fill="#e4e0e4" d="M 452.5,533.5 C 452.5,534.167 452.5,534.833 452.5,535.5C 428.774,538.872 405.774,544.872 383.5,553.5C 382.833,553.5 382.167,553.5 381.5,553.5C 381.833,552.833 382.167,552.167 382.5,551.5C 392.838,547.611 403.172,543.944 413.5,540.5C 419.894,539.317 426.227,537.984 432.5,536.5C 439.08,534.984 445.747,533.984 452.5,533.5 Z"/></g>
<g><path style="opacity:0.038" fill="#e8e5e9" d="M 527.5,546.5 C 528.5,546.5 529.5,546.5 530.5,546.5C 544.343,547.95 558.343,549.284 572.5,550.5C 573.833,551.167 575.167,551.833 576.5,552.5C 547.61,549.044 518.61,547.71 489.5,548.5C 488.833,548.5 488.5,548.167 488.5,547.5C 501.463,546.557 514.463,546.223 527.5,546.5 Z"/></g>
<g><path style="opacity:0.035" fill="#eeebef" d="M 374.5,521.5 C 374.833,521.5 375.167,521.5 375.5,521.5C 375.192,530.084 374.192,538.584 372.5,547C 373.042,551.418 374.042,551.418 375.5,547C 377.345,545.872 379.345,545.372 381.5,545.5C 380.602,546.158 379.602,546.824 378.5,547.5C 378.863,548.183 379.196,548.85 379.5,549.5C 373.833,553.167 369.167,557.833 365.5,563.5C 361.342,572.3 363.342,579.3 371.5,584.5C 373.5,585.833 375.5,587.167 377.5,588.5C 376.833,588.5 376.167,588.5 375.5,588.5C 361.854,583.428 358.021,574.094 364,560.5C 365.721,557.703 367.887,555.369 370.5,553.5C 369.234,552.638 367.901,551.971 366.5,551.5C 368.219,550.978 369.552,549.978 370.5,548.5C 371.239,543.853 371.906,539.186 372.5,534.5C 373.681,530.257 374.348,525.924 374.5,521.5 Z"/></g>
<g><path style="opacity:0.996" fill="#151417" d="M 435.5,546.5 C 435.918,547.222 436.584,547.722 437.5,548C 436.328,548.419 435.328,549.085 434.5,550C 436.167,550.333 437.833,550.667 439.5,551C 438.5,551.333 437.5,551.667 436.5,552C 438.473,552.495 440.473,552.662 442.5,552.5C 432.091,554.512 421.757,556.846 411.5,559.5C 410.167,559.833 408.833,560.167 407.5,560.5C 408.023,558.292 409.356,556.792 411.5,556C 410.264,554.915 408.931,554.082 407.5,553.5C 408.5,552.833 409.5,552.167 410.5,551.5C 418.734,549.371 427.067,547.704 435.5,546.5 Z"/></g>
<g><path style="opacity:0.03" fill="#edeaee" d="M 410.5,550.5 C 410.5,550.833 410.5,551.167 410.5,551.5C 409.5,552.167 408.5,552.833 407.5,553.5C 394.716,556.063 383.05,561.063 372.5,568.5C 371.291,566.565 371.458,564.565 373,562.5C 375.334,559 378.168,556 381.5,553.5C 382.167,553.5 382.833,553.5 383.5,553.5C 382.685,554.837 381.518,555.837 380,556.5C 379.517,557.448 379.351,558.448 379.5,559.5C 377.641,559.461 376.308,560.294 375.5,562C 376,562.5 376.5,563 377,563.5C 387.375,557.098 398.541,552.765 410.5,550.5 Z"/></g>
<g><path style="opacity:0.961" fill="#1b181b" d="M 638.5,541.5 C 642.248,544.041 646.248,546.041 650.5,547.5C 653.828,549.826 657.161,552.159 660.5,554.5C 662.412,556.657 664.079,558.991 665.5,561.5C 664.279,562.028 663.113,562.695 662,563.5C 660.893,562.288 660.393,562.621 660.5,564.5C 659.071,560.498 656.738,556.998 653.5,554C 648.196,551.178 642.863,548.678 637.5,546.5C 638.756,546.539 639.756,546.039 640.5,545C 639.177,544.184 638.511,543.017 638.5,541.5 Z"/></g>
<g><path style="opacity:0.02" fill="#f3f0f4" d="M 667.5,542.5 C 667.833,542.5 668.167,542.5 668.5,542.5C 668.379,546.456 667.379,550.122 665.5,553.5C 668.096,558.624 670.096,563.957 671.5,569.5C 671.068,572.797 670.068,575.797 668.5,578.5C 668.5,577.833 668.167,577.5 667.5,577.5C 669.241,571.835 668.575,566.501 665.5,561.5C 664.079,558.991 662.412,556.657 660.5,554.5C 661.017,552.726 661.35,551.059 661.5,549.5C 662.822,549.67 663.989,549.337 665,548.5C 665.938,546.512 666.772,544.512 667.5,542.5 Z"/></g>
<g><path style="opacity:0.984" fill="#171517" d="M 623.5,552.5 C 629.381,554.126 635.048,556.126 640.5,558.5C 639.168,560.138 637.834,561.804 636.5,563.5C 631.823,562.92 627.49,561.587 623.5,559.5C 623.783,558.784 624.116,557.951 624.5,557C 623.833,556.667 623.167,556.333 622.5,556C 624.878,555.026 624.544,554.359 621.5,554C 622.416,553.722 623.082,553.222 623.5,552.5 Z"/></g>
<g><path style="opacity:0.043" fill="#e5e2e6" d="M 479.5,547.5 C 481.167,547.5 482.833,547.5 484.5,547.5C 485.833,547.5 487.167,547.5 488.5,547.5C 488.5,548.167 488.833,548.5 489.5,548.5C 479.352,549.994 469.019,551.161 458.5,552C 444.13,554.362 429.797,556.862 415.5,559.5C 414.167,559.5 412.833,559.5 411.5,559.5C 421.757,556.846 432.091,554.512 442.5,552.5C 449.177,551.499 455.844,550.499 462.5,549.5C 468.349,549.184 474.016,548.518 479.5,547.5 Z"/></g>
<g><path style="opacity:0.996" fill="#1b191c" d="M 381.5,548.5 C 382.103,549.635 382.436,550.635 382.5,551.5C 382.167,552.167 381.833,552.833 381.5,553.5C 378.168,556 375.334,559 373,562.5C 371.458,564.565 371.291,566.565 372.5,568.5C 371.432,569.434 370.099,569.768 368.5,569.5C 368.539,566.911 367.539,564.911 365.5,563.5C 369.167,557.833 373.833,553.167 379.5,549.5C 380.167,549.167 380.833,548.833 381.5,548.5 Z"/></g>
<g><path style="opacity:0.996" fill="#141215" d="M 640.5,558.5 C 647.315,561.073 653.649,564.406 659.5,568.5C 658.448,568.351 657.448,568.517 656.5,569C 661.621,570.423 661.621,571.423 656.5,572C 657.056,572.383 657.389,572.883 657.5,573.5C 650.908,569.408 643.908,566.075 636.5,563.5C 637.834,561.804 639.168,560.138 640.5,558.5 Z"/></g>
<g><path style="opacity:0.996" fill="#151317" d="M 407.5,553.5 C 408.931,554.082 410.264,554.915 411.5,556C 409.356,556.792 408.023,558.292 407.5,560.5C 397.116,563.241 387.116,567.074 377.5,572C 374.627,573.561 373.961,575.728 375.5,578.5C 370.685,578.072 369.685,576.072 372.5,572.5C 371.282,571.197 371.615,570.197 373.5,569.5C 373.376,568.893 373.043,568.56 372.5,568.5C 383.05,561.063 394.716,556.063 407.5,553.5 Z"/></g>
<g><path style="opacity:0.076" fill="#ece8ec" d="M 411.5,559.5 C 412.833,559.5 414.167,559.5 415.5,559.5C 403.35,563.567 391.35,568.234 379.5,573.5C 378.138,575.012 377.804,576.512 378.5,578C 384.201,580.676 390.201,582.51 396.5,583.5C 396.5,584.5 396.5,585.5 396.5,586.5C 389.901,585.3 383.567,583.3 377.5,580.5C 377.167,579.5 376.5,578.833 375.5,578.5C 373.961,575.728 374.627,573.561 377.5,572C 387.116,567.074 397.116,563.241 407.5,560.5C 408.833,560.167 410.167,559.833 411.5,559.5 Z"/></g>
<g><path style="opacity:0.996" fill="#0d0b0f" d="M 365.5,563.5 C 367.539,564.911 368.539,566.911 368.5,569.5C 370.099,569.768 371.432,569.434 372.5,568.5C 373.043,568.56 373.376,568.893 373.5,569.5C 371.615,570.197 371.282,571.197 372.5,572.5C 369.685,576.072 370.685,578.072 375.5,578.5C 376.5,578.833 377.167,579.5 377.5,580.5C 377.047,581.458 376.381,582.292 375.5,583C 375.833,583.333 376.167,583.667 376.5,584C 374.773,583.474 373.106,583.641 371.5,584.5C 363.342,579.3 361.342,572.3 365.5,563.5 Z"/></g>
<g><path style="opacity:0.996" fill="#141115" d="M 665.5,561.5 C 668.575,566.501 669.241,571.835 667.5,577.5C 664.815,581.183 661.482,584.183 657.5,586.5C 656.209,585.527 656.209,584.527 657.5,583.5C 655.448,580.597 654.114,580.93 653.5,584.5C 652.833,584.167 652.167,583.833 651.5,583.5C 651.511,584.441 651.011,585.108 650,585.5C 648.594,584.586 647.094,583.92 645.5,583.5C 645.842,582.662 646.508,582.328 647.5,582.5C 649.807,581.347 652.14,580.18 654.5,579C 656.607,577.736 657.607,575.903 657.5,573.5C 657.389,572.883 657.056,572.383 656.5,572C 661.621,571.423 661.621,570.423 656.5,569C 657.448,568.517 658.448,568.351 659.5,568.5C 660.376,568.631 661.043,568.298 661.5,567.5C 660.873,566.583 660.539,565.583 660.5,564.5C 660.393,562.621 660.893,562.288 662,563.5C 663.113,562.695 664.279,562.028 665.5,561.5 Z"/></g>
<g><path style="opacity:0.12" fill="#e9e6ea" d="M 572.5,550.5 C 577.859,551.003 583.193,551.67 588.5,552.5C 600.115,554.495 611.781,556.829 623.5,559.5C 627.49,561.587 631.823,562.92 636.5,563.5C 643.908,566.075 650.908,569.408 657.5,573.5C 657.607,575.903 656.607,577.736 654.5,579C 652.14,580.18 649.807,581.347 647.5,582.5C 647.5,581.5 647.5,580.5 647.5,579.5C 651.293,579.21 653.126,577.21 653,573.5C 647.502,569.894 641.669,567.061 635.5,565C 619.987,560.808 604.32,557.308 588.5,554.5C 584.448,554.829 580.448,554.163 576.5,552.5C 575.167,551.833 573.833,551.167 572.5,550.5 Z"/></g>
<g><path style="opacity:0.996" fill="#151317" d="M 377.5,580.5 C 383.567,583.3 389.901,585.3 396.5,586.5C 397.791,586.263 398.791,586.596 399.5,587.5C 398.448,587.351 397.448,587.517 396.5,588C 396.833,588.333 397.167,588.667 397.5,589C 395.944,589.72 394.944,590.887 394.5,592.5C 388.633,591.988 382.966,590.655 377.5,588.5C 375.5,587.167 373.5,585.833 371.5,584.5C 373.106,583.641 374.773,583.474 376.5,584C 376.167,583.667 375.833,583.333 375.5,583C 376.381,582.292 377.047,581.458 377.5,580.5 Z"/></g>
<g><path style="opacity:0.106" fill="#efecf0" d="M 396.5,583.5 C 411.603,586.799 426.937,588.632 442.5,589C 445.072,589.432 446.406,590.932 446.5,593.5C 445.542,593.047 444.708,592.381 444,591.5C 443.722,592.416 443.222,593.082 442.5,593.5C 440.365,591.631 437.698,590.964 434.5,591.5C 422.746,590.916 411.079,589.583 399.5,587.5C 398.791,586.596 397.791,586.263 396.5,586.5C 396.5,585.5 396.5,584.5 396.5,583.5 Z"/></g>
<g><path style="opacity:0.186" fill="#f3f0f4" d="M 647.5,579.5 C 647.5,580.5 647.5,581.5 647.5,582.5C 646.508,582.328 645.842,582.662 645.5,583.5C 629.487,588.074 613.154,591.074 596.5,592.5C 600.107,593.489 603.774,593.823 607.5,593.5C 614.5,594.167 621.5,594.833 628.5,595.5C 617.828,595.333 607.161,595.5 596.5,596C 595.354,596.645 594.354,597.478 593.5,598.5C 592.5,598.167 591.833,597.5 591.5,596.5C 592.123,593.833 593.123,591.333 594.5,589C 605.382,588.244 616.382,587.244 627.5,586C 634.399,584.359 641.066,582.192 647.5,579.5 Z"/></g>
<g><path style="opacity:0.996" fill="#151316" d="M 657.5,586.5 C 641.487,592.868 624.82,595.201 607.5,593.5C 603.774,593.823 600.107,593.489 596.5,592.5C 613.154,591.074 629.487,588.074 645.5,583.5C 647.094,583.92 648.594,584.586 650,585.5C 651.011,585.108 651.511,584.441 651.5,583.5C 652.167,583.833 652.833,584.167 653.5,584.5C 654.114,580.93 655.448,580.597 657.5,583.5C 656.209,584.527 656.209,585.527 657.5,586.5 Z"/></g>
<g><path style="opacity:0.972" fill="#131114" d="M 399.5,587.5 C 411.079,589.583 422.746,590.916 434.5,591.5C 432.167,592.167 429.833,592.833 427.5,593.5C 416.321,593.828 405.321,593.495 394.5,592.5C 394.944,590.887 395.944,589.72 397.5,589C 397.167,588.667 396.833,588.333 396.5,588C 397.448,587.517 398.448,587.351 399.5,587.5 Z"/></g>
<g><path style="opacity:0.008" fill="#dcd9dd" d="M 667.5,577.5 C 668.167,577.5 668.5,577.833 668.5,578.5C 665.222,584.601 660.222,588.768 653.5,591C 649.581,591.75 645.915,593.083 642.5,595C 637.845,595.499 633.179,595.666 628.5,595.5C 621.5,594.833 614.5,594.167 607.5,593.5C 624.82,595.201 641.487,592.868 657.5,586.5C 661.482,584.183 664.815,581.183 667.5,577.5 Z"/></g>
<g><path style="opacity:0.041" fill="#eae6ea" d="M 375.5,588.5 C 376.167,588.5 376.833,588.5 377.5,588.5C 382.966,590.655 388.633,591.988 394.5,592.5C 405.321,593.495 416.321,593.828 427.5,593.5C 432.5,593.5 437.5,593.5 442.5,593.5C 443.222,593.082 443.722,592.416 444,591.5C 444.708,592.381 445.542,593.047 446.5,593.5C 446.852,596.073 446.352,598.406 445,600.5C 444.065,597.898 442.232,596.398 439.5,596C 423.833,595.667 408.167,595.333 392.5,595C 387.934,593.358 383.268,592.025 378.5,591C 377.058,590.623 376.058,589.79 375.5,588.5 Z"/></g>
<g><path style="opacity:0.827" fill="#736f74" d="M 434.5,591.5 C 437.698,590.964 440.365,591.631 442.5,593.5C 437.5,593.5 432.5,593.5 427.5,593.5C 429.833,592.833 432.167,592.167 434.5,591.5 Z"/></g>
</svg>
