<?xml version="1.0" encoding="UTF-8"?>
<!DOCTYPE svg PUBLIC "-//W3C//DTD SVG 1.1//EN" "http://www.w3.org/Graphics/SVG/1.1/DTD/svg11.dtd">
<svg xmlns="http://www.w3.org/2000/svg" version="1.1" width="1024px" height="1024px" style="shape-rendering:geometricPrecision; text-rendering:geometricPrecision; image-rendering:optimizeQuality; fill-rule:evenodd; clip-rule:evenodd" xmlns:xlink="http://www.w3.org/1999/xlink">
<g><path style="opacity:0.052" fill="#d6d2db" d="M 561.5,301.5 C 561.5,300.833 561.5,300.167 561.5,299.5C 564.419,288.568 562.086,279.068 554.5,271C 550.985,268.217 546.985,266.717 542.5,266.5C 539.375,265.521 536.042,265.187 532.5,265.5C 534.586,264.391 536.92,263.724 539.5,263.5C 543.456,264.49 547.456,265.156 551.5,265.5C 551.185,263.774 551.019,262.107 551,260.5C 553.686,258.946 556.519,257.612 559.5,256.5C 560.04,255.252 560.707,254.085 561.5,253C 559.351,252.421 557.185,251.921 555,251.5C 536.25,252.739 517.75,255.073 499.5,258.5C 504.475,255.711 509.808,255.045 515.5,256.5C 516.769,254.82 518.436,253.653 520.5,253C 525.084,251.637 529.751,250.803 534.5,250.5C 543.5,250.5 552.5,250.5 561.5,250.5C 563.591,250.318 565.591,250.652 567.5,251.5C 568.583,252.365 568.749,253.365 568,254.5C 563.973,257.564 559.473,259.564 554.5,260.5C 554.5,261.5 554.5,262.5 554.5,263.5C 562.404,262.155 569.238,258.822 575,253.5C 575.92,250.692 575.087,248.525 572.5,247C 568.673,245.21 564.673,244.044 560.5,243.5C 549.567,242.009 538.567,242.343 527.5,244.5C 525.236,245.219 522.903,245.552 520.5,245.5C 521.043,242.962 522.043,240.628 523.5,238.5C 521.637,240.705 519.303,242.039 516.5,242.5C 515.833,242.5 515.5,242.167 515.5,241.5C 515.5,239.5 515.5,237.5 515.5,235.5C 515.63,231.61 516.963,228.277 519.5,225.5C 522.833,223.167 526.167,220.833 529.5,218.5C 538.67,208.528 537.003,200.861 524.5,195.5C 521.648,192.69 518.315,192.023 514.5,193.5C 523.471,200.06 525.971,208.394 522,218.5C 519.8,219.651 518.3,221.318 517.5,223.5C 515.975,226.583 514.975,229.916 514.5,233.5C 513.532,235.607 513.198,237.941 513.5,240.5C 511.76,237.362 509.76,234.362 507.5,231.5C 509.316,235.284 510.316,239.284 510.5,243.5C 510.5,243.833 510.5,244.167 510.5,244.5C 509.325,244.281 508.325,244.614 507.5,245.5C 509.842,247.865 511.342,250.531 512,253.5C 509.519,251.686 506.685,251.02 503.5,251.5C 502.209,251.263 501.209,251.596 500.5,252.5C 493.774,253.546 487.108,255.046 480.5,257C 474.964,260.263 469.63,263.763 464.5,267.5C 460.427,268.587 458.761,271.254 459.5,275.5C 457.016,273.349 457.016,271.015 459.5,268.5C 456.59,262.761 453.09,257.428 449,252.5C 446.653,247.349 444.153,242.349 441.5,237.5C 440.534,235.604 440.201,233.604 440.5,231.5C 442.199,231.34 443.866,231.506 445.5,232C 450.84,234.086 456.006,236.586 461,239.5C 462.261,239.241 463.261,238.574 464,237.5C 462.249,226.765 458.749,216.599 453.5,207C 448.483,208.651 446.649,206.818 448,201.5C 452.569,198.439 456.569,199.106 460,203.5C 466.999,213.342 473.832,223.342 480.5,233.5C 482.386,234.406 484.22,235.406 486,236.5C 487.319,234.75 487.819,232.75 487.5,230.5C 486.522,230.189 485.855,229.522 485.5,228.5C 486.313,227.186 487.313,226.019 488.5,225C 484.394,221.204 481.728,216.538 480.5,211C 483.537,203.803 488.204,197.97 494.5,193.5C 497.074,190.635 497.074,187.801 494.5,185C 496.045,174.774 497.045,164.44 497.5,154C 496.496,150.337 496.829,147.004 498.5,144C 501.363,143.035 503.696,143.702 505.5,146C 506.23,149.794 506.73,153.627 507,157.5C 509.005,167.51 513.172,176.51 519.5,184.5C 518.636,186.197 517.303,187.363 515.5,188C 520.67,189.947 525.67,192.28 530.5,195C 537.714,201.091 539.38,208.258 535.5,216.5C 537.496,219.154 537.496,221.987 535.5,225C 535.287,227.456 536.287,228.456 538.5,228C 546.044,215.317 551.544,201.817 555,187.5C 556.079,185.606 557.413,185.273 559,186.5C 559.095,193.321 558.928,200.154 558.5,207C 558.667,210.833 558.833,214.667 559,218.5C 559.667,219.833 560.667,220.833 562,221.5C 567.5,214.667 573.667,208.5 580.5,203C 583.856,201.078 587.022,201.245 590,203.5C 590.49,204.793 590.657,206.127 590.5,207.5C 588.833,207.5 587.167,207.5 585.5,207.5C 585.481,209.06 585.148,210.56 584.5,212C 582.646,213.523 581.146,215.356 580,217.5C 579.244,223.043 577.911,228.376 576,233.5C 575.333,237.5 575.333,241.5 576,245.5C 579.287,247.453 580.12,250.119 578.5,253.5C 573.132,258.854 566.799,262.687 559.5,265C 557.939,265.941 556.605,267.108 555.5,268.5C 561.89,273.403 564.89,279.903 564.5,288C 564.041,292.753 563.041,297.253 561.5,301.5 Z M 532.5,265.5 C 528.491,265.858 524.491,266.358 520.5,267C 515.612,269.294 510.445,270.794 505,271.5C 504.127,271.265 503.293,270.931 502.5,270.5C 491.306,273.067 479.973,273.9 468.5,273C 470.792,271.71 472.792,270.043 474.5,268C 477.983,267.235 480.983,265.735 483.5,263.5C 484.492,263.672 485.158,263.338 485.5,262.5C 490.777,262.959 495.444,261.626 499.5,258.5C 517.75,255.073 536.25,252.739 555,251.5C 557.185,251.921 559.351,252.421 561.5,253C 560.707,254.085 560.04,255.252 559.5,256.5C 556.519,257.612 553.686,258.946 551,260.5C 551.019,262.107 551.185,263.774 551.5,265.5C 547.456,265.156 543.456,264.49 539.5,263.5C 536.92,263.724 534.586,264.391 532.5,265.5 Z M 464.5,245.5 C 466.308,245.491 467.975,245.991 469.5,247C 470.826,249.158 472.493,250.992 474.5,252.5C 476.362,257.488 474.529,259.821 469,259.5C 467.564,259.441 466.231,259.108 465,258.5C 464.011,255.544 463.178,252.544 462.5,249.5C 462.752,247.927 463.418,246.594 464.5,245.5 Z M 480.5,241.5 C 483.262,242.38 485.929,243.546 488.5,245C 492.167,245.333 495.833,245.667 499.5,246C 502.177,246.249 504.51,247.249 506.5,249C 497.502,251.045 488.502,252.711 479.5,254C 479.034,251.288 478.701,248.621 478.5,246C 478.519,244.167 479.185,242.667 480.5,241.5 Z M 452.5,243.5 C 455.674,243.952 456.007,244.952 453.5,246.5C 452.614,245.675 452.281,244.675 452.5,243.5 Z M 499.5,230.5 C 502.315,231.126 504.815,232.46 507,234.5C 508.445,236.612 508.278,238.778 506.5,241C 505.668,241.688 505.002,241.521 504.5,240.5C 502.906,236.974 501.24,233.641 499.5,230.5 Z M 545.5,229.5 C 546.718,231.828 547.718,234.328 548.5,237C 544.535,240.212 540.535,240.212 536.5,237C 540.275,235.389 543.275,232.889 545.5,229.5 Z M 561.5,227.5 C 563.91,230.816 564.577,234.483 563.5,238.5C 560.278,239.758 557.278,239.258 554.5,237C 555.543,232.803 557.876,229.636 561.5,227.5 Z M 496.5,227.5 C 499.137,229.154 498.803,229.654 495.5,229C 496.056,228.617 496.389,228.117 496.5,227.5 Z M 524.5,223.5 C 525.497,223.47 526.164,223.97 526.5,225C 525.349,228.444 523.682,231.611 521.5,234.5C 520.914,234.291 520.414,233.957 520,233.5C 519.333,231.5 519.333,229.5 520,227.5C 521.992,226.672 523.492,225.339 524.5,223.5 Z M 496.5,206.5 C 497.586,206.62 498.253,207.287 498.5,208.5C 498.167,209.167 497.833,209.833 497.5,210.5C 496.571,209.311 496.238,207.978 496.5,206.5 Z M 516.5,199.5 C 517.693,199.97 518.36,200.97 518.5,202.5C 518.333,203.5 518.167,204.5 518,205.5C 516.681,203.75 516.181,201.75 516.5,199.5 Z"/></g>
<g><path style="opacity:0.937" fill="#343137" d="M 510.5,244.5 C 511.209,245.404 512.209,245.737 513.5,245.5C 511.102,248.589 511.769,251.256 515.5,253.5C 516.429,252.311 516.762,250.978 516.5,249.5C 517.167,249.167 517.833,248.833 518.5,248.5C 517.972,249.847 517.805,251.181 518,252.5C 519.333,251.167 520.667,249.833 522,248.5C 522.924,250.495 524.09,250.828 525.5,249.5C 528.713,249.19 531.713,249.523 534.5,250.5C 529.751,250.803 525.084,251.637 520.5,253C 518.436,253.653 516.769,254.82 515.5,256.5C 509.808,255.045 504.475,255.711 499.5,258.5C 494.4,258.711 489.734,260.045 485.5,262.5C 485.158,263.338 484.492,263.672 483.5,263.5C 476.873,264.818 470.873,267.484 465.5,271.5C 464.909,270.849 464.243,270.182 463.5,269.5C 463.624,268.893 463.957,268.56 464.5,268.5C 464.56,269.043 464.893,269.376 465.5,269.5C 477.508,261.999 490.508,256.999 504.5,254.5C 505.978,254.762 507.311,254.429 508.5,253.5C 506.709,252.83 505.042,252.163 503.5,251.5C 506.685,251.02 509.519,251.686 512,253.5C 511.342,250.531 509.842,247.865 507.5,245.5C 508.325,244.614 509.325,244.281 510.5,244.5 Z"/></g>
<g><path style="opacity:0.957" fill="#736f77" d="M 500.5,252.5 C 501.209,251.596 502.209,251.263 503.5,251.5C 505.042,252.163 506.709,252.83 508.5,253.5C 507.311,254.429 505.978,254.762 504.5,254.5C 504.158,253.662 503.492,253.328 502.5,253.5C 502.158,252.662 501.492,252.328 500.5,252.5 Z"/></g>
<g><path style="opacity:0.976" fill="#1f1c22" d="M 547.5,244.5 C 551.634,243.515 555.968,243.182 560.5,243.5C 564.673,244.044 568.673,245.21 572.5,247C 575.087,248.525 575.92,250.692 575,253.5C 569.238,258.822 562.404,262.155 554.5,263.5C 554.5,262.5 554.5,261.5 554.5,260.5C 559.473,259.564 563.973,257.564 568,254.5C 568.749,253.365 568.583,252.365 567.5,251.5C 565.591,250.652 563.591,250.318 561.5,250.5C 552.833,249.833 544.167,249.167 535.5,248.5C 540.314,248.01 545.147,247.676 550,247.5C 556.883,247.882 563.717,248.382 570.5,249C 568.999,247.748 567.332,246.748 565.5,246C 559.535,245.037 553.535,244.537 547.5,244.5 Z"/></g>
<g><path style="opacity:0.643" fill="#49454c" d="M 525.5,249.5 C 528.625,248.521 531.958,248.187 535.5,248.5C 544.167,249.167 552.833,249.833 561.5,250.5C 552.5,250.5 543.5,250.5 534.5,250.5C 531.713,249.523 528.713,249.19 525.5,249.5 Z"/></g>
<g><path style="opacity:0.737" fill="#c5c0c8" d="M 513.5,245.5 C 515.912,245.694 516.912,247.027 516.5,249.5C 516.762,250.978 516.429,252.311 515.5,253.5C 511.769,251.256 511.102,248.589 513.5,245.5 Z"/></g>
<g><path style="opacity:0.788" fill="#d0cbd3" d="M 547.5,244.5 C 553.535,244.537 559.535,245.037 565.5,246C 567.332,246.748 568.999,247.748 570.5,249C 563.717,248.382 556.883,247.882 550,247.5C 545.147,247.676 540.314,248.01 535.5,248.5C 531.958,248.187 528.625,248.521 525.5,249.5C 523.663,249.361 523.33,248.694 524.5,247.5C 527.311,246.92 529.977,246.254 532.5,245.5C 537.453,244.671 542.453,244.337 547.5,244.5 Z"/></g>
<g><path style="opacity:0.757" fill="#a29da5" d="M 523.5,238.5 C 522.043,240.628 521.043,242.962 520.5,245.5C 522.903,245.552 525.236,245.219 527.5,244.5C 528.919,245.451 530.585,245.784 532.5,245.5C 529.977,246.254 527.311,246.92 524.5,247.5C 523.33,248.694 523.663,249.361 525.5,249.5C 524.09,250.828 522.924,250.495 522,248.5C 520.667,249.833 519.333,251.167 518,252.5C 517.805,251.181 517.972,249.847 518.5,248.5C 518.421,247.07 518.754,245.736 519.5,244.5C 518.398,243.824 517.398,243.158 516.5,242.5C 519.303,242.039 521.637,240.705 523.5,238.5 Z"/></g>
<g><path style="opacity:0.976" fill="#151218" d="M 513.5,240.5 C 514.167,240.833 514.833,241.167 515.5,241.5C 515.5,242.167 515.833,242.5 516.5,242.5C 517.398,243.158 518.398,243.824 519.5,244.5C 518.754,245.736 518.421,247.07 518.5,248.5C 517.833,248.833 517.167,249.167 516.5,249.5C 516.912,247.027 515.912,245.694 513.5,245.5C 512.209,245.737 511.209,245.404 510.5,244.5C 510.5,244.167 510.5,243.833 510.5,243.5C 511.5,242.5 512.5,241.5 513.5,240.5 Z"/></g>
<g><path style="opacity:0.533" fill="#4b474e" d="M 560.5,243.5 C 555.968,243.182 551.634,243.515 547.5,244.5C 542.453,244.337 537.453,244.671 532.5,245.5C 530.585,245.784 528.919,245.451 527.5,244.5C 538.567,242.343 549.567,242.009 560.5,243.5 Z"/></g>
<g><path style="opacity:0.937" fill="#47434a" d="M 507.5,231.5 C 509.76,234.362 511.76,237.362 513.5,240.5C 512.5,241.5 511.5,242.5 510.5,243.5C 510.316,239.284 509.316,235.284 507.5,231.5 Z"/></g>
<g><path style="opacity:0.918" fill="#cdc9d1" d="M 493.5,234.5 C 495.553,239.052 494.22,241.719 489.5,242.5C 489.427,240.973 490.094,239.973 491.5,239.5C 492.167,237.833 492.833,236.167 493.5,234.5 Z"/></g>
<g><path style="opacity:0.895" fill="#232027" d="M 463.5,215.5 C 462.167,216.833 462.167,218.167 463.5,219.5C 466.239,226.717 468.573,234.051 470.5,241.5C 471.028,243.445 472.195,245.445 474,247.5C 474.448,243.929 473.948,240.596 472.5,237.5C 470.431,231.7 468.098,226.033 465.5,220.5C 467.167,222.5 468.833,224.5 470.5,226.5C 472.413,230.262 474.579,233.929 477,237.5C 477.499,241.821 477.666,246.154 477.5,250.5C 476.448,250.649 475.448,250.483 474.5,250C 471.598,246.928 468.598,244.095 465.5,241.5C 466.167,239.833 466.833,238.167 467.5,236.5C 465.137,229.125 462.804,221.792 460.5,214.5C 461.322,212.45 462.322,212.783 463.5,215.5 Z"/></g>
<g><path style="opacity:0.957" fill="#908c95" d="M 472.5,237.5 C 473.948,240.596 474.448,243.929 474,247.5C 472.195,245.445 471.028,243.445 470.5,241.5C 472.176,240.817 472.843,239.483 472.5,237.5 Z"/></g>
<g><path style="opacity:0.949" fill="#353239" d="M 443.5,234.5 C 450.292,237.396 456.959,240.563 463.5,244C 461.972,245.648 461.305,247.648 461.5,250C 462.167,253.667 462.833,257.333 463.5,261C 463.167,262.5 462.833,264 462.5,265.5C 459.478,263.312 456.978,260.645 455,257.5C 451.135,249.769 447.301,242.103 443.5,234.5 Z M 452.5,243.5 C 452.281,244.675 452.614,245.675 453.5,246.5C 456.007,244.952 455.674,243.952 452.5,243.5 Z"/></g>
<g><path style="opacity:0.019" fill="#d4cfd8" d="M 447.5,238.5 C 451.806,240.45 456.139,242.45 460.5,244.5C 459.534,250.338 459.534,256.005 460.5,261.5C 455.383,254.265 451.05,246.599 447.5,238.5 Z M 452.5,243.5 C 452.281,244.675 452.614,245.675 453.5,246.5C 456.007,244.952 455.674,243.952 452.5,243.5 Z"/></g>
<g><path style="opacity:0.976" fill="#2b272e" d="M 532.5,227.5 C 531.167,227.5 530.5,228.167 530.5,229.5C 530.292,231.92 530.626,234.253 531.5,236.5C 529.355,239.44 526.689,240.107 523.5,238.5C 525.028,231.777 528.362,226.111 533.5,221.5C 533.833,221.833 534.167,222.167 534.5,222.5C 533.05,223.85 532.383,225.516 532.5,227.5 Z"/></g>
<g><path style="opacity:0.953" fill="#7c7880" d="M 514.5,233.5 C 514.328,234.492 514.662,235.158 515.5,235.5C 515.5,237.5 515.5,239.5 515.5,241.5C 514.833,241.167 514.167,240.833 513.5,240.5C 513.198,237.941 513.532,235.607 514.5,233.5 Z"/></g>
<g><path style="opacity:0.404" fill="#79757d" d="M 493.5,234.5 C 492.833,236.167 492.167,237.833 491.5,239.5C 491.5,238.833 491.167,238.5 490.5,238.5C 490.5,237.167 490.5,235.833 490.5,234.5C 491.151,233.909 491.818,233.243 492.5,232.5C 493.298,232.957 493.631,233.624 493.5,234.5 Z"/></g>
<g><path style="opacity:0.553" fill="#ccc8d0" d="M 463.5,219.5 C 464.167,219.833 464.833,220.167 465.5,220.5C 468.098,226.033 470.431,231.7 472.5,237.5C 472.843,239.483 472.176,240.817 470.5,241.5C 468.573,234.051 466.239,226.717 463.5,219.5 Z"/></g>
<g><path style="opacity:0.929" fill="#2e2a31" d="M 489.5,242.5 C 494.22,241.719 495.553,239.052 493.5,234.5C 493.631,233.624 493.298,232.957 492.5,232.5C 491.818,233.243 491.151,233.909 490.5,234.5C 489.974,232.77 488.974,231.436 487.5,230.5C 487.47,229.503 487.97,228.836 489,228.5C 494.985,230.652 499.151,234.652 501.5,240.5C 501.392,241.442 501.059,242.275 500.5,243C 496.642,243.81 492.976,243.643 489.5,242.5 Z"/></g>
<g><path style="opacity:0.91" fill="#c1bdc5" d="M 496.5,236.5 C 499.016,237.6 500.016,239.267 499.5,241.5C 497.244,240.579 496.244,238.912 496.5,236.5 Z"/></g>
<g><path style="opacity:0.835" fill="#2b282e" d="M 547.5,227.5 C 548.86,221.104 550.527,214.771 552.5,208.5C 552.833,208.5 553.167,208.5 553.5,208.5C 553.5,209.5 553.5,210.5 553.5,211.5C 551.936,215.674 551.269,220.007 551.5,224.5C 552.5,224.5 553.5,224.5 554.5,224.5C 554.5,223.5 554.5,222.5 554.5,221.5C 555.167,221.167 555.833,220.833 556.5,220.5C 558.108,222.085 559.775,223.251 561.5,224C 567.802,218.699 573.802,213.032 579.5,207C 580.332,206.312 580.998,206.479 581.5,207.5C 577.317,218.88 573.651,230.38 570.5,242C 569.551,242.617 568.718,242.451 568,241.5C 566.908,236.86 565.908,232.193 565,227.5C 564.5,227 564,226.5 563.5,226C 557.725,225.826 554.225,228.659 553,234.5C 551.286,235.925 549.953,235.592 549,233.5C 548.809,231.292 548.309,229.292 547.5,227.5 Z"/></g>
<g><path style="opacity:0.769" fill="#a9a4ad" d="M 527.5,230.5 C 528.139,231.097 528.472,231.93 528.5,233C 528.624,235.737 527.624,236.571 525.5,235.5C 526.456,233.925 527.123,232.258 527.5,230.5 Z"/></g>
<g><path style="opacity:0.961" fill="#7f7b83" d="M 552.5,227.5 C 553.239,227.369 553.906,227.536 554.5,228C 552.326,232.559 551.66,232.392 552.5,227.5 Z"/></g>
<g><path style="opacity:0.827" fill="#4b484f" d="M 517.5,223.5 C 517.5,224.833 518.167,225.5 519.5,225.5C 516.963,228.277 515.63,231.61 515.5,235.5C 514.662,235.158 514.328,234.492 514.5,233.5C 514.975,229.916 515.975,226.583 517.5,223.5 Z"/></g>
<g><path style="opacity:0.894" fill="#423e45" d="M 471.5,225.5 C 475.301,229.473 478.968,233.64 482.5,238C 485.119,239.696 487.786,239.863 490.5,238.5C 491.167,238.5 491.5,238.833 491.5,239.5C 490.094,239.973 489.427,240.973 489.5,242.5C 484.225,241.753 480.058,239.086 477,234.5C 474.642,231.778 472.809,228.778 471.5,225.5 Z"/></g>
<g><path style="opacity:0.08" fill="#d2cdd6" d="M 576.5,211.5 C 577.097,211.735 577.43,212.235 577.5,213C 574.642,221.47 571.976,229.97 569.5,238.5C 568.673,234.541 568.173,230.541 568,226.5C 567.228,225.151 566.061,224.318 564.5,224C 568.704,219.964 572.704,215.798 576.5,211.5 Z"/></g>
<g><path style="opacity:0.897" fill="#201c22" d="M 524.5,195.5 C 523.022,195.238 521.689,195.571 520.5,196.5C 522.498,199.823 524.831,202.823 527.5,205.5C 528.492,205.328 529.158,205.662 529.5,206.5C 527.166,208.176 526.166,210.509 526.5,213.5C 526.5,214.833 526.5,216.167 526.5,217.5C 527.791,217.263 528.791,217.596 529.5,218.5C 526.167,220.833 522.833,223.167 519.5,225.5C 518.167,225.5 517.5,224.833 517.5,223.5C 518.3,221.318 519.8,219.651 522,218.5C 525.971,208.394 523.471,200.06 514.5,193.5C 518.315,192.023 521.648,192.69 524.5,195.5 Z"/></g>
<g><path style="opacity:0.945" fill="#211d24" d="M 507.5,231.5 C 503.153,227.827 498.153,225.494 492.5,224.5C 493.167,223.833 493.833,223.167 494.5,222.5C 494.489,216.784 491.823,213.117 486.5,211.5C 488.466,211.459 490.466,211.125 492.5,210.5C 492.572,205.999 493.905,201.999 496.5,198.5C 496.333,198.167 496.167,197.833 496,197.5C 494.729,198.883 493.229,199.883 491.5,200.5C 491.5,200.167 491.5,199.833 491.5,199.5C 493.707,196.289 496.707,194.289 500.5,193.5C 499.226,197.381 497.393,201.048 495,204.5C 494.369,209.345 495.035,214.012 497,218.5C 501.496,222.149 504.996,226.482 507.5,231.5 Z"/></g>
<g><path style="opacity:0.937" fill="#4a464d" d="M 554.5,198.5 C 554.821,200.048 555.821,200.715 557.5,200.5C 556.669,207.131 556.336,213.798 556.5,220.5C 555.833,220.833 555.167,221.167 554.5,221.5C 554.5,219.167 554.5,216.833 554.5,214.5C 555.647,210.354 555.814,206.02 555,201.5C 554.814,204.036 554.314,206.369 553.5,208.5C 553.167,208.5 552.833,208.5 552.5,208.5C 550.184,213.761 547.85,219.095 545.5,224.5C 543.246,229.937 539.246,232.771 533.5,233C 533.026,231.271 532.026,230.105 530.5,229.5C 530.5,228.167 531.167,227.5 532.5,227.5C 532.977,229.464 534.144,230.798 536,231.5C 538.879,230.624 541.213,228.958 543,226.5C 547.155,217.176 550.989,207.843 554.5,198.5 Z"/></g>
<g><path style="opacity:0.757" fill="#bbb7bf" d="M 486.5,211.5 C 491.823,213.117 494.489,216.784 494.5,222.5C 490.47,221.633 487.97,219.3 487,215.5C 488.333,216.833 489.667,218.167 491,219.5C 490.253,216.555 488.42,214.222 485.5,212.5C 485.624,211.893 485.957,211.56 486.5,211.5 Z"/></g>
<g><path style="opacity:0.08" fill="#d0cbd3" d="M 553.5,211.5 C 554.404,212.209 554.737,213.209 554.5,214.5C 554.5,216.833 554.5,219.167 554.5,221.5C 554.5,222.5 554.5,223.5 554.5,224.5C 553.5,224.5 552.5,224.5 551.5,224.5C 551.269,220.007 551.936,215.674 553.5,211.5 Z"/></g>
<g><path style="opacity:0.777" fill="#a6a1aa" d="M 552.5,208.5 C 550.527,214.771 548.86,221.104 547.5,227.5C 546.833,226.5 546.167,225.5 545.5,224.5C 547.85,219.095 550.184,213.761 552.5,208.5 Z"/></g>
<g><path style="opacity:0.647" fill="#3a363d" d="M 499.5,171.5 C 500.434,172.568 500.768,173.901 500.5,175.5C 500.123,178.525 499.956,181.525 500,184.5C 500.708,183.619 501.542,182.953 502.5,182.5C 502.443,183.609 502.11,184.609 501.5,185.5C 503.448,187.448 504.948,189.781 506,192.5C 506.755,199.485 505.588,206.152 502.5,212.5C 502.543,213.416 502.876,214.083 503.5,214.5C 503.5,214.833 503.5,215.167 503.5,215.5C 504.422,217.816 506.089,219.483 508.5,220.5C 509.803,224.482 511.137,224.482 512.5,220.5C 512.833,220.5 513.167,220.5 513.5,220.5C 515.441,218.684 516.108,216.684 515.5,214.5C 515.167,213.833 514.833,213.167 514.5,212.5C 515.552,212.649 516.552,212.483 517.5,212C 512.64,206.946 509.64,200.946 508.5,194C 508.452,190.956 509.452,188.456 511.5,186.5C 511.833,186.5 512.167,186.5 512.5,186.5C 510.612,189.931 510.112,193.598 511,197.5C 512.834,202.662 515.501,207.328 519,211.5C 519.667,212.833 519.667,214.167 519,215.5C 516.663,219.327 514.163,222.993 511.5,226.5C 507.849,223.349 504.349,220.016 501,216.5C 501.671,209.96 502.838,203.46 504.5,197C 504.752,192.003 502.585,188.503 498,186.5C 497.794,181.44 498.294,176.44 499.5,171.5 Z"/></g>
<g><path style="opacity:0.831" fill="#b1adb4" d="M 512.5,220.5 C 511.137,224.482 509.803,224.482 508.5,220.5C 509.712,219.77 510.712,218.77 511.5,217.5C 512.386,218.325 512.719,219.325 512.5,220.5 Z"/></g>
<g><path style="opacity:0.455" fill="#a39fa7" d="M 515.5,214.5 C 516.108,216.684 515.441,218.684 513.5,220.5C 513.054,217.99 513.72,215.99 515.5,214.5 Z"/></g>
<g><path style="opacity:0.847" fill="#7f7b82" d="M 503.5,215.5 C 506.264,215.999 507.931,217.665 508.5,220.5C 506.089,219.483 504.422,217.816 503.5,215.5 Z"/></g>
<g><path style="opacity:0.961" fill="#646068" d="M 463.5,215.5 C 464.5,217.167 465.833,218.5 467.5,219.5C 469.822,220.802 471.155,222.802 471.5,225.5C 470.833,225.5 470.5,225.833 470.5,226.5C 468.833,224.5 467.167,222.5 465.5,220.5C 464.833,220.167 464.167,219.833 463.5,219.5C 462.167,218.167 462.167,216.833 463.5,215.5 Z"/></g>
<g><path style="opacity:0.945" fill="#1c191e" d="M 514.5,212.5 C 514.833,213.167 515.167,213.833 515.5,214.5C 513.72,215.99 513.054,217.99 513.5,220.5C 513.167,220.5 512.833,220.5 512.5,220.5C 512.719,219.325 512.386,218.325 511.5,217.5C 510.712,218.77 509.712,219.77 508.5,220.5C 507.931,217.665 506.264,215.999 503.5,215.5C 503.5,215.167 503.5,214.833 503.5,214.5C 504.531,213.751 505.698,213.085 507,212.5C 507.628,206.108 509.128,205.941 511.5,212C 512.448,212.483 513.448,212.649 514.5,212.5 Z"/></g>
<g><path style="opacity:0.843" fill="#3f3b42" d="M 491.5,199.5 C 491.5,199.833 491.5,200.167 491.5,200.5C 489.465,202.73 487.799,205.23 486.5,208C 486.833,208.5 487.167,209 487.5,209.5C 488.41,207.345 489.577,205.345 491,203.5C 491.048,205.544 490.548,207.544 489.5,209.5C 490.325,210.386 491.325,210.719 492.5,210.5C 490.466,211.125 488.466,211.459 486.5,211.5C 485.957,211.56 485.624,211.893 485.5,212.5C 488.42,214.222 490.253,216.555 491,219.5C 489.667,218.167 488.333,216.833 487,215.5C 487.97,219.3 490.47,221.633 494.5,222.5C 493.833,223.167 493.167,223.833 492.5,224.5C 480.91,216.677 480.576,208.344 491.5,199.5 Z"/></g>
<g><path style="opacity:0.98" fill="#232026" d="M 467.5,219.5 C 465.833,218.5 464.5,217.167 463.5,215.5C 462.322,212.783 461.322,212.45 460.5,214.5C 458.438,211.482 457.272,208.148 457,204.5C 460.745,209.398 464.245,214.398 467.5,219.5 Z"/></g>
<g><path style="opacity:0.769" fill="#bfbbc3" d="M 526.5,213.5 C 526.166,210.509 527.166,208.176 529.5,206.5C 530.043,206.56 530.376,206.893 530.5,207.5C 529.248,209.735 528.748,212.069 529,214.5C 531.146,211.874 532.479,208.874 533,205.5C 534.262,210.307 532.762,213.974 528.5,216.5C 527.824,215.398 527.158,214.398 526.5,213.5 Z"/></g>
<g><path style="opacity:0.592" fill="#969199" d="M 554.5,214.5 C 554.737,213.209 554.404,212.209 553.5,211.5C 553.5,210.5 553.5,209.5 553.5,208.5C 554.314,206.369 554.814,204.036 555,201.5C 555.814,206.02 555.647,210.354 554.5,214.5 Z"/></g>
<g><path style="opacity:0.165" fill="#cfcbd3" d="M 501.5,185.5 C 504.329,185.325 505.996,186.658 506.5,189.5C 507.262,188.372 507.929,187.205 508.5,186C 509.749,185.26 510.749,185.427 511.5,186.5C 509.452,188.456 508.452,190.956 508.5,194C 509.64,200.946 512.64,206.946 517.5,212C 516.552,212.483 515.552,212.649 514.5,212.5C 513.448,212.649 512.448,212.483 511.5,212C 509.128,205.941 507.628,206.108 507,212.5C 505.698,213.085 504.531,213.751 503.5,214.5C 502.876,214.083 502.543,213.416 502.5,212.5C 505.588,206.152 506.755,199.485 506,192.5C 504.948,189.781 503.448,187.448 501.5,185.5 Z"/></g>
<g><path style="opacity:0.898" fill="#3a363d" d="M 524.5,195.5 C 537.003,200.861 538.67,208.528 529.5,218.5C 528.791,217.596 527.791,217.263 526.5,217.5C 526.5,216.167 526.5,214.833 526.5,213.5C 527.158,214.398 527.824,215.398 528.5,216.5C 532.762,213.974 534.262,210.307 533,205.5C 532.479,208.874 531.146,211.874 529,214.5C 528.748,212.069 529.248,209.735 530.5,207.5C 530.376,206.893 530.043,206.56 529.5,206.5C 529.158,205.662 528.492,205.328 527.5,205.5C 528.374,202.769 527.374,200.602 524.5,199C 526.92,199.372 528.92,200.705 530.5,203C 531.167,203.667 531.833,203.667 532.5,203C 529.938,200.267 527.271,197.767 524.5,195.5 Z"/></g>
<g><path style="opacity:0.831" fill="#c8c3cb" d="M 492.5,210.5 C 491.325,210.719 490.325,210.386 489.5,209.5C 490.548,207.544 491.048,205.544 491,203.5C 489.577,205.345 488.41,207.345 487.5,209.5C 487.167,209 486.833,208.5 486.5,208C 487.799,205.23 489.465,202.73 491.5,200.5C 493.229,199.883 494.729,198.883 496,197.5C 496.167,197.833 496.333,198.167 496.5,198.5C 493.905,201.999 492.572,205.999 492.5,210.5 Z"/></g>
<g><path style="opacity:0.757" fill="#bcb8c0" d="M 524.5,195.5 C 527.271,197.767 529.938,200.267 532.5,203C 531.833,203.667 531.167,203.667 530.5,203C 528.92,200.705 526.92,199.372 524.5,199C 527.374,200.602 528.374,202.769 527.5,205.5C 524.831,202.823 522.498,199.823 520.5,196.5C 521.689,195.571 523.022,195.238 524.5,195.5 Z"/></g>
<g><path style="opacity:0.953" fill="#1a171c" d="M 557.5,200.5 C 555.821,200.715 554.821,200.048 554.5,198.5C 554.784,195.746 555.451,193.08 556.5,190.5C 557.487,193.768 557.82,197.102 557.5,200.5 Z"/></g>
<g><path style="opacity:0.955" fill="#232026" d="M 505.5,171.5 C 505.348,176.826 507.514,180.826 512,183.5C 512.167,183.167 512.333,182.833 512.5,182.5C 510.962,180.757 509.962,178.757 509.5,176.5C 509.328,175.508 509.662,174.842 510.5,174.5C 511.583,177.427 512.916,180.26 514.5,183C 514.022,184.303 513.355,185.469 512.5,186.5C 512.167,186.5 511.833,186.5 511.5,186.5C 510.749,185.427 509.749,185.26 508.5,186C 507.929,187.205 507.262,188.372 506.5,189.5C 505.996,186.658 504.329,185.325 501.5,185.5C 502.11,184.609 502.443,183.609 502.5,182.5C 503.038,180.883 503.371,179.216 503.5,177.5C 504.167,175.5 504.833,173.5 505.5,171.5 Z"/></g>
<g><path style="opacity:0.339" fill="#d5d0d8" d="M 503.5,177.5 C 503.371,179.216 503.038,180.883 502.5,182.5C 501.542,182.953 500.708,183.619 500,184.5C 499.956,181.525 500.123,178.525 500.5,175.5C 501.166,171.647 501.833,167.647 502.5,163.5C 503.493,168.12 503.827,172.786 503.5,177.5 Z"/></g>
<g><path style="opacity:0.592" fill="#cac5cd" d="M 509.5,176.5 C 509.962,178.757 510.962,180.757 512.5,182.5C 512.333,182.833 512.167,183.167 512,183.5C 507.514,180.826 505.348,176.826 505.5,171.5C 504.865,168.507 504.699,165.507 505,162.5C 506.522,167.286 508.022,171.952 509.5,176.5 Z"/></g>
<g><path style="opacity:0.937" fill="#504c54" d="M 502.5,147.5 C 501.521,150.625 501.187,153.958 501.5,157.5C 502.791,157.737 503.791,157.404 504.5,156.5C 506.792,162.303 508.792,168.303 510.5,174.5C 509.662,174.842 509.328,175.508 509.5,176.5C 508.022,171.952 506.522,167.286 505,162.5C 504.699,165.507 504.865,168.507 505.5,171.5C 504.833,173.5 504.167,175.5 503.5,177.5C 503.827,172.786 503.493,168.12 502.5,163.5C 501.833,167.647 501.166,171.647 500.5,175.5C 500.768,173.901 500.434,172.568 499.5,171.5C 500.04,163.169 500.707,154.835 501.5,146.5C 502.107,146.624 502.44,146.957 502.5,147.5 Z"/></g>
<g><path style="opacity:0.983" fill="#120e14" d="M 502.5,147.5 C 503.167,150.5 503.833,153.5 504.5,156.5C 503.791,157.404 502.791,157.737 501.5,157.5C 501.187,153.958 501.521,150.625 502.5,147.5 Z"/></g>
<g><path style="opacity:0.855" fill="#322e35" d="M 500.5,252.5 C 501.492,252.328 502.158,252.662 502.5,253.5C 488.572,255.474 475.906,260.474 464.5,268.5C 464.5,268.167 464.5,267.833 464.5,267.5C 469.63,263.763 474.964,260.263 480.5,257C 487.108,255.046 493.774,253.546 500.5,252.5 Z"/></g>
<g><path style="opacity:0.004" fill="#d9d5dd" d="M 499.5,258.5 C 495.444,261.626 490.777,262.959 485.5,262.5C 489.734,260.045 494.4,258.711 499.5,258.5 Z"/></g>
<g><path style="opacity:0.922" fill="#bfbcc3" d="M 502.5,253.5 C 503.492,253.328 504.158,253.662 504.5,254.5C 490.508,256.999 477.508,261.999 465.5,269.5C 464.893,269.376 464.56,269.043 464.5,268.5C 475.906,260.474 488.572,255.474 502.5,253.5 Z"/></g>
<g><path style="opacity:0.976" fill="#3a363e" d="M 465.5,273.5 C 470.975,275.283 476.641,275.949 482.5,275.5C 477.363,276.828 472.03,277.328 466.5,277C 465.663,275.989 465.33,274.822 465.5,273.5 Z"/></g>
<g><path style="opacity:0.992" fill="#1b181d" d="M 464.5,267.5 C 464.5,267.833 464.5,268.167 464.5,268.5C 463.957,268.56 463.624,268.893 463.5,269.5C 464.243,270.182 464.909,270.849 465.5,271.5C 465.5,272.167 465.5,272.833 465.5,273.5C 465.33,274.822 465.663,275.989 466.5,277C 472.03,277.328 477.363,276.828 482.5,275.5C 486.768,274.627 491.102,274.294 495.5,274.5C 496.833,274.5 497.5,275.167 497.5,276.5C 489.562,277.934 481.562,278.934 473.5,279.5C 470.833,279.333 468.167,279.167 465.5,279C 463.595,277.579 461.595,276.412 459.5,275.5C 458.761,271.254 460.427,268.587 464.5,267.5 Z"/></g>
<g><path style="opacity:0.996" fill="#141116" d="M 542.5,266.5 C 546.985,266.717 550.985,268.217 554.5,271C 562.086,279.068 564.419,288.568 561.5,299.5C 554.966,314.877 544.299,326.711 529.5,335C 508.015,347.439 485.015,355.606 460.5,359.5C 460.279,358.265 459.612,357.265 458.5,356.5C 458.624,355.893 458.957,355.56 459.5,355.5C 461.5,356.833 463.5,356.833 465.5,355.5C 474.799,354.453 483.465,351.787 491.5,347.5C 510.951,342.359 527.784,332.692 542,318.5C 550.6,308.443 554.434,296.777 553.5,283.5C 553.741,281.102 553.074,279.102 551.5,277.5C 549.485,273.318 546.151,270.818 541.5,270C 528.643,269.931 516.977,273.598 506.5,281C 501.965,285.703 497.298,290.203 492.5,294.5C 491.71,293.391 491.21,292.058 491,290.5C 489.462,291.849 487.629,292.516 485.5,292.5C 496.084,281.862 508.418,273.695 522.5,268C 529.136,267.048 535.803,266.548 542.5,266.5 Z"/></g>
<g><path style="opacity:0.98" fill="#1c1a1f" d="M 427.5,278.5 C 427.082,277.778 426.416,277.278 425.5,277C 423.167,276.833 420.833,276.667 418.5,276.5C 414.553,276.363 410.886,277.03 407.5,278.5C 396.837,281.985 388.671,288.652 383,298.5C 382.51,299.793 382.343,301.127 382.5,302.5C 377.817,326.287 386.817,343.12 409.5,353C 412.063,354.079 414.729,354.579 417.5,354.5C 419.838,356.04 422.505,356.706 425.5,356.5C 427.415,356.216 429.081,356.549 430.5,357.5C 428.143,357.337 425.81,357.503 423.5,358C 427.28,358.918 430.946,359.751 434.5,360.5C 428.391,360.623 422.391,359.956 416.5,358.5C 397.318,354.321 384.318,342.988 377.5,324.5C 377.377,317.471 377.71,310.471 378.5,303.5C 379.686,296.442 383.02,290.609 388.5,286C 407.795,270.694 428.128,269.36 449.5,282C 451.26,282.965 451.594,284.132 450.5,285.5C 443.465,281.152 435.798,278.819 427.5,278.5 Z"/></g>
<g><path style="opacity:0.749" fill="#6b666e" d="M 551.5,277.5 C 553.074,279.102 553.741,281.102 553.5,283.5C 552.833,282.5 552.167,281.5 551.5,280.5C 551.5,279.5 551.5,278.5 551.5,277.5 Z"/></g>
<g><path style="opacity:0.055" fill="#d1ccd5" d="M 427.5,278.5 C 435.798,278.819 443.465,281.152 450.5,285.5C 451.594,284.132 451.26,282.965 449.5,282C 428.128,269.36 407.795,270.694 388.5,286C 383.02,290.609 379.686,296.442 378.5,303.5C 376.993,307.391 376.326,311.558 376.5,316C 376.502,319.021 376.836,321.854 377.5,324.5C 384.318,342.988 397.318,354.321 416.5,358.5C 403.217,357.077 392.383,351.077 384,340.5C 375.533,330.145 372.866,318.478 376,305.5C 380.644,286.859 392.478,275.692 411.5,272C 425.5,270.2 438.5,272.866 450.5,280C 457.019,285.315 455.686,287.315 446.5,286C 440.318,282.901 433.984,280.401 427.5,278.5 Z"/></g>
<g><path style="opacity:0.902" fill="#8e8a92" d="M 427.5,278.5 C 422.167,278.5 416.833,278.5 411.5,278.5C 410.167,278.5 408.833,278.5 407.5,278.5C 410.886,277.03 414.553,276.363 418.5,276.5C 420.833,276.667 423.167,276.833 425.5,277C 426.416,277.278 427.082,277.778 427.5,278.5 Z"/></g>
<g><path style="opacity:0.039" fill="#c6c1ca" d="M 407.5,278.5 C 408.833,278.5 410.167,278.5 411.5,278.5C 404.649,280.928 398.316,284.428 392.5,289C 388.503,293.141 385.17,297.641 382.5,302.5C 382.343,301.127 382.51,299.793 383,298.5C 388.671,288.652 396.837,281.985 407.5,278.5 Z"/></g>
<g><path style="opacity:0.969" fill="#5c5760" d="M 378.5,303.5 C 377.71,310.471 377.377,317.471 377.5,324.5C 376.836,321.854 376.502,319.021 376.5,316C 376.326,311.558 376.993,307.391 378.5,303.5 Z"/></g>
<g><path style="opacity:0.231" fill="#c8c4cc" d="M 551.5,280.5 C 552.167,281.5 552.833,282.5 553.5,283.5C 554.434,296.777 550.6,308.443 542,318.5C 527.784,332.692 510.951,342.359 491.5,347.5C 509.409,340.793 525.576,331.127 540,318.5C 548.818,307.233 552.652,294.567 551.5,280.5 Z"/></g>
<g><path style="opacity:0.012" fill="#c6c1ca" d="M 551.5,277.5 C 551.5,278.5 551.5,279.5 551.5,280.5C 549.12,274.802 544.787,271.802 538.5,271.5C 526.889,272.09 516.555,275.924 507.5,283C 486.388,302.372 471.722,325.872 463.5,353.5C 473.11,352.645 482.444,350.645 491.5,347.5C 483.465,351.787 474.799,354.453 465.5,355.5C 464.167,355.5 462.833,355.5 461.5,355.5C 461.5,354.167 461.5,352.833 461.5,351.5C 468.997,330.831 479.33,311.831 492.5,294.5C 497.298,290.203 501.965,285.703 506.5,281C 516.977,273.598 528.643,269.931 541.5,270C 546.151,270.818 549.485,273.318 551.5,277.5 Z"/></g>
<g><path style="opacity:0.016" fill="#cfcad3" d="M 483.5,263.5 C 480.983,265.735 477.983,267.235 474.5,268C 472.792,270.043 470.792,271.71 468.5,273C 479.973,273.9 491.306,273.067 502.5,270.5C 503.293,270.931 504.127,271.265 505,271.5C 510.445,270.794 515.612,269.294 520.5,267C 524.491,266.358 528.491,265.858 532.5,265.5C 536.042,265.187 539.375,265.521 542.5,266.5C 535.803,266.548 529.136,267.048 522.5,268C 508.418,273.695 496.084,281.862 485.5,292.5C 479.199,298.97 473.033,305.637 467,312.5C 459.152,324.199 451.818,336.199 445,348.5C 443.91,351.939 442.744,355.273 441.5,358.5C 437.731,358.756 434.064,358.423 430.5,357.5C 429.081,356.549 427.415,356.216 425.5,356.5C 423.095,355.232 420.428,354.565 417.5,354.5C 414.729,354.579 412.063,354.079 409.5,353C 386.817,343.12 377.817,326.287 382.5,302.5C 379.73,318.355 384.063,331.855 395.5,343C 399.674,345.588 404.007,347.921 408.5,350C 413.99,350.782 419.324,352.116 424.5,354C 429.47,355.081 434.47,355.414 439.5,355C 451.567,331.164 466.567,309.497 484.5,290C 488.956,287.374 492.956,284.207 496.5,280.5C 495.562,279.447 494.395,278.78 493,278.5C 484.367,281.283 475.534,282.116 466.5,281C 463.226,280.214 460.892,278.381 459.5,275.5C 461.595,276.412 463.595,277.579 465.5,279C 468.167,279.167 470.833,279.333 473.5,279.5C 481.562,278.934 489.562,277.934 497.5,276.5C 499.696,276.435 501.696,275.768 503.5,274.5C 500.691,273.2 498.024,273.2 495.5,274.5C 491.102,274.294 486.768,274.627 482.5,275.5C 476.641,275.949 470.975,275.283 465.5,273.5C 465.5,272.833 465.5,272.167 465.5,271.5C 470.873,267.484 476.873,264.818 483.5,263.5 Z"/></g>
<g><path style="opacity:0.545" fill="#3a363e" d="M 495.5,274.5 C 498.024,273.2 500.691,273.2 503.5,274.5C 501.696,275.768 499.696,276.435 497.5,276.5C 497.5,275.167 496.833,274.5 495.5,274.5 Z"/></g>
<g><path style="opacity:0.933" fill="#807c84" d="M 417.5,354.5 C 420.428,354.565 423.095,355.232 425.5,356.5C 422.505,356.706 419.838,356.04 417.5,354.5 Z"/></g>
<g><path style="opacity:0.945" fill="#928d96" d="M 461.5,351.5 C 461.5,352.833 461.5,354.167 461.5,355.5C 462.833,355.5 464.167,355.5 465.5,355.5C 463.5,356.833 461.5,356.833 459.5,355.5C 459.989,354.005 460.655,352.671 461.5,351.5 Z"/></g>
<g><path style="opacity:0.996" fill="#08070a" d="M 492.5,294.5 C 479.33,311.831 468.997,330.831 461.5,351.5C 460.655,352.671 459.989,354.005 459.5,355.5C 458.957,355.56 458.624,355.893 458.5,356.5C 459.612,357.265 460.279,358.265 460.5,359.5C 459.178,359.33 458.011,359.663 457,360.5C 447.338,383.991 435.504,406.324 421.5,427.5C 419.946,426.307 418.279,425.14 416.5,424C 417.112,422.141 417.112,420.141 416.5,418C 416.675,416.342 417.342,415.009 418.5,414C 416.987,411.546 417.654,409.879 420.5,409C 419.941,408.275 419.608,407.442 419.5,406.5C 422.67,403.232 423.67,399.566 422.5,395.5C 427.097,385.971 431.43,376.305 435.5,366.5C 437.346,364.97 438.346,362.97 438.5,360.5C 437.167,360.5 435.833,360.5 434.5,360.5C 430.946,359.751 427.28,358.918 423.5,358C 425.81,357.503 428.143,357.337 430.5,357.5C 434.064,358.423 437.731,358.756 441.5,358.5C 442.744,355.273 443.91,351.939 445,348.5C 451.818,336.199 459.152,324.199 467,312.5C 473.033,305.637 479.199,298.97 485.5,292.5C 487.629,292.516 489.462,291.849 491,290.5C 491.21,292.058 491.71,293.391 492.5,294.5 Z"/></g>
<g><path style="opacity:0.043" fill="#d3cfd7" d="M 416.5,358.5 C 422.391,359.956 428.391,360.623 434.5,360.5C 435.833,360.5 437.167,360.5 438.5,360.5C 438.346,362.97 437.346,364.97 435.5,366.5C 435.67,365.178 435.337,364.011 434.5,363C 428.076,362.727 422.076,361.227 416.5,358.5 Z"/></g>
<g><path style="opacity:0.996" fill="#08060a" d="M 626.5,373.5 C 624.164,375.004 622.331,377.004 621,379.5C 612.504,395.162 603.504,410.496 594,425.5C 585.874,439.225 579.707,453.725 575.5,469C 574.727,473.629 576.394,476.796 580.5,478.5C 583.167,479.167 585.833,479.833 588.5,480.5C 588.082,481.222 587.416,481.722 586.5,482C 582.179,482.499 577.846,482.666 573.5,482.5C 568.536,481.429 565.37,478.429 564,473.5C 563.501,469.514 563.334,465.514 563.5,461.5C 564.482,457.837 565.816,454.171 567.5,450.5C 567.376,449.893 567.043,449.56 566.5,449.5C 565.646,448.368 565.646,447.035 566.5,445.5C 577.585,430.91 584.585,414.576 587.5,396.5C 588.434,395.432 588.768,394.099 588.5,392.5C 589.5,392.5 590.5,392.5 591.5,392.5C 591.34,390.801 591.506,389.134 592,387.5C 592.089,390.849 593.256,391.349 595.5,389C 594.346,388.086 594.513,387.253 596,386.5C 596.333,388.167 596.667,389.833 597,391.5C 597.991,390.061 599.324,389.061 601,388.5C 601.47,387.423 601.303,386.423 600.5,385.5C 602.03,380.942 603.697,376.442 605.5,372C 609,371.833 612.5,371.667 616,371.5C 619.902,371.512 623.402,372.179 626.5,373.5 Z"/></g>
<g><path style="opacity:0.018" fill="#d0cbd4" d="M 627.5,374.5 C 626.833,374.5 626.5,374.167 626.5,373.5C 623.402,372.179 619.902,371.512 616,371.5C 612.5,371.667 609,371.833 605.5,372C 603.697,376.442 602.03,380.942 600.5,385.5C 599.542,385.953 598.708,386.619 598,387.5C 594.312,375.305 586.146,368.972 573.5,368.5C 567.965,368.717 562.631,369.884 557.5,372C 549.811,375.541 542.811,380.041 536.5,385.5C 536.167,385.5 535.833,385.5 535.5,385.5C 548.733,371.226 565.067,365.393 584.5,368C 591.478,371.448 595.978,376.948 598,384.5C 599.933,379.022 602.433,373.855 605.5,369C 613.115,369.377 620.782,369.21 628.5,368.5C 628.675,370.621 628.341,372.621 627.5,374.5 Z"/></g>
<g><path style="opacity:0.996" fill="#141116" d="M 600.5,385.5 C 601.303,386.423 601.47,387.423 601,388.5C 599.324,389.061 597.991,390.061 597,391.5C 596.667,389.833 596.333,388.167 596,386.5C 594.513,387.253 594.346,388.086 595.5,389C 593.256,391.349 592.089,390.849 592,387.5C 591.506,389.134 591.34,390.801 591.5,392.5C 590.5,392.5 589.5,392.5 588.5,392.5C 588.768,394.099 588.434,395.432 587.5,396.5C 589.038,375.172 580.038,368.339 560.5,376C 553.01,381.326 546.343,387.492 540.5,394.5C 540.082,393.778 539.416,393.278 538.5,393C 539.975,390.691 541.642,388.524 543.5,386.5C 542.635,385.417 541.635,385.251 540.5,386C 539.123,388.869 537.123,389.702 534.5,388.5C 535.167,387.5 535.833,386.5 536.5,385.5C 542.811,380.041 549.811,375.541 557.5,372C 562.631,369.884 567.965,368.717 573.5,368.5C 586.146,368.972 594.312,375.305 598,387.5C 598.708,386.619 599.542,385.953 600.5,385.5 Z"/></g>
<g><path style="opacity:0.996" fill="#08060a" d="M 540.5,394.5 C 539.167,396.833 537.833,399.167 536.5,401.5C 535.11,402.899 534.11,404.566 533.5,406.5C 520.221,424.599 513.888,444.932 514.5,467.5C 514.286,469.144 514.62,470.644 515.5,472C 514.833,472.333 514.167,472.667 513.5,473C 515.394,474.775 517.061,476.775 518.5,479C 515.878,479.923 513.378,481.089 511,482.5C 510.085,481.672 509.419,480.672 509,479.5C 508.667,480.167 508.333,480.833 508,481.5C 506.301,480.594 504.467,480.261 502.5,480.5C 497.255,474.54 494.922,467.54 495.5,459.5C 495.682,450.065 497.682,441.065 501.5,432.5C 501.376,431.893 501.043,431.56 500.5,431.5C 500.5,430.5 500.5,429.5 500.5,428.5C 503.115,426.621 505.281,424.288 507,421.5C 513.854,408.488 523.02,397.488 534.5,388.5C 537.123,389.702 539.123,388.869 540.5,386C 541.635,385.251 542.635,385.417 543.5,386.5C 541.642,388.524 539.975,390.691 538.5,393C 539.416,393.278 540.082,393.778 540.5,394.5 Z"/></g>
<g><path style="opacity:0.004" fill="#cac5ce" d="M 626.5,373.5 C 626.5,374.167 626.833,374.5 627.5,374.5C 611.778,398.252 597.278,422.919 584,448.5C 580.829,455.012 578.663,461.845 577.5,469C 577.543,472.179 578.876,474.512 581.5,476C 584.558,476.458 587.558,476.124 590.5,475C 603.135,467.375 614.302,457.875 624,446.5C 628.523,440.131 633.523,434.131 639,428.5C 647.183,417.664 654.516,406.33 661,394.5C 662.87,392.781 665.037,391.781 667.5,391.5C 667.663,393.857 667.497,396.19 667,398.5C 660.305,407.539 653.972,416.872 648,426.5C 645.604,429.999 642.771,432.999 639.5,435.5C 648.508,422.472 657.175,409.138 665.5,395.5C 664.998,394.479 664.332,394.312 663.5,395C 645.95,424.766 623.95,450.766 597.5,473C 592.349,476.583 586.682,478.417 580.5,478.5C 576.394,476.796 574.727,473.629 575.5,469C 579.707,453.725 585.874,439.225 594,425.5C 603.504,410.496 612.504,395.162 621,379.5C 622.331,377.004 624.164,375.004 626.5,373.5 Z"/></g>
<g><path style="opacity:0.231" fill="#7c787f" d="M 536.5,401.5 C 536.5,402.5 536.5,403.5 536.5,404.5C 535.5,405.167 534.5,405.833 533.5,406.5C 534.11,404.566 535.11,402.899 536.5,401.5 Z"/></g>
<g><path style="opacity:0.918" fill="#1c1a1f" d="M 639.5,435.5 C 633.939,441.608 628.606,447.941 623.5,454.5C 618.833,458.5 614.5,462.833 610.5,467.5C 606.226,470.648 601.892,473.815 597.5,477C 594.673,478.664 591.673,479.83 588.5,480.5C 585.833,479.833 583.167,479.167 580.5,478.5C 586.682,478.417 592.349,476.583 597.5,473C 623.95,450.766 645.95,424.766 663.5,395C 664.332,394.312 664.998,394.479 665.5,395.5C 657.175,409.138 648.508,422.472 639.5,435.5 Z"/></g>
<g><path style="opacity:0.012" fill="#cdc9d1" d="M 587.5,396.5 C 584.585,414.576 577.585,430.91 566.5,445.5C 558.937,455.894 549.603,464.394 538.5,471C 533.916,472.794 529.249,474.294 524.5,475.5C 522.701,475.423 521.034,474.923 519.5,474C 517.934,471.674 516.268,469.508 514.5,467.5C 513.888,444.932 520.221,424.599 533.5,406.5C 534.5,405.833 535.5,405.167 536.5,404.5C 536.5,403.5 536.5,402.5 536.5,401.5C 537.833,399.167 539.167,396.833 540.5,394.5C 546.343,387.492 553.01,381.326 560.5,376C 580.038,368.339 589.038,375.172 587.5,396.5 Z M 536.5,404.5 C 543.785,391.513 554.118,381.68 567.5,375C 575.497,372.36 580.997,374.86 584,382.5C 584.784,386.05 585.617,389.55 586.5,393C 583.782,412.597 576.282,430.097 564,445.5C 554.05,458.972 541.216,468.305 525.5,473.5C 521.621,472.456 518.788,470.123 517,466.5C 515.814,452.571 518.148,439.237 524,426.5C 527.417,418.656 531.584,411.323 536.5,404.5 Z"/></g>
<g><path style="opacity:0.02" fill="#cec9d2" d="M 639.5,435.5 C 635.581,443.081 630.248,449.414 623.5,454.5C 628.606,447.941 633.939,441.608 639.5,435.5 Z"/></g>
<g><path style="opacity:0.918" fill="#18151a" d="M 500.5,428.5 C 500.5,429.5 500.5,430.5 500.5,431.5C 496.103,435.892 492.103,440.558 488.5,445.5C 488.5,446.167 488.167,446.5 487.5,446.5C 471.795,464.71 455.129,482.21 437.5,499C 440.159,498.84 442.826,498.34 445.5,497.5C 451.529,497.425 457.529,497.759 463.5,498.5C 463.5,499.5 463.5,500.5 463.5,501.5C 460.5,501.5 457.5,501.5 454.5,501.5C 442.967,501.099 432.634,504.432 423.5,511.5C 423.04,508.043 421.04,506.377 417.5,506.5C 417.703,504.61 417.037,503.11 415.5,502C 416.167,501.333 416.833,500.667 417.5,500C 416.55,497.568 416.55,495.068 417.5,492.5C 419.027,496.213 420.027,500.213 420.5,504.5C 425.998,501.585 431.332,498.419 436.5,495C 457.982,473.018 479.315,450.851 500.5,428.5 Z"/></g>
<g><path style="opacity:0.553" fill="#a09ca4" d="M 566.5,449.5 C 567.043,449.56 567.376,449.893 567.5,450.5C 565.816,454.171 564.482,457.837 563.5,461.5C 563.795,459.265 563.461,457.265 562.5,455.5C 563.833,453.5 565.167,451.5 566.5,449.5 Z"/></g>
<g><path style="opacity:0.024" fill="#cec9d2" d="M 500.5,431.5 C 501.043,431.56 501.376,431.893 501.5,432.5C 497.682,441.065 495.682,450.065 495.5,459.5C 494.922,467.54 497.255,474.54 502.5,480.5C 503.894,482.708 505.894,484.208 508.5,485C 514.442,486.035 520.108,485.368 525.5,483C 540.046,476.736 552.379,467.569 562.5,455.5C 563.461,457.265 563.795,459.265 563.5,461.5C 563.334,465.514 563.501,469.514 564,473.5C 565.37,478.429 568.536,481.429 573.5,482.5C 576.625,483.479 579.958,483.813 583.5,483.5C 577.806,484.968 572.139,484.468 566.5,482C 563.858,479.424 562.358,476.257 562,472.5C 561.82,468.076 561.653,463.743 561.5,459.5C 550.725,470.431 538.392,479.265 524.5,486C 509.126,490.277 499.293,484.777 495,469.5C 494.755,460.348 494.588,451.515 494.5,443C 494.167,442.5 493.833,442 493.5,441.5C 492.395,443.611 490.729,444.945 488.5,445.5C 492.103,440.558 496.103,435.892 500.5,431.5 Z"/></g>
<g><path style="opacity:0.004" fill="#d7d3db" d="M 623.5,454.5 C 620.167,459.833 615.833,464.167 610.5,467.5C 614.5,462.833 618.833,458.5 623.5,454.5 Z"/></g>
<g><path style="opacity:0.996" fill="#0a090b" d="M 362.5,477.5 C 343.99,486.59 324.324,490.756 303.5,490C 302.424,488.274 302.257,486.441 303,484.5C 306.916,479.451 312.083,476.284 318.5,475C 324.729,473.321 331.062,472.487 337.5,472.5C 344.369,471.526 350.869,471.526 357,472.5C 357.5,473.667 358.333,474.5 359.5,475C 359.167,475.333 358.833,475.667 358.5,476C 360.058,476.21 361.391,476.71 362.5,477.5 Z"/></g>
<g><path style="opacity:0.996" fill="#110e13" d="M 422.5,395.5 C 423.67,399.566 422.67,403.232 419.5,406.5C 419.608,407.442 419.941,408.275 420.5,409C 417.654,409.879 416.987,411.546 418.5,414C 417.342,415.009 416.675,416.342 416.5,418C 417.112,420.141 417.112,422.141 416.5,424C 418.279,425.14 419.946,426.307 421.5,427.5C 409.467,444.2 395.133,458.533 378.5,470.5C 384.961,470.945 390.961,472.612 396.5,475.5C 394.659,476.673 392.826,476.673 391,475.5C 388.513,476.812 387.013,478.812 386.5,481.5C 382.168,479.89 377.834,478.39 373.5,477C 369.779,476.322 366.112,476.489 362.5,477.5C 361.391,476.71 360.058,476.21 358.5,476C 358.833,475.667 359.167,475.333 359.5,475C 358.333,474.5 357.5,473.667 357,472.5C 350.869,471.526 344.369,471.526 337.5,472.5C 339.292,471.691 341.292,471.191 343.5,471C 351.833,470.667 360.167,470.333 368.5,470C 381.287,462.213 391.787,452.046 400,439.5C 407.999,424.938 415.499,410.271 422.5,395.5 Z"/></g>
<g><path style="opacity:0.11" fill="#cac6ce" d="M 561.5,299.5 C 561.5,300.167 561.5,300.833 561.5,301.5C 558.968,308.896 555.135,315.562 550,321.5C 529.225,339.302 505.725,351.302 479.5,357.5C 472.664,358.709 465.997,360.542 459.5,363C 452.012,376.142 445.179,389.642 439,403.5C 425.047,427.22 407.88,448.386 387.5,467C 386.167,467.667 384.833,468.333 383.5,469C 391.088,470.306 398.422,472.64 405.5,476C 413.473,481.79 419.14,489.29 422.5,498.5C 424.961,499.307 427.294,498.807 429.5,497C 436.961,491.207 444.128,485.041 451,478.5C 467.995,459.838 485.329,441.505 503,423.5C 509.266,413.303 516.266,403.636 524,394.5C 527.709,391.285 531.542,388.285 535.5,385.5C 535.833,385.5 536.167,385.5 536.5,385.5C 535.833,386.5 535.167,387.5 534.5,388.5C 523.02,397.488 513.854,408.488 507,421.5C 505.281,424.288 503.115,426.621 500.5,428.5C 479.315,450.851 457.982,473.018 436.5,495C 431.332,498.419 425.998,501.585 420.5,504.5C 420.027,500.213 419.027,496.213 417.5,492.5C 413.126,483.448 406.126,477.781 396.5,475.5C 390.961,472.612 384.961,470.945 378.5,470.5C 395.133,458.533 409.467,444.2 421.5,427.5C 435.504,406.324 447.338,383.991 457,360.5C 458.011,359.663 459.178,359.33 460.5,359.5C 485.015,355.606 508.015,347.439 529.5,335C 544.299,326.711 554.966,314.877 561.5,299.5 Z"/></g>
<g><path style="opacity:0.063" fill="#bebac2" d="M 610.5,467.5 C 603.782,476.533 594.782,481.866 583.5,483.5C 579.958,483.813 576.625,483.479 573.5,482.5C 577.846,482.666 582.179,482.499 586.5,482C 587.416,481.722 588.082,481.222 588.5,480.5C 591.673,479.83 594.673,478.664 597.5,477C 601.892,473.815 606.226,470.648 610.5,467.5 Z"/></g>
<g><path style="opacity:0.993" fill="#121015" d="M 566.5,445.5 C 565.646,447.035 565.646,448.368 566.5,449.5C 565.167,451.5 563.833,453.5 562.5,455.5C 552.379,467.569 540.046,476.736 525.5,483C 520.108,485.368 514.442,486.035 508.5,485C 505.894,484.208 503.894,482.708 502.5,480.5C 504.467,480.261 506.301,480.594 508,481.5C 508.333,480.833 508.667,480.167 509,479.5C 509.419,480.672 510.085,481.672 511,482.5C 513.378,481.089 515.878,479.923 518.5,479C 517.061,476.775 515.394,474.775 513.5,473C 514.167,472.667 514.833,472.333 515.5,472C 514.62,470.644 514.286,469.144 514.5,467.5C 516.268,469.508 517.934,471.674 519.5,474C 521.034,474.923 522.701,475.423 524.5,475.5C 529.249,474.294 533.916,472.794 538.5,471C 549.603,464.394 558.937,455.894 566.5,445.5 Z"/></g>
<g><path style="opacity:0.992" fill="#363239" d="M 454.5,501.5 C 457.5,501.5 460.5,501.5 463.5,501.5C 463.5,500.5 463.5,499.5 463.5,498.5C 457.529,497.759 451.529,497.425 445.5,497.5C 453.33,496.565 461.33,495.899 469.5,495.5C 468.72,498.101 467.054,500.101 464.5,501.5C 461.02,502.806 457.687,502.806 454.5,501.5 Z"/></g>
<g><path style="opacity:0.018" fill="#d2cdd6" d="M 435.5,366.5 C 431.43,376.305 427.097,385.971 422.5,395.5C 415.499,410.271 407.999,424.938 400,439.5C 391.787,452.046 381.287,462.213 368.5,470C 360.167,470.333 351.833,470.667 343.5,471C 341.292,471.191 339.292,471.691 337.5,472.5C 331.062,472.487 324.729,473.321 318.5,475C 312.083,476.284 306.916,479.451 303,484.5C 302.257,486.441 302.424,488.274 303.5,490C 324.324,490.756 343.99,486.59 362.5,477.5C 366.112,476.489 369.779,476.322 373.5,477C 377.834,478.39 382.168,479.89 386.5,481.5C 391.235,483.972 395.402,487.306 399,491.5C 401.006,494.536 401.84,497.869 401.5,501.5C 360.725,504.711 321.559,514.378 284,530.5C 277.725,534.051 271.559,537.718 265.5,541.5C 263.616,538.76 262.282,535.594 261.5,532C 256.013,529.815 250.68,530.149 245.5,533C 244.789,534.255 243.956,535.421 243,536.5C 241.479,532.627 239.479,528.96 237,525.5C 234,522.833 231,522.833 228,525.5C 222.54,533.492 222.04,541.825 226.5,550.5C 225.504,550.586 224.671,550.252 224,549.5C 220.227,540.513 220.727,531.846 225.5,523.5C 228.618,521.607 231.951,520.274 235.5,519.5C 238.657,523.126 241.823,526.793 245,530.5C 245.5,530 246,529.5 246.5,529C 251.833,528.333 257.167,528.333 262.5,529C 264.81,531.575 265.643,534.409 265,537.5C 280.609,529.947 296.443,522.781 312.5,516C 322.884,513.539 333.218,510.872 343.5,508C 361.803,504.855 380.136,501.855 398.5,499C 398.957,498.586 399.291,498.086 399.5,497.5C 392.14,484.36 380.807,478.193 365.5,479C 347.605,486.687 328.938,491.187 309.5,492.5C 306.402,492.869 303.402,492.036 300.5,490C 299.446,488.612 299.28,487.112 300,485.5C 303.837,478.68 309.671,474.513 317.5,473C 334.676,469.689 352.01,467.689 369.5,467C 383.12,458.049 393.954,446.549 402,432.5C 412.774,411.389 423.107,390.056 433,368.5C 433.708,367.619 434.542,366.953 435.5,366.5 Z"/></g>
<g><path style="opacity:0.017" fill="#c9c5cd" d="M 487.5,446.5 C 481.904,453.94 476.071,461.273 470,468.5C 461.625,476.708 453.458,485.041 445.5,493.5C 452.248,494.801 458.915,494.468 465.5,492.5C 473.478,495.775 473.478,499.275 465.5,503C 460.313,503.637 455.146,503.471 450,502.5C 443.056,503.481 436.556,505.648 430.5,509C 423.212,514.272 415.878,519.606 408.5,525C 405.397,529.107 401.897,532.94 398,536.5C 382.114,559.597 368.281,583.931 356.5,609.5C 357.5,609.833 358.5,610.167 359.5,610.5C 371.474,609.075 383.474,607.908 395.5,607C 408.368,585.123 423.202,564.623 440,545.5C 455.674,527.817 474.174,513.984 495.5,504C 507.057,499.297 519.057,496.963 531.5,497C 536.994,497.826 541.828,499.993 546,503.5C 551.213,513.942 548.046,518.776 536.5,518C 531.454,516.286 527.621,513.12 525,508.5C 517.183,507.33 509.683,508.497 502.5,512C 485.502,519.31 471.002,530.144 459,544.5C 422.368,590.793 400.868,643.46 394.5,702.5C 394.86,706.273 395.693,709.939 397,713.5C 399.579,715.347 402.412,715.847 405.5,715C 419.596,704.24 432.429,692.073 444,678.5C 458.972,654.051 473.805,629.551 488.5,605C 495.267,604.277 501.934,603.777 508.5,603.5C 509.902,603.865 510.902,604.699 511.5,606C 509.819,609.863 507.986,613.697 506,617.5C 496.086,631.661 486.419,645.994 477,660.5C 469.495,672.172 462.495,684.172 456,696.5C 454.63,700.275 453.464,704.109 452.5,708C 452.585,709.107 452.919,710.107 453.5,711C 455.278,711.704 457.112,712.204 459,712.5C 468.623,709.105 477.456,704.272 485.5,698C 494.99,690.176 504.157,682.009 513,673.5C 525.653,652.199 538.32,630.866 551,609.5C 551.536,605.81 553.036,602.644 555.5,600C 562.242,598.593 568.908,598.593 575.5,600C 576.791,601.292 576.791,602.458 575.5,603.5C 572.572,602.18 569.239,601.514 565.5,601.5C 561.761,601.514 558.428,602.18 555.5,603.5C 552.874,610.086 549.707,616.419 546,622.5C 535.497,638.835 525.497,655.502 516,672.5C 513.665,675.665 511.165,678.665 508.5,681.5C 500.393,687.764 492.393,694.264 484.5,701C 477.473,705.896 470.139,710.063 462.5,713.5C 459.555,714.468 456.555,714.634 453.5,714C 452.695,712.887 452.028,711.721 451.5,710.5C 451.111,704.39 452.445,698.724 455.5,693.5C 457.406,689.078 459.572,684.744 462,680.5C 478.347,656.465 494.18,632.132 509.5,607.5C 502.61,606.189 495.777,606.189 489,607.5C 473.835,632.495 458.669,657.495 443.5,682.5C 435.005,690.162 427.005,698.329 419.5,707C 416.167,709.667 412.833,712.333 409.5,715C 405.909,717.805 401.909,718.805 397.5,718C 396.837,716.482 395.837,715.315 394.5,714.5C 392.792,696.206 394.458,678.206 399.5,660.5C 401.072,657.785 402.072,654.785 402.5,651.5C 407.682,630.453 415.515,610.453 426,591.5C 434.878,575.962 444.545,560.962 455,546.5C 468.519,528.629 485.686,515.796 506.5,508C 513.11,506.559 519.776,506.226 526.5,507C 529.07,509.067 531.07,511.567 532.5,514.5C 536.442,515.6 540.442,515.767 544.5,515C 547.561,510.431 546.894,506.431 542.5,503C 534.857,499.625 526.857,498.625 518.5,500C 504.772,501.867 492.105,506.534 480.5,514C 445.43,538.558 418.097,569.724 398.5,607.5C 397.596,608.209 397.263,609.209 397.5,610.5C 382.807,610.834 368.14,611.501 353.5,612.5C 364.724,586.052 378.557,561.052 395,537.5C 403.147,527.179 412.647,518.512 423.5,511.5C 432.634,504.432 442.967,501.099 454.5,501.5C 457.687,502.806 461.02,502.806 464.5,501.5C 467.054,500.101 468.72,498.101 469.5,495.5C 461.33,495.899 453.33,496.565 445.5,497.5C 442.826,498.34 440.159,498.84 437.5,499C 455.129,482.21 471.795,464.71 487.5,446.5 Z"/></g>
<g><path style="opacity:0.075" fill="#c5c0c9" d="M 392.5,507.5 C 393.833,507.5 395.167,507.5 396.5,507.5C 364.499,513.004 333.832,522.837 304.5,537C 294.202,542.731 284.702,549.565 276,557.5C 269.643,565.544 265.476,574.544 263.5,584.5C 262.521,587.625 262.187,590.958 262.5,594.5C 261.527,592.052 261.194,589.385 261.5,586.5C 263.48,572.191 269.813,560.191 280.5,550.5C 294.27,539.945 309.27,531.445 325.5,525C 347.044,516.197 369.377,510.364 392.5,507.5 Z"/></g>
<g><path style="opacity:0.945" fill="#ada8b1" d="M 265.5,541.5 C 265.5,541.833 265.5,542.167 265.5,542.5C 255.914,549.364 247.914,557.698 241.5,567.5C 235.822,562.51 230.822,556.843 226.5,550.5C 222.04,541.825 222.54,533.492 228,525.5C 231,522.833 234,522.833 237,525.5C 239.479,528.96 241.479,532.627 243,536.5C 243.956,535.421 244.789,534.255 245.5,533C 250.68,530.149 256.013,529.815 261.5,532C 262.282,535.594 263.616,538.76 265.5,541.5 Z M 251.5,536.5 C 253.429,536.231 255.095,536.731 256.5,538C 251.947,542.989 247.78,548.155 244,553.5C 242.558,552.788 241.725,551.621 241.5,550C 243.137,544.203 246.47,539.703 251.5,536.5 Z M 231.5,529.5 C 233.99,530.108 235.324,531.775 235.5,534.5C 234.897,538.554 234.064,542.554 233,546.5C 232.017,542.286 230.85,538.119 229.5,534C 230.044,532.415 230.711,530.915 231.5,529.5 Z M 236.5,551.5 C 239.428,552.637 239.762,553.97 237.5,555.5C 235.358,554.563 235.024,553.23 236.5,551.5 Z M 239.5,557.5 C 240.077,556.227 240.743,556.227 241.5,557.5C 241.03,558.463 240.363,558.463 239.5,557.5 Z"/></g>
<g><path style="opacity:0.996" fill="#0b090d" d="M 396.5,475.5 C 406.126,477.781 413.126,483.448 417.5,492.5C 416.55,495.068 416.55,497.568 417.5,500C 416.833,500.667 416.167,501.333 415.5,502C 417.037,503.11 417.703,504.61 417.5,506.5C 421.04,506.377 423.04,508.043 423.5,511.5C 412.647,518.512 403.147,527.179 395,537.5C 378.557,561.052 364.724,586.052 353.5,612.5C 368.14,611.501 382.807,610.834 397.5,610.5C 397.263,609.209 397.596,608.209 398.5,607.5C 398.5,608.833 398.5,610.167 398.5,611.5C 397.209,611.263 396.209,611.596 395.5,612.5C 392.941,612.198 390.607,612.532 388.5,613.5C 375.439,614.003 362.439,615.17 349.5,617C 342.467,631.567 335.3,646.067 328,660.5C 315.899,680.437 301.065,698.104 283.5,713.5C 279.591,716.621 275.257,718.955 270.5,720.5C 267.086,719.932 265.753,718.266 266.5,715.5C 275.008,706.873 282.841,697.54 290,687.5C 303.403,665.196 315.903,642.363 327.5,619C 325.19,618.503 322.857,618.337 320.5,618.5C 320.5,617.167 320.5,615.833 320.5,614.5C 323.518,614.665 326.518,614.498 329.5,614C 337.019,599.127 345.186,584.627 354,570.5C 370.387,548.444 389.22,528.61 410.5,511C 408.428,510.964 406.428,511.464 404.5,512.5C 402.692,511.082 402.025,509.082 402.5,506.5C 398.958,506.187 395.625,506.521 392.5,507.5C 369.377,510.364 347.044,516.197 325.5,525C 309.27,531.445 294.27,539.945 280.5,550.5C 279.683,548.692 280.35,547.192 282.5,546C 280.333,545.167 278.833,543.667 278,541.5C 275.132,542.007 272.298,543.34 269.5,545.5C 269.089,544.738 268.923,543.738 269,542.5C 267.855,543.684 266.688,543.684 265.5,542.5C 265.5,542.167 265.5,541.833 265.5,541.5C 271.559,537.718 277.725,534.051 284,530.5C 321.559,514.378 360.725,504.711 401.5,501.5C 401.84,497.869 401.006,494.536 399,491.5C 395.402,487.306 391.235,483.972 386.5,481.5C 387.013,478.812 388.513,476.812 391,475.5C 392.826,476.673 394.659,476.673 396.5,475.5 Z"/></g>
<g><path style="opacity:0.792" fill="#49464c" d="M 392.5,507.5 C 395.625,506.521 398.958,506.187 402.5,506.5C 402.025,509.082 402.692,511.082 404.5,512.5C 403.739,513.391 402.739,514.058 401.5,514.5C 400.294,512.516 400.294,510.516 401.5,508.5C 400.311,507.571 398.978,507.238 397.5,507.5C 397.167,507.5 396.833,507.5 396.5,507.5C 395.167,507.5 393.833,507.5 392.5,507.5 Z"/></g>
<g><path style="opacity:0.996" fill="#070609" d="M 280.5,550.5 C 269.813,560.191 263.48,572.191 261.5,586.5C 260.764,589.695 260.097,593.029 259.5,596.5C 260.025,597.192 260.692,597.692 261.5,598C 259.003,600.26 259.67,601.593 263.5,602C 263.043,602.414 262.709,602.914 262.5,603.5C 263.605,604.892 264.939,606.059 266.5,607C 265.346,607.914 265.513,608.747 267,609.5C 267.671,608.748 268.504,608.414 269.5,608.5C 269.539,609.583 269.873,610.583 270.5,611.5C 274.293,612.648 277.793,614.315 281,616.5C 281.945,616.095 282.612,615.428 283,614.5C 289.257,616.481 294.923,615.481 300,611.5C 300.875,613.513 302.209,613.513 304,611.5C 304.791,612.745 305.291,614.078 305.5,615.5C 296.994,619.891 287.994,622.891 278.5,624.5C 273.13,624.608 267.797,624.275 262.5,623.5C 242.112,616.93 233.612,602.93 237,581.5C 238.802,576.905 240.302,572.238 241.5,567.5C 247.914,557.698 255.914,549.364 265.5,542.5C 266.688,543.684 267.855,543.684 269,542.5C 268.923,543.738 269.089,544.738 269.5,545.5C 272.298,543.34 275.132,542.007 278,541.5C 278.833,543.667 280.333,545.167 282.5,546C 280.35,547.192 279.683,548.692 280.5,550.5 Z"/></g>
<g><path style="opacity:0.016" fill="#d0ccd4" d="M 805.5,615.5 C 804.596,614.791 804.263,613.791 804.5,612.5C 806.302,602.426 802.302,596.093 792.5,593.5C 786.756,592.117 781.09,592.45 775.5,594.5C 769.436,596.694 763.436,599.194 757.5,602C 733.548,619.446 716.214,641.946 705.5,669.5C 698.043,678.459 690.043,686.959 681.5,695C 674.289,701.436 666.289,706.602 657.5,710.5C 647.608,711.436 644.108,707.103 647,697.5C 647.513,696.473 648.013,695.473 648.5,694.5C 649.167,694.167 649.833,693.833 650.5,693.5C 650.089,696.553 649.423,699.553 648.5,702.5C 648.977,703.931 649.643,705.264 650.5,706.5C 657.056,708.417 663.056,707.25 668.5,703C 680.966,692.868 692.466,681.701 703,669.5C 711.755,649.635 723.255,631.635 737.5,615.5C 750.366,602.567 765.699,594.067 783.5,590C 789.75,584.92 791.083,578.753 787.5,571.5C 782.996,568.157 779.329,563.99 776.5,559C 774.003,554.256 774.003,549.589 776.5,545C 783.903,542.797 790.903,543.63 797.5,547.5C 799.909,543.584 802.909,540.084 806.5,537C 815.156,532.494 820.489,534.994 822.5,544.5C 820.668,553.809 816.834,562.142 811,569.5C 805.44,576.382 799.94,583.216 794.5,590C 805.506,595.498 809.173,603.998 805.5,615.5 Z M 810.5,542.5 C 813.261,541.915 814.927,542.915 815.5,545.5C 812.189,556.884 806.356,566.884 798,575.5C 792.692,568.025 787.192,560.692 781.5,553.5C 784.161,549.784 787.161,549.617 790.5,553C 791.662,555.816 792.829,558.65 794,561.5C 795.333,562.167 796.667,562.833 798,563.5C 800.713,558.705 803.046,553.705 805,548.5C 807.068,546.604 808.901,544.604 810.5,542.5 Z"/></g>
<g><path style="opacity:0.052" fill="#dedae2" d="M 230.5,527.5 C 233.263,527.744 235.429,529.077 237,531.5C 238,536.5 239,541.5 240,546.5C 242.04,542.356 244.874,538.856 248.5,536C 251.702,534.517 255.036,534.183 258.5,535C 259.022,535.561 259.355,536.228 259.5,537C 257.873,539.764 256.54,542.597 255.5,545.5C 254.448,545.351 253.448,545.517 252.5,546C 252.833,546.333 253.167,546.667 253.5,547C 249.638,553.016 245.138,558.516 240,563.5C 234.654,557.469 230.32,550.803 227,543.5C 225.622,537.451 226.788,532.118 230.5,527.5 Z M 251.5,536.5 C 246.47,539.703 243.137,544.203 241.5,550C 241.725,551.621 242.558,552.788 244,553.5C 247.78,548.155 251.947,542.989 256.5,538C 255.095,536.731 253.429,536.231 251.5,536.5 Z M 231.5,529.5 C 230.711,530.915 230.044,532.415 229.5,534C 230.85,538.119 232.017,542.286 233,546.5C 234.064,542.554 234.897,538.554 235.5,534.5C 235.324,531.775 233.99,530.108 231.5,529.5 Z M 236.5,551.5 C 235.024,553.23 235.358,554.563 237.5,555.5C 239.762,553.97 239.428,552.637 236.5,551.5 Z M 239.5,557.5 C 240.363,558.463 241.03,558.463 241.5,557.5C 240.743,556.227 240.077,556.227 239.5,557.5 Z"/></g>
<g><path style="opacity:0.036" fill="#ccc7d0" d="M 324.5,599.5 C 330.535,588.108 332.035,576.108 329,563.5C 327.767,560.703 326.267,558.037 324.5,555.5C 324.167,556 323.833,556.5 323.5,557C 331.605,581.009 324.271,598.676 301.5,610C 290.303,615.066 279.637,614.566 269.5,608.5C 265.582,604.664 263.249,599.998 262.5,594.5C 262.187,590.958 262.521,587.625 263.5,584.5C 263.037,604.537 272.703,613.037 292.5,610C 316.519,604.245 327.186,589.245 324.5,565C 322.869,561.227 321.536,557.394 320.5,553.5C 321.93,553.579 323.264,553.246 324.5,552.5C 329.791,559.143 332.458,566.81 332.5,575.5C 331.732,581.174 330.899,586.84 330,592.5C 328.609,595.336 326.776,597.669 324.5,599.5 Z"/></g>
<g><path style="opacity:0.984" fill="#201d22" d="M 809.5,536.5 C 814.772,535.549 818.272,537.549 820,542.5C 820.198,546.596 819.531,550.596 818,554.5C 811.191,566.809 802.691,577.809 792.5,587.5C 792.491,583.67 792.325,579.67 792,575.5C 788.045,569.877 783.712,564.543 779,559.5C 774.163,550.019 776.997,545.519 787.5,546C 791.767,547.296 795.1,549.796 797.5,553.5C 798.996,550.509 800.496,547.509 802,544.5C 804.705,541.964 807.205,539.297 809.5,536.5 Z M 810.5,542.5 C 808.901,544.604 807.068,546.604 805,548.5C 803.046,553.705 800.713,558.705 798,563.5C 796.667,562.833 795.333,562.167 794,561.5C 792.829,558.65 791.662,555.816 790.5,553C 787.161,549.617 784.161,549.784 781.5,553.5C 787.192,560.692 792.692,568.025 798,575.5C 806.356,566.884 812.189,556.884 815.5,545.5C 814.927,542.915 813.261,541.915 810.5,542.5 Z"/></g>
<g><path style="opacity:0.063" fill="#d0ccd4" d="M 523.5,544.5 C 534.799,546.757 538.633,553.423 535,564.5C 528.559,571.952 521.892,572.285 515,565.5C 510.638,555.56 513.471,548.56 523.5,544.5 Z"/></g>
<g><path style="opacity:0.996" fill="#0e0c10" d="M 519.5,547.5 C 530.49,545.992 535.324,550.658 534,561.5C 529.717,569.013 524.051,570.346 517,565.5C 513.091,558.765 513.924,552.765 519.5,547.5 Z"/></g>
<g><path style="opacity:0.204" fill="#d3cfd7" d="M 810.5,539.5 C 813.325,539.081 815.491,540.081 817,542.5C 817.652,545.594 817.318,548.594 816,551.5C 811.073,562.351 804.406,572.018 796,580.5C 795.124,576.659 793.791,572.993 792,569.5C 787.251,565.422 783.251,560.755 780,555.5C 779.188,548.999 782.021,546.832 788.5,549C 790.333,550.833 792.167,552.667 794,554.5C 794.727,557.155 795.894,559.488 797.5,561.5C 799.741,553.031 804.074,545.698 810.5,539.5 Z M 810.5,542.5 C 808.901,544.604 807.068,546.604 805,548.5C 803.046,553.705 800.713,558.705 798,563.5C 796.667,562.833 795.333,562.167 794,561.5C 792.829,558.65 791.662,555.816 790.5,553C 787.161,549.617 784.161,549.784 781.5,553.5C 787.192,560.692 792.692,568.025 798,575.5C 806.356,566.884 812.189,556.884 815.5,545.5C 814.927,542.915 813.261,541.915 810.5,542.5 Z"/></g>
<g><path style="opacity:0.996" fill="#08060a" d="M 402.5,651.5 C 400.528,654.084 399.528,657.084 399.5,660.5C 394.458,678.206 392.792,696.206 394.5,714.5C 394.414,715.496 394.748,716.329 395.5,717C 394.833,717.333 394.167,717.667 393.5,718C 398.393,719.726 399.059,722.059 395.5,725C 396.252,725.671 396.586,726.504 396.5,727.5C 392.027,729.866 387.361,730.033 382.5,728C 379.882,725.261 377.382,722.427 375,719.5C 371.04,706.045 370.373,692.378 373,678.5C 375.082,667.825 377.916,657.492 381.5,647.5C 382.924,645.485 383.59,643.152 383.5,640.5C 386.635,631.568 390.302,622.901 394.5,614.5C 395.338,614.158 395.672,613.492 395.5,612.5C 396.209,611.596 397.209,611.263 398.5,611.5C 398.5,610.167 398.5,608.833 398.5,607.5C 418.097,569.724 445.43,538.558 480.5,514C 492.105,506.534 504.772,501.867 518.5,500C 526.857,498.625 534.857,499.625 542.5,503C 546.894,506.431 547.561,510.431 544.5,515C 540.442,515.767 536.442,515.6 532.5,514.5C 531.07,511.567 529.07,509.067 526.5,507C 519.776,506.226 513.11,506.559 506.5,508C 485.686,515.796 468.519,528.629 455,546.5C 444.545,560.962 434.878,575.962 426,591.5C 415.515,610.453 407.682,630.453 402.5,651.5 Z"/></g>
<g><path style="opacity:0.992" fill="#454148" d="M 792.5,593.5 C 786.828,593.76 781.161,594.093 775.5,594.5C 781.09,592.45 786.756,592.117 792.5,593.5 Z"/></g>
<g><path style="opacity:0.996" fill="#0a080b" d="M 792.5,593.5 C 802.302,596.093 806.302,602.426 804.5,612.5C 802.472,616.703 799.805,620.536 796.5,624C 790.174,628.831 783.508,633.165 776.5,637C 768.908,639.796 761.575,643.13 754.5,647C 746.875,649.489 739.208,651.823 731.5,654C 728.81,659.594 726.81,665.428 725.5,671.5C 725.5,671.833 725.5,672.167 725.5,672.5C 724.732,673.263 724.232,674.263 724,675.5C 723.501,679.821 723.334,684.154 723.5,688.5C 724.511,692.199 724.511,695.866 723.5,699.5C 724.167,700.167 724.833,700.833 725.5,701.5C 724.273,702.59 723.44,703.924 723,705.5C 722.511,703.396 721.345,703.062 719.5,704.5C 716.38,704.193 713.88,702.859 712,700.5C 711.617,701.056 711.117,701.389 710.5,701.5C 707.556,698.514 705.889,694.847 705.5,690.5C 705.901,683.028 705.901,676.028 705.5,669.5C 716.214,641.946 733.548,619.446 757.5,602C 763.436,599.194 769.436,596.694 775.5,594.5C 781.161,594.093 786.828,593.76 792.5,593.5 Z M 777.5,598.5 C 785.759,597.864 788.926,601.53 787,609.5C 776.861,630.465 760.361,642.465 737.5,645.5C 745.985,629.497 756.652,614.997 769.5,602C 772.158,600.522 774.825,599.355 777.5,598.5 Z"/></g>
<g><path style="opacity:0.114" fill="#cac5ce" d="M 776.5,596.5 C 786.482,595.982 790.649,600.648 789,610.5C 783.056,624.11 773.389,634.11 760,640.5C 751.726,644.224 743.226,647.224 734.5,649.5C 742.107,631.15 753.107,614.983 767.5,601C 770.324,598.921 773.324,597.421 776.5,596.5 Z M 777.5,598.5 C 774.825,599.355 772.158,600.522 769.5,602C 756.652,614.997 745.985,629.497 737.5,645.5C 760.361,642.465 776.861,630.465 787,609.5C 788.926,601.53 785.759,597.864 777.5,598.5 Z"/></g>
<g><path style="opacity:0.996" fill="#232026" d="M 261.5,586.5 C 261.194,589.385 261.527,592.052 262.5,594.5C 263.249,599.998 265.582,604.664 269.5,608.5C 268.504,608.414 267.671,608.748 267,609.5C 265.513,608.747 265.346,607.914 266.5,607C 264.939,606.059 263.605,604.892 262.5,603.5C 262.709,602.914 263.043,602.414 263.5,602C 259.67,601.593 259.003,600.26 261.5,598C 260.692,597.692 260.025,597.192 259.5,596.5C 260.097,593.029 260.764,589.695 261.5,586.5 Z"/></g>
<g><path style="opacity:0.971" fill="#171419" d="M 672.5,597.5 C 677.193,597.54 681.859,597.873 686.5,598.5C 694.23,603.275 696.897,609.941 694.5,618.5C 694.89,614.606 694.223,610.94 692.5,607.5C 690.167,606.5 688.5,604.833 687.5,602.5C 685.241,602.784 683.574,603.784 682.5,605.5C 679.007,601.706 674.674,600.539 669.5,602C 661.523,605.655 654.189,610.322 647.5,616C 629.702,633.512 613.702,652.345 599.5,672.5C 599.5,670.833 599.5,669.167 599.5,667.5C 600.5,667.5 601.5,667.5 602.5,667.5C 602.678,664.784 603.178,662.117 604,659.5C 606.44,656.272 608.606,652.939 610.5,649.5C 610.393,651.379 610.893,651.712 612,650.5C 616.357,643.777 621.19,637.444 626.5,631.5C 637.134,618.372 649.8,607.539 664.5,599C 667.117,598.178 669.784,597.678 672.5,597.5 Z"/></g>
<g><path style="opacity:0.89" fill="#98949c" d="M 575.5,603.5 C 575.167,603.5 574.833,603.5 574.5,603.5C 568.266,602.193 561.932,602.193 555.5,603.5C 558.428,602.18 561.761,601.514 565.5,601.5C 569.239,601.514 572.572,602.18 575.5,603.5 Z"/></g>
<g><path style="opacity:0.996" fill="#09060b" d="M 574.5,603.5 C 566.101,615.025 558.435,627.025 551.5,639.5C 548.084,643.323 545.418,647.657 543.5,652.5C 541.841,653.834 540.508,655.501 539.5,657.5C 539.243,660.477 538.243,663.144 536.5,665.5C 537.127,666.417 537.461,667.417 537.5,668.5C 530.981,678.87 524.981,689.537 519.5,700.5C 517.755,702.033 516.755,704.033 516.5,706.5C 515.203,708.371 514.203,710.371 513.5,712.5C 509.445,712.824 505.445,712.491 501.5,711.5C 498.972,710.184 498.972,709.017 501.5,708C 501.167,707.667 500.833,707.333 500.5,707C 501.713,704.313 502.38,701.48 502.5,698.5C 502.66,696.847 503.326,695.514 504.5,694.5C 506.612,693.56 508.612,692.394 510.5,691C 509.833,690.667 509.167,690.333 508.5,690C 512.063,687.247 512.063,684.414 508.5,681.5C 511.165,678.665 513.665,675.665 516,672.5C 525.497,655.502 535.497,638.835 546,622.5C 549.707,616.419 552.874,610.086 555.5,603.5C 561.932,602.193 568.266,602.193 574.5,603.5 Z"/></g>
<g><path style="opacity:0.995" fill="#110e13" d="M 324.5,599.5 C 321.188,602.146 318.188,605.146 315.5,608.5C 312.149,610.859 308.815,613.192 305.5,615.5C 305.291,614.078 304.791,612.745 304,611.5C 302.209,613.513 300.875,613.513 300,611.5C 294.923,615.481 289.257,616.481 283,614.5C 282.612,615.428 281.945,616.095 281,616.5C 277.793,614.315 274.293,612.648 270.5,611.5C 269.873,610.583 269.539,609.583 269.5,608.5C 279.637,614.566 290.303,615.066 301.5,610C 324.271,598.676 331.605,581.009 323.5,557C 323.833,556.5 324.167,556 324.5,555.5C 326.267,558.037 327.767,560.703 329,563.5C 332.035,576.108 330.535,588.108 324.5,599.5 Z"/></g>
<g><path style="opacity:0.996" fill="#09070b" d="M 694.5,618.5 C 694.5,619.167 694.5,619.833 694.5,620.5C 690.279,628.603 685.779,636.603 681,644.5C 672.333,656.5 663.667,668.5 655,680.5C 652.532,685.099 650.365,689.766 648.5,694.5C 648.013,695.473 647.513,696.473 647,697.5C 644.108,707.103 647.608,711.436 657.5,710.5C 658.11,711.391 658.443,712.391 658.5,713.5C 658.167,713.5 657.833,713.5 657.5,713.5C 652.786,713.647 648.119,713.314 643.5,712.5C 640.572,711.409 638.406,709.409 637,706.5C 634.799,699.992 634.132,693.325 635,686.5C 638.806,677.554 643.139,668.888 648,660.5C 656.667,649.167 665.333,637.833 674,626.5C 676.921,621.659 679.588,616.659 682,611.5C 682.495,609.527 682.662,607.527 682.5,605.5C 683.574,603.784 685.241,602.784 687.5,602.5C 688.5,604.833 690.167,606.5 692.5,607.5C 694.223,610.94 694.89,614.606 694.5,618.5 Z"/></g>
<g><path style="opacity:0.996" fill="#0b080c" d="M 455.5,693.5 C 453.896,694.287 453.229,695.62 453.5,697.5C 452.448,697.351 451.448,697.517 450.5,698C 450.412,702.234 450.745,706.401 451.5,710.5C 452.028,711.721 452.695,712.887 453.5,714C 456.555,714.634 459.555,714.468 462.5,713.5C 465.248,713.402 465.914,714.402 464.5,716.5C 461.888,717.371 459.221,718.037 456.5,718.5C 453.5,718.5 450.5,718.5 447.5,718.5C 444.189,717.189 441.855,714.855 440.5,711.5C 439.705,707.215 439.372,702.881 439.5,698.5C 440.54,694.958 441.874,691.625 443.5,688.5C 444.742,686.611 444.742,684.611 443.5,682.5C 458.669,657.495 473.835,632.495 489,607.5C 495.777,606.189 502.61,606.189 509.5,607.5C 494.18,632.132 478.347,656.465 462,680.5C 459.572,684.744 457.406,689.078 455.5,693.5 Z"/></g>
<g><path style="opacity:0.009" fill="#d2cdd6" d="M 226.5,550.5 C 230.822,556.843 235.822,562.51 241.5,567.5C 240.302,572.238 238.802,576.905 237,581.5C 233.612,602.93 242.112,616.93 262.5,623.5C 265.356,625.006 268.523,625.672 272,625.5C 274.361,625.496 276.527,625.163 278.5,624.5C 287.994,622.891 296.994,619.891 305.5,615.5C 308.815,613.192 312.149,610.859 315.5,608.5C 318.188,605.146 321.188,602.146 324.5,599.5C 324.108,601.179 323.608,602.846 323,604.5C 307.78,618.644 289.613,626.311 268.5,627.5C 237.544,619.424 227.544,600.258 238.5,570C 233.847,563.853 229.847,557.353 226.5,550.5 Z"/></g>
<g><path style="opacity:0.063" fill="#cbc7cf" d="M 682.5,605.5 C 682.662,607.527 682.495,609.527 682,611.5C 679.588,616.659 676.921,621.659 674,626.5C 665.333,637.833 656.667,649.167 648,660.5C 643.139,668.888 638.806,677.554 635,686.5C 634.132,693.325 634.799,699.992 637,706.5C 638.406,709.409 640.572,711.409 643.5,712.5C 645.807,714.047 648.473,714.713 651.5,714.5C 653.696,714.495 655.696,714.162 657.5,713.5C 657.833,713.5 658.167,713.5 658.5,713.5C 664.889,711.138 670.889,707.971 676.5,704C 686.333,695.5 695.5,686.333 704,676.5C 704.174,681.351 704.674,686.018 705.5,690.5C 705.889,694.847 707.556,698.514 710.5,701.5C 710.369,702.239 710.536,702.906 711,703.5C 713.775,706.78 716.942,709.446 720.5,711.5C 713.403,709.578 708.237,705.245 705,698.5C 703.742,692.878 702.742,687.211 702,681.5C 693.868,690.529 685.035,699.029 675.5,707C 671.127,710.186 666.46,712.853 661.5,715C 639.632,718.8 630.132,709.633 633,687.5C 640.719,667.715 651.719,650.049 666,634.5C 670.333,627.833 674.667,621.167 679,614.5C 682.379,604.545 678.879,601.045 668.5,604C 664.172,605.829 660.172,608.162 656.5,611C 644.333,620.5 633.5,631.333 624,643.5C 615.588,655.31 606.921,666.977 598,678.5C 591.882,689.57 586.715,701.07 582.5,713C 575.607,712.491 568.773,712.658 562,713.5C 560.56,712.07 560.226,710.403 561,708.5C 574.809,677.213 591.476,647.546 611,619.5C 614.389,614.436 614.222,609.603 610.5,605C 604.936,605.07 599.603,606.404 594.5,609C 586.548,614.229 579.048,620.063 572,626.5C 548.453,653.079 529.286,682.579 514.5,715C 507.833,715.667 501.167,715.667 494.5,715C 493.692,714.692 493.025,714.192 492.5,713.5C 495.031,708.271 497.698,703.104 500.5,698C 499.968,695.98 498.635,695.147 496.5,695.5C 499.904,691.95 503.571,688.617 507.5,685.5C 507.833,685.667 508.167,685.833 508.5,686C 507.061,688.833 505.728,691.666 504.5,694.5C 503.326,695.514 502.66,696.847 502.5,698.5C 500.317,703.56 497.983,708.56 495.5,713.5C 501.69,713.823 507.69,713.49 513.5,712.5C 514.203,710.371 515.203,708.371 516.5,706.5C 518.245,704.967 519.245,702.967 519.5,700.5C 524.981,689.537 530.981,678.87 537.5,668.5C 551.097,647.395 567.431,628.562 586.5,612C 591.981,608.266 597.647,605.099 603.5,602.5C 613.234,601.729 617.067,606.063 615,615.5C 603.917,634.001 592.584,652.334 581,670.5C 575.738,680.69 570.738,691.024 566,701.5C 564.85,704.768 564.016,708.101 563.5,711.5C 569.5,711.5 575.5,711.5 581.5,711.5C 586.181,697.81 592.181,684.81 599.5,672.5C 613.702,652.345 629.702,633.512 647.5,616C 654.189,610.322 661.523,605.655 669.5,602C 674.674,600.539 679.007,601.706 682.5,605.5 Z M 624.5,630.5 C 625.09,629.234 625.59,627.901 626,626.5C 626.844,628.463 626.344,629.796 624.5,630.5 Z M 500.5,693.5 C 503.001,693.511 503.168,694.178 501,695.5C 500.536,694.906 500.369,694.239 500.5,693.5 Z"/></g>
<g><path style="opacity:0.318" fill="#6a666d" d="M 388.5,613.5 C 390.607,612.532 392.941,612.198 395.5,612.5C 395.672,613.492 395.338,614.158 394.5,614.5C 392.735,613.539 390.735,613.205 388.5,613.5 Z"/></g>
<g><path style="opacity:0.021" fill="#d0ccd4" d="M 695.5,620.5 C 695.167,620.5 694.833,620.5 694.5,620.5C 694.5,619.833 694.5,619.167 694.5,618.5C 696.897,609.941 694.23,603.275 686.5,598.5C 681.928,596.442 677.262,596.109 672.5,597.5C 669.784,597.678 667.117,598.178 664.5,599C 649.8,607.539 637.134,618.372 626.5,631.5C 625.508,631.672 624.842,631.338 624.5,630.5C 623.596,629.791 623.263,628.791 623.5,627.5C 627.578,619.325 627.411,611.325 623,603.5C 620.517,600.511 617.35,599.178 613.5,599.5C 602.883,598.081 593.216,600.914 584.5,608C 572.59,618.074 561.924,629.241 552.5,641.5C 551.662,641.158 551.328,640.492 551.5,639.5C 558.435,627.025 566.101,615.025 574.5,603.5C 574.833,603.5 575.167,603.5 575.5,603.5C 575.649,604.552 575.483,605.552 575,606.5C 572.695,610.304 570.195,613.97 567.5,617.5C 567.808,618.308 568.308,618.975 569,619.5C 578.127,610.033 588.627,602.533 600.5,597C 622.137,593.803 631.137,602.97 627.5,624.5C 628.552,624.649 629.552,624.483 630.5,624C 640.846,611.981 653.179,602.647 667.5,596C 684.557,590.844 694.557,596.844 697.5,614C 697.198,616.4 696.532,618.566 695.5,620.5 Z M 565.5,619.5 C 566.776,620.386 566.776,621.386 565.5,622.5C 564.438,621.575 564.438,620.575 565.5,619.5 Z M 624.5,630.5 C 626.344,629.796 626.844,628.463 626,626.5C 625.59,627.901 625.09,629.234 624.5,630.5 Z"/></g>
<g><path style="opacity:0.851" fill="#8e8a92" d="M 672.5,597.5 C 677.262,596.109 681.928,596.442 686.5,598.5C 681.859,597.873 677.193,597.54 672.5,597.5 Z"/></g>
<g><path style="opacity:0.31" fill="#9a979e" d="M 262.5,623.5 C 267.797,624.275 273.13,624.608 278.5,624.5C 276.527,625.163 274.361,625.496 272,625.5C 268.523,625.672 265.356,625.006 262.5,623.5 Z"/></g>
<g><path style="opacity:0.161" fill="#aeaab1" d="M 623.5,627.5 C 623.263,628.791 623.596,629.791 624.5,630.5C 624.842,631.338 625.508,631.672 626.5,631.5C 621.19,637.444 616.357,643.777 612,650.5C 610.893,651.712 610.393,651.379 610.5,649.5C 614.901,642.124 619.234,634.791 623.5,627.5 Z"/></g>
<g><path style="opacity:0.996" fill="#0a080c" d="M 613.5,599.5 C 617.35,599.178 620.517,600.511 623,603.5C 627.411,611.325 627.578,619.325 623.5,627.5C 619.234,634.791 614.901,642.124 610.5,649.5C 608.606,652.939 606.44,656.272 604,659.5C 603.178,662.117 602.678,664.784 602.5,667.5C 601.5,667.5 600.5,667.5 599.5,667.5C 599.5,669.167 599.5,670.833 599.5,672.5C 592.181,684.81 586.181,697.81 581.5,711.5C 575.5,711.5 569.5,711.5 563.5,711.5C 564.016,708.101 564.85,704.768 566,701.5C 570.738,691.024 575.738,680.69 581,670.5C 592.584,652.334 603.917,634.001 615,615.5C 617.067,606.063 613.234,601.729 603.5,602.5C 602.668,601.671 603.001,600.838 604.5,600C 607.482,599.502 610.482,599.335 613.5,599.5 Z"/></g>
<g><path style="opacity:0.843" fill="#18151a" d="M 613.5,599.5 C 610.482,599.335 607.482,599.502 604.5,600C 603.001,600.838 602.668,601.671 603.5,602.5C 597.647,605.099 591.981,608.266 586.5,612C 567.431,628.562 551.097,647.395 537.5,668.5C 537.461,667.417 537.127,666.417 536.5,665.5C 538.243,663.144 539.243,660.477 539.5,657.5C 540.508,655.501 541.841,653.834 543.5,652.5C 543.81,653.738 544.31,653.738 545,652.5C 547.51,648.805 550.01,645.138 552.5,641.5C 561.924,629.241 572.59,618.074 584.5,608C 593.216,600.914 602.883,598.081 613.5,599.5 Z"/></g>
<g><path style="opacity:0.984" fill="#504c53" d="M 383.5,640.5 C 383.59,643.152 382.924,645.485 381.5,647.5C 381.41,644.848 382.076,642.515 383.5,640.5 Z"/></g>
<g><path style="opacity:0.004" fill="#c6c1ca" d="M 804.5,612.5 C 804.263,613.791 804.596,614.791 805.5,615.5C 803.112,619.756 800.112,623.59 796.5,627C 776.451,639.52 755.118,649.353 732.5,656.5C 730.222,661.334 728.555,666.334 727.5,671.5C 726.833,671.5 726.167,671.5 725.5,671.5C 726.81,665.428 728.81,659.594 731.5,654C 739.208,651.823 746.875,649.489 754.5,647C 761.575,643.13 768.908,639.796 776.5,637C 783.508,633.165 790.174,628.831 796.5,624C 799.805,620.536 802.472,616.703 804.5,612.5 Z"/></g>
<g><path style="opacity:0.812" fill="#78747b" d="M 551.5,639.5 C 551.328,640.492 551.662,641.158 552.5,641.5C 550.01,645.138 547.51,648.805 545,652.5C 544.31,653.738 543.81,653.738 543.5,652.5C 545.418,647.657 548.084,643.323 551.5,639.5 Z"/></g>
<g><path style="opacity:0.931" fill="#232026" d="M 750.5,708.5 C 749.294,707.12 749.627,705.953 751.5,705C 750.207,704.51 748.873,704.343 747.5,704.5C 761.859,699.983 774.859,692.816 786.5,683C 807.582,665.785 825.915,646.118 841.5,624C 842.332,623.312 842.998,623.479 843.5,624.5C 825.85,650.654 804.517,673.487 779.5,693C 770.415,699.21 760.748,704.377 750.5,708.5 Z"/></g>
<g><path style="opacity:0.839" fill="#68636b" d="M 402.5,651.5 C 402.072,654.785 401.072,657.785 399.5,660.5C 399.528,657.084 400.528,654.084 402.5,651.5 Z"/></g>
<g><path style="opacity:0.039" fill="#d0ccd5" d="M 721.5,711.5 C 731.389,712.191 741.056,711.191 750.5,708.5C 760.748,704.377 770.415,699.21 779.5,693C 804.517,673.487 825.85,650.654 843.5,624.5C 842.998,623.479 842.332,623.312 841.5,624C 825.915,646.118 807.582,665.785 786.5,683C 774.859,692.816 761.859,699.983 747.5,704.5C 733.552,708.351 725.886,703.018 724.5,688.5C 724.392,683.13 724.725,677.797 725.5,672.5C 725.5,672.167 725.5,671.833 725.5,671.5C 726.167,671.5 726.833,671.5 727.5,671.5C 725.814,677.031 725.314,682.697 726,688.5C 726.363,698.196 731.363,703.196 741,703.5C 746.818,702.982 752.318,701.482 757.5,699C 762.373,696.064 767.373,693.397 772.5,691C 797.415,672.752 818.915,651.252 837,626.5C 837.93,624.064 839.097,621.731 840.5,619.5C 842.833,618.167 845.167,618.167 847.5,619.5C 847.931,620.293 848.265,621.127 848.5,622C 828.583,651.584 804.25,676.917 775.5,698C 762.623,706.683 748.457,712.183 733,714.5C 728.865,714.18 725.032,713.18 721.5,711.5 Z"/></g>
<g><path style="opacity:0.039" fill="#c3bec7" d="M 694.5,620.5 C 694.833,620.5 695.167,620.5 695.5,620.5C 695.657,621.873 695.49,623.207 695,624.5C 686.177,640.316 676.177,655.316 665,669.5C 659.477,677.166 654.643,685.166 650.5,693.5C 649.833,693.833 649.167,694.167 648.5,694.5C 650.365,689.766 652.532,685.099 655,680.5C 663.667,668.5 672.333,656.5 681,644.5C 685.779,636.603 690.279,628.603 694.5,620.5 Z"/></g>
<g><path style="opacity:0.812" fill="#6c6870" d="M 725.5,672.5 C 724.725,677.797 724.392,683.13 724.5,688.5C 724.167,688.5 723.833,688.5 723.5,688.5C 723.334,684.154 723.501,679.821 724,675.5C 724.232,674.263 724.732,673.263 725.5,672.5 Z"/></g>
<g><path style="opacity:0.053" fill="#cecad3" d="M 397.5,507.5 C 398.978,507.238 400.311,507.571 401.5,508.5C 400.294,510.516 400.294,512.516 401.5,514.5C 402.739,514.058 403.739,513.391 404.5,512.5C 406.428,511.464 408.428,510.964 410.5,511C 389.22,528.61 370.387,548.444 354,570.5C 345.186,584.627 337.019,599.127 329.5,614C 326.518,614.498 323.518,614.665 320.5,614.5C 320.5,615.833 320.5,617.167 320.5,618.5C 322.857,618.337 325.19,618.503 327.5,619C 315.903,642.363 303.403,665.196 290,687.5C 282.841,697.54 275.008,706.873 266.5,715.5C 259.112,721.864 250.779,726.697 241.5,730C 233.197,731.68 225.53,730.347 218.5,726C 217.023,724.188 215.69,722.355 214.5,720.5C 214.201,718.396 214.534,716.396 215.5,714.5C 222.521,710.646 224.354,704.98 221,697.5C 213.855,690.794 206.855,691.127 200,698.5C 193.109,711.628 195.942,721.961 208.5,729.5C 213.162,733.004 218.495,734.671 224.5,734.5C 224.5,734.833 224.5,735.167 224.5,735.5C 211.555,735.7 201.722,730.367 195,719.5C 191.114,703.786 196.78,693.786 212,689.5C 221.795,692.077 225.795,698.41 224,708.5C 222.436,712.788 219.603,715.955 215.5,718C 217.587,722.422 220.92,725.422 225.5,727C 232.234,727.829 238.901,727.496 245.5,726C 255.178,721.492 263.845,715.492 271.5,708C 278.048,700.454 284.215,692.621 290,684.5C 302.189,664.474 313.356,643.807 323.5,622.5C 322.472,620.639 320.972,619.305 319,618.5C 318.333,616.833 318.333,615.167 319,613.5C 322.667,612.5 326.333,611.5 330,610.5C 342.11,583.265 358.443,558.932 379,537.5C 386.252,530.983 393.086,524.15 399.5,517C 397.244,514.818 397.244,512.485 399.5,510C 398.944,508.989 398.278,508.156 397.5,507.5 Z"/></g>
<g><path style="opacity:0.996" fill="#09060b" d="M 214.5,720.5 C 214.244,722.792 214.577,724.959 215.5,727C 213.35,728.411 211.016,729.245 208.5,729.5C 195.942,721.961 193.109,711.628 200,698.5C 206.855,691.127 213.855,690.794 221,697.5C 224.354,704.98 222.521,710.646 215.5,714.5C 214.534,716.396 214.201,718.396 214.5,720.5 Z"/></g>
<g><path style="opacity:0.992" fill="#1d1a20" d="M 705.5,669.5 C 705.901,676.028 705.901,683.028 705.5,690.5C 704.674,686.018 704.174,681.351 704,676.5C 695.5,686.333 686.333,695.5 676.5,704C 670.889,707.971 664.889,711.138 658.5,713.5C 658.443,712.391 658.11,711.391 657.5,710.5C 666.289,706.602 674.289,701.436 681.5,695C 690.043,686.959 698.043,678.459 705.5,669.5 Z"/></g>
<g><path style="opacity:0.992" fill="#46424a" d="M 455.5,693.5 C 452.445,698.724 451.111,704.39 451.5,710.5C 450.745,706.401 450.412,702.234 450.5,698C 451.448,697.517 452.448,697.351 453.5,697.5C 453.229,695.62 453.896,694.287 455.5,693.5 Z"/></g>
<g><path style="opacity:0.843" fill="#706c73" d="M 438.5,698.5 C 438.833,698.5 439.167,698.5 439.5,698.5C 439.372,702.881 439.705,707.215 440.5,711.5C 439.778,711.082 439.278,710.416 439,709.5C 438.502,706.183 438.335,702.85 438.5,699.5C 438.5,699.167 438.5,698.833 438.5,698.5 Z"/></g>
<g><path style="opacity:0.057" fill="#cbc7cf" d="M 496.5,695.5 C 486.455,707.951 473.622,716.284 458,720.5C 457.235,720.43 456.735,720.097 456.5,719.5C 456.5,719.167 456.5,718.833 456.5,718.5C 459.221,718.037 461.888,717.371 464.5,716.5C 470.573,713.628 476.573,710.462 482.5,707C 487.06,702.931 491.726,699.098 496.5,695.5 Z"/></g>
<g><path style="opacity:0.965" fill="#18161b" d="M 443.5,682.5 C 444.742,684.611 444.742,686.611 443.5,688.5C 443.649,687.448 443.483,686.448 443,685.5C 432.535,698.299 421.035,710.133 408.5,721C 404.606,723.446 400.606,725.612 396.5,727.5C 396.586,726.504 396.252,725.671 395.5,725C 399.059,722.059 398.393,719.726 393.5,718C 394.167,717.667 394.833,717.333 395.5,717C 394.748,716.329 394.414,715.496 394.5,714.5C 395.837,715.315 396.837,716.482 397.5,718C 401.909,718.805 405.909,717.805 409.5,715C 412.833,712.333 416.167,709.667 419.5,707C 427.005,698.329 435.005,690.162 443.5,682.5 Z"/></g>
<g><path style="opacity:0.651" fill="#757178" d="M 519.5,700.5 C 519.245,702.967 518.245,704.967 516.5,706.5C 516.755,704.033 517.755,702.033 519.5,700.5 Z"/></g>
<g><path style="opacity:0.959" fill="#1c191e" d="M 508.5,681.5 C 512.063,684.414 512.063,687.247 508.5,690C 509.167,690.333 509.833,690.667 510.5,691C 508.612,692.394 506.612,693.56 504.5,694.5C 505.728,691.666 507.061,688.833 508.5,686C 508.167,685.833 507.833,685.667 507.5,685.5C 503.571,688.617 499.904,691.95 496.5,695.5C 491.726,699.098 487.06,702.931 482.5,707C 476.573,710.462 470.573,713.628 464.5,716.5C 465.914,714.402 465.248,713.402 462.5,713.5C 470.139,710.063 477.473,705.896 484.5,701C 492.393,694.264 500.393,687.764 508.5,681.5 Z"/></g>
<g><path style="opacity:0.996" fill="#120f15" d="M 723.5,688.5 C 723.833,688.5 724.167,688.5 724.5,688.5C 725.886,703.018 733.552,708.351 747.5,704.5C 748.873,704.343 750.207,704.51 751.5,705C 749.627,705.953 749.294,707.12 750.5,708.5C 741.056,711.191 731.389,712.191 721.5,711.5C 721.167,711.5 720.833,711.5 720.5,711.5C 716.942,709.446 713.775,706.78 711,703.5C 710.536,702.906 710.369,702.239 710.5,701.5C 711.117,701.389 711.617,701.056 712,700.5C 713.88,702.859 716.38,704.193 719.5,704.5C 721.345,703.062 722.511,703.396 723,705.5C 723.44,703.924 724.273,702.59 725.5,701.5C 724.833,700.833 724.167,700.167 723.5,699.5C 724.511,695.866 724.511,692.199 723.5,688.5 Z"/></g>
<g><path style="opacity:0.992" fill="#232027" d="M 502.5,698.5 C 502.38,701.48 501.713,704.313 500.5,707C 500.833,707.333 501.167,707.667 501.5,708C 498.972,709.017 498.972,710.184 501.5,711.5C 505.445,712.491 509.445,712.824 513.5,712.5C 507.69,713.49 501.69,713.823 495.5,713.5C 497.983,708.56 500.317,703.56 502.5,698.5 Z"/></g>
<g><path style="opacity:0.965" fill="#68646b" d="M 643.5,712.5 C 648.119,713.314 652.786,713.647 657.5,713.5C 655.696,714.162 653.696,714.495 651.5,714.5C 648.473,714.713 645.807,714.047 643.5,712.5 Z"/></g>
<g><path style="opacity:0.039" fill="#c8c4cc" d="M 388.5,613.5 C 390.735,613.205 392.735,613.539 394.5,614.5C 390.302,622.901 386.635,631.568 383.5,640.5C 382.076,642.515 381.41,644.848 381.5,647.5C 377.916,657.492 375.082,667.825 373,678.5C 370.373,692.378 371.04,706.045 375,719.5C 377.382,722.427 379.882,725.261 382.5,728C 387.361,730.033 392.027,729.866 396.5,727.5C 400.606,725.612 404.606,723.446 408.5,721C 421.035,710.133 432.535,698.299 443,685.5C 443.483,686.448 443.649,687.448 443.5,688.5C 441.874,691.625 440.54,694.958 439.5,698.5C 439.167,698.5 438.833,698.5 438.5,698.5C 438.539,697.244 438.039,696.244 437,695.5C 425.981,709.523 412.815,721.023 397.5,730C 385.194,733.764 376.694,729.598 372,717.5C 370.63,708.262 369.797,699.429 369.5,691C 372.808,665.431 380.141,641.098 391.5,618C 390.833,617.333 390.167,616.667 389.5,616C 376.158,615.294 363.158,616.794 350.5,620.5C 342.858,636.45 334.692,652.117 326,667.5C 316.284,681.603 305.617,694.936 294,707.5C 279.725,719.891 263.558,729.058 245.5,735C 242.518,735.498 239.518,735.665 236.5,735.5C 236.5,735.167 236.5,734.833 236.5,734.5C 248.979,732.348 260.312,727.681 270.5,720.5C 275.257,718.955 279.591,716.621 283.5,713.5C 301.065,698.104 315.899,680.437 328,660.5C 335.3,646.067 342.467,631.567 349.5,617C 362.439,615.17 375.439,614.003 388.5,613.5 Z"/></g>
<g><path style="opacity:0.063" fill="#d0ccd4" d="M 438.5,699.5 C 438.335,702.85 438.502,706.183 439,709.5C 439.278,710.416 439.778,711.082 440.5,711.5C 441.855,714.855 444.189,717.189 447.5,718.5C 447.5,718.833 447.5,719.167 447.5,719.5C 444.215,719.731 441.715,718.397 440,715.5C 438.25,711.504 437.083,707.337 436.5,703C 436.808,701.541 437.475,700.374 438.5,699.5 Z"/></g>
<g><path style="opacity:0.408" fill="#807c83" d="M 447.5,719.5 C 447.5,719.167 447.5,718.833 447.5,718.5C 450.5,718.5 453.5,718.5 456.5,718.5C 456.5,718.833 456.5,719.167 456.5,719.5C 453.542,720.541 450.542,720.541 447.5,719.5 Z"/></g>
<g><path style="opacity:0.961" fill="#141115" d="M 266.5,715.5 C 265.753,718.266 267.086,719.932 270.5,720.5C 260.312,727.681 248.979,732.348 236.5,734.5C 232.5,734.5 228.5,734.5 224.5,734.5C 218.495,734.671 213.162,733.004 208.5,729.5C 211.016,729.245 213.35,728.411 215.5,727C 214.577,724.959 214.244,722.792 214.5,720.5C 215.69,722.355 217.023,724.188 218.5,726C 225.53,730.347 233.197,731.68 241.5,730C 250.779,726.697 259.112,721.864 266.5,715.5 Z"/></g>
<g><path style="opacity:0.408" fill="#8e8a91" d="M 224.5,735.5 C 224.5,735.167 224.5,734.833 224.5,734.5C 228.5,734.5 232.5,734.5 236.5,734.5C 236.5,734.833 236.5,735.167 236.5,735.5C 232.907,735.55 228.907,735.55 224.5,735.5 Z"/></g>
</svg>
