<?xml version="1.0" encoding="UTF-8"?>
<!DOCTYPE svg PUBLIC "-//W3C//DTD SVG 1.1//EN" "http://www.w3.org/Graphics/SVG/1.1/DTD/svg11.dtd">
<svg xmlns="http://www.w3.org/2000/svg" version="1.1" width="666px" height="504px" style="shape-rendering:geometricPrecision; text-rendering:geometricPrecision; image-rendering:optimizeQuality; fill-rule:evenodd; clip-rule:evenodd" xmlns:xlink="http://www.w3.org/1999/xlink">
<g><path style="opacity:0.967" fill="#1d1a1f" d="M 357.5,28.5 C 353.445,28.1758 349.445,28.5091 345.5,29.5C 347.969,30.1681 350.302,30.8347 352.5,31.5C 339.566,30.9772 327.9,34.4772 317.5,42C 312.965,46.7033 308.298,51.2033 303.5,55.5C 302.71,54.3915 302.21,53.0581 302,51.5C 300.462,52.8492 298.629,53.5159 296.5,53.5C 302.248,47.7443 308.248,42.411 314.5,37.5C 314.833,37.5 315.167,37.5 315.5,37.5C 321.327,34.4214 327.327,31.5881 333.5,29C 341.628,27.3762 349.628,27.2096 357.5,28.5 Z"/></g>
<g><path style="opacity:0.137" fill="#d8d5db" d="M 372.5,62.5 C 372.5,61.8333 372.5,61.1667 372.5,60.5C 373.931,53.7922 373.764,47.1255 372,40.5C 369.089,34.0819 364.256,30.0819 357.5,28.5C 349.628,27.2096 341.628,27.3762 333.5,29C 327.327,31.5881 321.327,34.4214 315.5,37.5C 315.215,35.712 315.548,34.0453 316.5,32.5C 321.747,31.6944 326.747,30.1944 331.5,28C 344.129,26.4851 356.795,26.1518 369.5,27C 368.09,27.3678 367.09,28.2011 366.5,29.5C 372.89,34.4026 375.89,40.9026 375.5,49C 375.041,53.7533 374.041,58.2533 372.5,62.5 Z"/></g>
<g><path style="opacity:0.031" fill="#cecbd2" d="M 352.5,31.5 C 357.218,31.8588 360.551,34.1921 362.5,38.5C 362.5,39.5 362.5,40.5 362.5,41.5C 360.12,35.8018 355.787,32.8018 349.5,32.5C 337.889,33.0903 327.555,36.9236 318.5,44C 297.388,63.3721 282.722,86.8721 274.5,114.5C 284.11,113.645 293.444,111.645 302.5,108.5C 292.513,114.177 281.846,116.843 270.5,116.5C 278.66,94.5059 289.66,74.1725 303.5,55.5C 308.298,51.2033 312.965,46.7033 317.5,42C 327.9,34.4772 339.566,30.9772 352.5,31.5 Z"/></g>
<g><path style="opacity:0.996" fill="#0e0b10" d="M 357.5,28.5 C 364.256,30.0819 369.089,34.0819 372,40.5C 373.764,47.1255 373.931,53.7922 372.5,60.5C 369.989,64.6678 367.655,69.0011 365.5,73.5C 364.078,73.2914 362.745,72.7914 361.5,72C 362.138,70.2933 362.138,68.46 361.5,66.5C 363.927,59.3858 364.927,52.0525 364.5,44.5C 364.741,42.1016 364.074,40.1016 362.5,38.5C 360.551,34.1921 357.218,31.8588 352.5,31.5C 350.302,30.8347 347.969,30.1681 345.5,29.5C 349.445,28.5091 353.445,28.1758 357.5,28.5 Z"/></g>
<g><path style="opacity:0.749" fill="#6b666e" d="M 362.5,38.5 C 364.074,40.1016 364.741,42.1016 364.5,44.5C 363.833,43.5 363.167,42.5 362.5,41.5C 362.5,40.5 362.5,39.5 362.5,38.5 Z"/></g>
<g><path style="opacity:0.086" fill="#d3d0d7" d="M 238.5,39.5 C 246.798,39.819 254.465,42.1524 261.5,46.5C 262.594,45.132 262.26,43.9653 260.5,43C 236.966,29.4252 215.466,31.9252 196,50.5C 193.312,53.7269 191.478,57.3936 190.5,61.5C 187.573,67.6288 186.907,73.9621 188.5,80.5C 190.36,94.3771 197.36,104.877 209.5,112C 215.344,115.216 221.344,117.716 227.5,119.5C 214.217,118.077 203.383,112.077 195,101.5C 186.533,91.1447 183.866,79.478 187,66.5C 191.644,47.8589 203.478,36.6922 222.5,33C 236.5,31.1995 249.5,33.8662 261.5,41C 268.019,46.3152 266.686,48.3152 257.5,47C 251.318,43.9011 244.984,41.4011 238.5,39.5 Z"/></g>
<g><path style="opacity:0.969" fill="#4c4850" d="M 190.5,61.5 C 188.994,67.7311 188.327,74.0645 188.5,80.5C 186.907,73.9621 187.573,67.6288 190.5,61.5 Z"/></g>
<g><path style="opacity:0.996" fill="#151217" d="M 361.5,66.5 C 362.138,68.46 362.138,70.2933 361.5,72C 362.745,72.7914 364.078,73.2914 365.5,73.5C 356.431,85.3955 345.098,94.5621 331.5,101C 312.486,110.616 292.486,117.116 271.5,120.5C 271.279,119.265 270.612,118.265 269.5,117.5C 269.624,116.893 269.957,116.56 270.5,116.5C 281.846,116.843 292.513,114.177 302.5,108.5C 321.951,103.359 338.784,93.6923 353,79.5C 356.09,75.2613 358.923,70.928 361.5,66.5 Z"/></g>
<g><path style="opacity:0.039" fill="#d3cfd6" d="M 314.5,37.5 C 308.248,42.411 302.248,47.7443 296.5,53.5C 278.827,71.1373 264.827,91.4706 254.5,114.5C 253.069,115.78 252.402,117.447 252.5,119.5C 246.956,119.748 241.623,119.081 236.5,117.5C 234.095,116.232 231.428,115.565 228.5,115.5C 228.167,115.5 227.833,115.5 227.5,115.5C 225.485,114.076 223.152,113.41 220.5,113.5C 198.664,104.511 189.164,88.1775 192,64.5C 197.151,52.1802 205.984,43.8469 218.5,39.5C 219.833,39.5 221.167,39.5 222.5,39.5C 191.601,51.009 184.767,71.009 202,99.5C 207.234,104.203 213.067,108.037 219.5,111C 228.5,112.947 237.5,114.781 246.5,116.5C 248.693,116.674 250.527,116.007 252,114.5C 262.31,93.5423 274.977,74.2089 290,56.5C 295.326,51.5155 300.993,46.8488 307,42.5C 307.494,40.8659 307.66,39.1992 307.5,37.5C 309.833,37.5 312.167,37.5 314.5,37.5 Z"/></g>
<g><path style="opacity:0.204" fill="#cbc7cf" d="M 362.5,41.5 C 363.167,42.5 363.833,43.5 364.5,44.5C 364.927,52.0525 363.927,59.3858 361.5,66.5C 358.923,70.928 356.09,75.2613 353,79.5C 338.784,93.6923 321.951,103.359 302.5,108.5C 320.409,101.793 336.576,92.1268 351,79.5C 359.818,68.2332 363.652,55.5666 362.5,41.5 Z"/></g>
<g><path style="opacity:0.996" fill="#1a171c" d="M 238.5,39.5 C 238.082,38.7784 237.416,38.2784 236.5,38C 234.167,37.8333 231.833,37.6667 229.5,37.5C 225.553,37.3629 221.886,38.0296 218.5,39.5C 205.984,43.8469 197.151,52.1802 192,64.5C 189.164,88.1775 198.664,104.511 220.5,113.5C 222.515,114.924 224.848,115.59 227.5,115.5C 227.833,115.5 228.167,115.5 228.5,115.5C 230.838,117.04 233.505,117.706 236.5,117.5C 241.623,119.081 246.956,119.748 252.5,119.5C 252.402,117.447 253.069,115.78 254.5,114.5C 254.414,115.496 254.748,116.329 255.5,117C 254.692,117.308 254.025,117.808 253.5,118.5C 253.646,120.315 253.812,122.315 254,124.5C 252.156,123.289 251.322,121.956 251.5,120.5C 250.824,121.602 250.158,122.602 249.5,123.5C 242.493,121.782 235.159,120.448 227.5,119.5C 221.344,117.716 215.344,115.216 209.5,112C 197.36,104.877 190.36,94.3771 188.5,80.5C 188.327,74.0645 188.994,67.7311 190.5,61.5C 191.478,57.3936 193.312,53.7269 196,50.5C 215.466,31.9252 236.966,29.4252 260.5,43C 262.26,43.9653 262.594,45.132 261.5,46.5C 254.465,42.1524 246.798,39.819 238.5,39.5 Z"/></g>
<g><path style="opacity:0.902" fill="#8d8990" d="M 238.5,39.5 C 233.167,39.5 227.833,39.5 222.5,39.5C 221.167,39.5 219.833,39.5 218.5,39.5C 221.886,38.0296 225.553,37.3629 229.5,37.5C 231.833,37.6667 234.167,37.8333 236.5,38C 237.416,38.2784 238.082,38.7784 238.5,39.5 Z"/></g>
<g><path style="opacity:0.851" fill="#908c94" d="M 220.5,113.5 C 223.152,113.41 225.485,114.076 227.5,115.5C 224.848,115.59 222.515,114.924 220.5,113.5 Z"/></g>
<g><path style="opacity:0.933" fill="#807c84" d="M 228.5,115.5 C 231.428,115.565 234.095,116.232 236.5,117.5C 233.505,117.706 230.838,117.04 228.5,115.5 Z"/></g>
<g><path style="opacity:0.996" fill="#08070a" d="M 303.5,55.5 C 289.66,74.1725 278.66,94.5059 270.5,116.5C 269.957,116.56 269.624,116.893 269.5,117.5C 270.612,118.265 271.279,119.265 271.5,120.5C 270.178,120.33 269.011,120.663 268,121.5C 258.272,145.338 246.272,168.004 232,189.5C 229.302,193.025 226.469,196.358 223.5,199.5C 219.013,199.82 216.18,202.153 215,206.5C 213.989,205.663 212.822,205.33 211.5,205.5C 211.351,204.448 211.517,203.448 212,202.5C 213.362,201.075 214.862,200.242 216.5,200C 215.709,197.25 215.709,194.417 216.5,191.5C 227.052,170.397 237.052,149.064 246.5,127.5C 247.488,126.205 248.488,124.872 249.5,123.5C 250.158,122.602 250.824,121.602 251.5,120.5C 251.322,121.956 252.156,123.289 254,124.5C 253.812,122.315 253.646,120.315 253.5,118.5C 254.025,117.808 254.692,117.308 255.5,117C 254.748,116.329 254.414,115.496 254.5,114.5C 264.827,91.4706 278.827,71.1373 296.5,53.5C 298.629,53.5159 300.462,52.8492 302,51.5C 302.21,53.0581 302.71,54.3915 303.5,55.5 Z"/></g>
<g><path style="opacity:0.482" fill="#d4d0de" d="M 227.5,119.5 C 235.159,120.448 242.493,121.782 249.5,123.5C 248.488,124.872 247.488,126.205 246.5,127.5C 246.67,126.178 246.337,125.011 245.5,124C 239.076,123.727 233.076,122.227 227.5,119.5 Z"/></g>
<g><path style="opacity:0.996" fill="#08060b" d="M 401.5,194.5 C 400.094,194.973 399.427,195.973 399.5,197.5C 394.835,206.169 390.668,215.169 387,224.5C 386.333,228.167 386.333,231.833 387,235.5C 387.748,237.751 389.248,239.084 391.5,239.5C 393.844,239.94 395.844,240.94 397.5,242.5C 380.506,246.813 372.839,240.147 374.5,222.5C 375.482,218.837 376.816,215.171 378.5,211.5C 378.376,210.893 378.043,210.56 377.5,210.5C 376.646,209.368 376.646,208.035 377.5,206.5C 387.568,193.027 394.401,178.027 398,161.5C 398.499,155.843 398.666,150.176 398.5,144.5C 399.455,142.29 400.955,141.957 403,143.5C 403.617,144.449 403.451,145.282 402.5,146C 404.134,146.494 405.801,146.66 407.5,146.5C 407.5,147.5 407.5,148.5 407.5,149.5C 409.179,149.715 410.179,149.048 410.5,147.5C 412.638,142.724 414.638,137.891 416.5,133C 423.524,132.169 430.524,132.336 437.5,133.5C 435.476,135.69 433.643,138.023 432,140.5C 421.978,158.662 411.811,176.662 401.5,194.5 Z"/></g>
<g><path style="opacity:0.031" fill="#c7c5cb" d="M 372.5,60.5 C 372.5,61.1667 372.5,61.8333 372.5,62.5C 369.968,69.8955 366.135,76.5622 361,82.5C 340.225,100.302 316.725,112.302 290.5,118.5C 284.433,119.683 278.433,121.183 272.5,123C 270.714,123.785 269.214,124.951 268,126.5C 252.604,165.854 229.437,199.688 198.5,228C 197.167,228.667 195.833,229.333 194.5,230C 208.948,231.316 220.448,237.816 229,249.5C 230.46,252.748 231.626,256.081 232.5,259.5C 231.143,258.41 230.143,257.076 229.5,255.5C 225.239,245.57 217.906,239.237 207.5,236.5C 201.961,233.612 195.961,231.945 189.5,231.5C 202.518,222.651 213.852,211.985 223.5,199.5C 226.469,196.358 229.302,193.025 232,189.5C 246.272,168.004 258.272,145.338 268,121.5C 269.011,120.663 270.178,120.33 271.5,120.5C 292.486,117.116 312.486,110.616 331.5,101C 345.098,94.5621 356.431,85.3955 365.5,73.5C 367.655,69.0011 369.989,64.6678 372.5,60.5 Z"/></g>
<g><path style="opacity:0.996" fill="#08060b" d="M 351.5,155.5 C 350.167,157.833 348.833,160.167 347.5,162.5C 346.11,163.899 345.11,165.566 344.5,167.5C 331.383,185.284 325.05,205.284 325.5,227.5C 325.261,229.467 325.594,231.301 326.5,233C 325.833,233.333 325.167,233.667 324.5,234C 327.472,236.468 330.806,238.302 334.5,239.5C 338.206,236.337 340.539,237.004 341.5,241.5C 338.382,243.393 335.049,244.726 331.5,245.5C 327.774,245.823 324.107,245.489 320.5,244.5C 321.46,243.188 321.294,241.854 320,240.5C 319.667,241.167 319.333,241.833 319,242.5C 317.301,241.594 315.467,241.261 313.5,241.5C 310.287,237.741 308.121,233.408 307,228.5C 306.501,222.509 306.334,216.509 306.5,210.5C 306.5,210.167 306.5,209.833 306.5,209.5C 308.042,205.675 309.376,201.675 310.5,197.5C 311.537,196.07 312.204,194.403 312.5,192.5C 312.433,191.041 312.766,189.708 313.5,188.5C 321.101,174.495 330.768,161.995 342.5,151C 343.527,150.487 344.527,149.987 345.5,149.5C 348.123,150.702 350.123,149.869 351.5,147C 352.635,146.251 353.635,146.417 354.5,147.5C 352.642,149.524 350.975,151.691 349.5,154C 350.416,154.278 351.082,154.778 351.5,155.5 Z"/></g>
<g><path style="opacity:0.086" fill="#cdcad1" d="M 398.5,144.5 C 398.666,150.176 398.499,155.843 398,161.5C 394.401,178.027 387.568,193.027 377.5,206.5C 369.937,216.894 360.603,225.394 349.5,232C 345.757,233.136 342.09,234.47 338.5,236C 334.82,237.027 331.653,236.194 329,233.5C 327.541,231.568 326.375,229.568 325.5,227.5C 325.05,205.284 331.383,185.284 344.5,167.5C 345.391,166.89 346.391,166.557 347.5,166.5C 333.566,184.389 327.066,204.722 328,227.5C 332.297,234.722 338.13,236.222 345.5,232C 368.639,217.86 384.806,198.027 394,172.5C 394.805,166.221 395.972,160.054 397.5,154C 397.082,146.98 394.415,140.98 389.5,136C 382.569,134.538 376.236,135.872 370.5,140C 361.232,147.099 353.565,155.599 347.5,165.5C 347.5,164.5 347.5,163.5 347.5,162.5C 348.833,160.167 350.167,157.833 351.5,155.5C 358.495,146.341 367.161,139.174 377.5,134C 387.554,131.581 394.554,135.081 398.5,144.5 Z"/></g>
<g><path style="opacity:0.89" fill="#726e75" d="M 312.5,192.5 C 312.204,194.403 311.537,196.07 310.5,197.5C 310.672,196.508 310.338,195.842 309.5,195.5C 310.167,194.167 311.167,193.167 312.5,192.5 Z"/></g>
<g><path style="opacity:0.996" fill="#1d1a20" d="M 450.5,196.5 C 445.69,201.458 441.357,206.791 437.5,212.5C 436.167,213.167 435.167,214.167 434.5,215.5C 429.833,219.5 425.5,223.833 421.5,228.5C 417.226,231.648 412.892,234.815 408.5,238C 404.93,239.799 401.263,241.299 397.5,242.5C 395.844,240.94 393.844,239.94 391.5,239.5C 397.682,239.417 403.349,237.583 408.5,234C 423.325,222.543 436.491,209.376 448,194.5C 457.659,181.851 466.825,168.851 475.5,155.5C 475.833,155.833 476.167,156.167 476.5,156.5C 468.175,170.138 459.508,183.472 450.5,196.5 Z"/></g>
<g><path style="opacity:0.31" fill="#d1ced5" d="M 246.5,127.5 C 237.052,149.064 227.052,170.397 216.5,191.5C 207.843,207.995 195.509,221.161 179.5,231C 168.945,231.031 158.612,231.864 148.5,233.5C 138.848,233.73 129.514,235.564 120.5,239C 118.667,240.833 116.833,242.667 115,244.5C 114.503,246.81 114.337,249.143 114.5,251.5C 135.319,251.759 154.986,247.426 173.5,238.5C 178.843,237.221 184.176,237.387 189.5,239C 193.189,240.844 196.855,242.678 200.5,244.5C 205.578,247.243 209.245,251.243 211.5,256.5C 211.5,258.5 211.5,260.5 211.5,262.5C 208.615,262.806 205.948,262.473 203.5,261.5C 206.24,261.244 208.574,260.244 210.5,258.5C 203.14,245.36 191.807,239.193 176.5,240C 158.605,247.687 139.938,252.187 120.5,253.5C 117.402,253.869 114.402,253.036 111.5,251C 110.446,249.612 110.28,248.112 111,246.5C 114.837,239.68 120.671,235.513 128.5,234C 145.676,230.689 163.01,228.689 180.5,228C 194.12,219.049 204.954,207.549 213,193.5C 223.774,172.389 234.107,151.056 244,129.5C 244.708,128.619 245.542,127.953 246.5,127.5 Z"/></g>
<g><path style="opacity:0.569" fill="#78747c" d="M 401.5,194.5 C 401.5,195.167 401.5,195.833 401.5,196.5C 400.833,196.833 400.167,197.167 399.5,197.5C 399.427,195.973 400.094,194.973 401.5,194.5 Z"/></g>
<g><path style="opacity:0.118" fill="#cac7cf" d="M 450.5,196.5 C 459.508,183.472 468.175,170.138 476.5,156.5C 476.167,156.167 475.833,155.833 475.5,155.5C 466.825,168.851 457.659,181.851 448,194.5C 436.491,209.376 423.325,222.543 408.5,234C 403.349,237.583 397.682,239.417 391.5,239.5C 389.248,239.084 387.748,237.751 387,235.5C 386.333,231.833 386.333,228.167 387,224.5C 390.668,215.169 394.835,206.169 399.5,197.5C 400.167,197.167 400.833,196.833 401.5,196.5C 397.481,203.876 393.981,211.543 391,219.5C 388.67,224.773 388.337,230.107 390,235.5C 394.49,237.884 398.99,237.717 403.5,235C 415.184,227.325 425.684,218.158 435,207.5C 445.097,196.072 454.431,184.072 463,171.5C 466,166.167 469,160.833 472,155.5C 473.87,153.781 476.037,152.781 478.5,152.5C 478.663,154.857 478.497,157.19 478,159.5C 471.305,168.539 464.972,177.872 459,187.5C 456.604,190.999 453.771,193.999 450.5,196.5 Z"/></g>
<g><path style="opacity:0.102" fill="#d1cdd4" d="M 450.5,196.5 C 447.675,202.998 443.342,208.331 437.5,212.5C 441.357,206.791 445.69,201.458 450.5,196.5 Z"/></g>
<g><path style="opacity:0.996" fill="#120f14" d="M 216.5,191.5 C 215.709,194.417 215.709,197.25 216.5,200C 214.862,200.242 213.362,201.075 212,202.5C 211.517,203.448 211.351,204.448 211.5,205.5C 212.822,205.33 213.989,205.663 215,206.5C 216.18,202.153 219.013,199.82 223.5,199.5C 213.852,211.985 202.518,222.651 189.5,231.5C 195.961,231.945 201.961,233.612 207.5,236.5C 205.659,237.673 203.826,237.673 202,236.5C 197.395,239.375 197.561,240.875 202.5,241C 201.672,241.915 200.672,242.581 199.5,243C 200.056,243.383 200.389,243.883 200.5,244.5C 196.855,242.678 193.189,240.844 189.5,239C 184.176,237.387 178.843,237.221 173.5,238.5C 172.391,237.71 171.058,237.21 169.5,237C 169.833,236.667 170.167,236.333 170.5,236C 169.333,235.5 168.5,234.667 168,233.5C 161.869,232.526 155.369,232.526 148.5,233.5C 158.612,231.864 168.945,231.031 179.5,231C 195.509,221.161 207.843,207.995 216.5,191.5 Z"/></g>
<g><path style="opacity:0.2" fill="#d0cdd2" d="M 309.5,195.5 C 310.338,195.842 310.672,196.508 310.5,197.5C 309.376,201.675 308.042,205.675 306.5,209.5C 306.9,207.178 306.234,204.845 304.5,202.5C 303.089,204.914 301.089,206.581 298.5,207.5C 301.436,202.895 305.102,198.895 309.5,195.5 Z"/></g>
<g><path style="opacity:0.918" fill="#171419" d="M 313.5,188.5 C 312.766,189.708 312.433,191.041 312.5,192.5C 311.167,193.167 310.167,194.167 309.5,195.5C 305.102,198.895 301.436,202.895 298.5,207.5C 287.609,218.936 276.943,230.603 266.5,242.5C 260.369,248.13 254.369,253.964 248.5,260C 251.159,259.84 253.826,259.34 256.5,258.5C 261.704,258.298 266.871,258.631 272,259.5C 273.928,259.067 275.761,258.4 277.5,257.5C 278.713,257.747 279.38,258.414 279.5,259.5C 278.317,260.504 276.984,261.338 275.5,262C 260.221,259.734 246.554,263.234 234.5,272.5C 234.097,269.594 232.431,267.761 229.5,267C 230.056,266.617 230.389,266.117 230.5,265.5C 230.833,265.5 231.167,265.5 231.5,265.5C 239.993,260.751 247.993,255.251 255.5,249C 267.972,235.192 280.472,221.359 293,207.5C 299.449,200.543 306.282,194.21 313.5,188.5 Z"/></g>
<g><path style="opacity:0.004" fill="#f3eff3" d="M 437.5,212.5 C 437.5,214.5 436.5,215.5 434.5,215.5C 435.167,214.167 436.167,213.167 437.5,212.5 Z"/></g>
<g><path style="opacity:0.553" fill="#a09ca4" d="M 377.5,210.5 C 378.043,210.56 378.376,210.893 378.5,211.5C 376.816,215.171 375.482,218.837 374.5,222.5C 374.795,220.265 374.461,218.265 373.5,216.5C 374.833,214.5 376.167,212.5 377.5,210.5 Z"/></g>
<g><path style="opacity:0.012" fill="#dcdbde" d="M 298.5,207.5 C 289.275,220.064 278.942,231.73 267.5,242.5C 267.167,242.5 266.833,242.5 266.5,242.5C 276.943,230.603 287.609,218.936 298.5,207.5 Z"/></g>
<g><path style="opacity:0.004" fill="#edebee" d="M 434.5,215.5 C 431.167,220.833 426.833,225.167 421.5,228.5C 425.5,223.833 429.833,219.5 434.5,215.5 Z"/></g>
<g><path style="opacity:0.063" fill="#cdcad1" d="M 401.5,196.5 C 401.5,195.833 401.5,195.167 401.5,194.5C 411.811,176.662 421.978,158.662 432,140.5C 433.643,138.023 435.476,135.69 437.5,133.5C 430.524,132.336 423.524,132.169 416.5,133C 414.638,137.891 412.638,142.724 410.5,147.5C 409.883,147.611 409.383,147.944 409,148.5C 408.722,147.584 408.222,146.918 407.5,146.5C 404.039,135.259 396.372,129.592 384.5,129.5C 368.837,131.164 355.837,137.83 345.5,149.5C 344.527,149.987 343.527,150.487 342.5,151C 330.768,161.995 321.101,174.495 313.5,188.5C 306.282,194.21 299.449,200.543 293,207.5C 280.472,221.359 267.972,235.192 255.5,249C 247.993,255.251 239.993,260.751 231.5,265.5C 231.325,263.379 231.659,261.379 232.5,259.5C 235.342,260.612 238.008,260.112 240.5,258C 244.653,254.425 248.986,251.091 253.5,248C 273.329,226.504 293.496,205.337 314,184.5C 325.069,165.435 339.569,149.602 357.5,137C 369.021,128.811 381.688,126.144 395.5,129C 402.478,132.448 406.978,137.948 409,145.5C 410.933,140.022 413.433,134.855 416.5,130C 424.115,130.377 431.782,130.21 439.5,129.5C 439.906,133.688 438.406,137.021 435,139.5C 424.338,158.827 413.172,177.827 401.5,196.5 Z"/></g>
<g><path style="opacity:0.231" fill="#807c87" d="M 347.5,162.5 C 347.5,163.5 347.5,164.5 347.5,165.5C 347.5,165.833 347.5,166.167 347.5,166.5C 346.391,166.557 345.391,166.89 344.5,167.5C 345.11,165.566 346.11,163.899 347.5,162.5 Z"/></g>
<g><path style="opacity:0.761" fill="#66626a" d="M 407.5,146.5 C 408.222,146.918 408.722,147.584 409,148.5C 409.383,147.944 409.883,147.611 410.5,147.5C 410.179,149.048 409.179,149.715 407.5,149.5C 407.5,148.5 407.5,147.5 407.5,146.5 Z"/></g>
<g><path style="opacity:0.996" fill="#120f14" d="M 407.5,146.5 C 405.801,146.66 404.134,146.494 402.5,146C 403.451,145.282 403.617,144.449 403,143.5C 400.955,141.957 399.455,142.29 398.5,144.5C 394.554,135.081 387.554,131.581 377.5,134C 367.161,139.174 358.495,146.341 351.5,155.5C 351.082,154.778 350.416,154.278 349.5,154C 350.975,151.691 352.642,149.524 354.5,147.5C 353.635,146.417 352.635,146.251 351.5,147C 350.123,149.869 348.123,150.702 345.5,149.5C 355.837,137.83 368.837,131.164 384.5,129.5C 396.372,129.592 404.039,135.259 407.5,146.5 Z"/></g>
<g><path style="opacity:0.996" fill="#08070a" d="M 173.5,238.5 C 154.986,247.426 135.319,251.759 114.5,251.5C 114.337,249.143 114.503,246.81 115,244.5C 116.833,242.667 118.667,240.833 120.5,239C 129.514,235.564 138.848,233.73 148.5,233.5C 155.369,232.526 161.869,232.526 168,233.5C 168.5,234.667 169.333,235.5 170.5,236C 170.167,236.333 169.833,236.667 169.5,237C 171.058,237.21 172.391,237.71 173.5,238.5 Z"/></g>
<g><path style="opacity:0.996" fill="#141216" d="M 377.5,206.5 C 376.646,208.035 376.646,209.368 377.5,210.5C 376.167,212.5 374.833,214.5 373.5,216.5C 364.579,227.09 353.912,235.424 341.5,241.5C 340.539,237.004 338.206,236.337 334.5,239.5C 330.806,238.302 327.472,236.468 324.5,234C 325.167,233.667 325.833,233.333 326.5,233C 325.594,231.301 325.261,229.467 325.5,227.5C 326.375,229.568 327.541,231.568 329,233.5C 331.653,236.194 334.82,237.027 338.5,236C 342.09,234.47 345.757,233.136 349.5,232C 360.603,225.394 369.937,216.894 377.5,206.5 Z"/></g>
<g><path style="opacity:0.024" fill="#cbc9cf" d="M 306.5,210.5 C 306.334,216.509 306.501,222.509 307,228.5C 308.121,233.408 310.287,237.741 313.5,241.5C 314.894,243.708 316.894,245.208 319.5,246C 323.689,246.812 327.689,246.645 331.5,245.5C 335.049,244.726 338.382,243.393 341.5,241.5C 353.912,235.424 364.579,227.09 373.5,216.5C 374.461,218.265 374.795,220.265 374.5,222.5C 372.839,240.147 380.506,246.813 397.5,242.5C 401.263,241.299 404.93,239.799 408.5,238C 412.892,234.815 417.226,231.648 421.5,228.5C 410.164,243.173 395.497,248.006 377.5,243C 374.858,240.424 373.358,237.257 373,233.5C 372.82,229.076 372.653,224.743 372.5,220.5C 361.725,231.431 349.392,240.265 335.5,247C 320.126,251.277 310.293,245.777 306,230.5C 305.179,223.654 305.346,216.987 306.5,210.5 Z"/></g>
<g><path style="opacity:0.996" fill="#252227" d="M 331.5,245.5 C 327.689,246.645 323.689,246.812 319.5,246C 316.894,245.208 314.894,243.708 313.5,241.5C 315.467,241.261 317.301,241.594 319,242.5C 319.333,241.833 319.667,241.167 320,240.5C 321.294,241.854 321.46,243.188 320.5,244.5C 324.107,245.489 327.774,245.823 331.5,245.5 Z"/></g>
<g><path style="opacity:0.718" fill="#847f8a" d="M 229.5,255.5 C 230.143,257.076 231.143,258.41 232.5,259.5C 231.659,261.379 231.325,263.379 231.5,265.5C 231.167,265.5 230.833,265.5 230.5,265.5C 230.384,262.14 230.051,258.807 229.5,255.5 Z"/></g>
<g><path style="opacity:0.529" fill="#a29ea6" d="M 211.5,256.5 C 212.468,258.607 212.802,260.941 212.5,263.5C 207.155,263.687 201.822,264.02 196.5,264.5C 198.751,263.985 200.751,262.985 202.5,261.5C 202.833,261.5 203.167,261.5 203.5,261.5C 205.948,262.473 208.615,262.806 211.5,262.5C 211.5,260.5 211.5,258.5 211.5,256.5 Z"/></g>
<g><path style="opacity:0.553" fill="#d9d5dd" d="M 202.5,261.5 C 200.751,262.985 198.751,263.985 196.5,264.5C 162.8,267.869 130.467,276.203 99.5,289.5C 96.911,289.461 94.911,290.461 93.5,292.5C 87.5427,296.1 81.5427,299.767 75.5,303.5C 74.325,303.719 73.325,303.386 72.5,302.5C 75.6566,298.163 74.9899,294.663 70.5,292C 63.5863,290.049 58.0863,291.882 54,297.5C 52.31,293.457 50.1434,289.624 47.5,286C 44.3351,283.87 41.3351,284.037 38.5,286.5C 34.3416,293.091 33.5083,300.091 36,307.5C 38.9965,312.157 41.9965,316.824 45,321.5C 47.9341,323.518 50.4341,325.852 52.5,328.5C 45.6937,342.988 45.8604,357.322 53,371.5C 63.1209,382.475 75.6209,387.141 90.5,385.5C 92.1667,385.5 93.8333,385.5 95.5,385.5C 81.4177,389.891 68.4177,387.391 56.5,378C 48.4198,370.834 44.7531,361.834 45.5,351C 45.3566,343.983 46.6899,337.316 49.5,331C 45.0198,323.856 40.1864,317.023 35,310.5C 31.5901,302.068 31.7568,293.735 35.5,285.5C 38.7892,283.022 42.4558,281.356 46.5,280.5C 49.6567,284.126 52.8234,287.793 56,291.5C 56.5,291 57,290.5 57.5,290C 62.8333,289.333 68.1667,289.333 73.5,290C 75.8095,292.575 76.6429,295.409 76,298.5C 91.6093,290.947 107.443,283.781 123.5,277C 149.446,270.099 175.779,264.933 202.5,261.5 Z"/></g>
<g><path style="opacity:0.063" fill="#cbc9ce" d="M 166.5,277.5 C 149.104,283.245 132.104,290.079 115.5,298C 105.202,303.731 95.7024,310.565 87,318.5C 84.607,322.366 82.107,326.032 79.5,329.5C 79.5,328.833 79.5,328.167 79.5,327.5C 80.3431,324.484 81.8431,321.817 84,319.5C 89.43,313.563 95.2633,308.23 101.5,303.5C 119.795,292.193 139.462,283.859 160.5,278.5C 162.435,277.85 164.435,277.517 166.5,277.5 Z"/></g>
<g><path style="opacity:0.396" fill="#a09ba4" d="M 99.5,289.5 C 98.8333,290.167 98.1667,290.833 97.5,291.5C 96.1667,291.833 94.8333,292.167 93.5,292.5C 94.911,290.461 96.911,289.461 99.5,289.5 Z"/></g>
<g><path style="opacity:0.996" fill="#0b090d" d="M 207.5,236.5 C 217.906,239.237 225.239,245.57 229.5,255.5C 230.051,258.807 230.384,262.14 230.5,265.5C 230.389,266.117 230.056,266.617 229.5,267C 232.431,267.761 234.097,269.594 234.5,272.5C 223.647,279.512 214.147,288.179 206,298.5C 189.557,322.052 175.724,347.052 164.5,373.5C 179.14,372.501 193.807,371.834 208.5,371.5C 209.088,368.937 210.088,366.604 211.5,364.5C 211.753,366.827 211.086,368.827 209.5,370.5C 210.97,372.482 210.636,374.148 208.5,375.5C 208.709,376.086 209.043,376.586 209.5,377C 207.89,378.108 206.223,378.608 204.5,378.5C 204.557,377.391 204.89,376.391 205.5,375.5C 206.043,375.44 206.376,375.107 206.5,374.5C 204.027,373.203 201.693,373.203 199.5,374.5C 191.335,374.95 183.335,375.616 175.5,376.5C 171.958,376.187 168.625,376.521 165.5,377.5C 163.533,377.261 161.699,377.594 160,378.5C 149.279,405.278 134.945,429.944 117,452.5C 109.701,460.157 102.201,467.491 94.5,474.5C 90.5906,477.621 86.2572,479.955 81.5,481.5C 78.0863,480.932 76.753,479.266 77.5,476.5C 86.008,467.873 93.8413,458.54 101,448.5C 114.403,426.196 126.903,403.363 138.5,380C 136.19,379.503 133.857,379.337 131.5,379.5C 131.5,378.167 131.5,376.833 131.5,375.5C 134.898,375.82 138.232,375.487 141.5,374.5C 159.732,333.766 186.399,299.599 221.5,272C 219.428,271.964 217.428,272.464 215.5,273.5C 213.692,272.082 213.025,270.082 213.5,267.5C 209.958,267.187 206.625,267.521 203.5,268.5C 195.522,268.783 187.855,270.116 180.5,272.5C 176.686,273.368 173.019,274.368 169.5,275.5C 166.008,275.446 163.008,276.446 160.5,278.5C 139.462,283.859 119.795,292.193 101.5,303.5C 101.511,301.983 102.177,300.816 103.5,300C 105.765,298.882 108.099,298.049 110.5,297.5C 110.704,294.482 111.037,291.482 111.5,288.5C 109.876,288.36 108.71,289.027 108,290.5C 107.333,289.833 106.667,289.167 106,288.5C 104.786,290.049 103.286,291.215 101.5,292C 101.833,292.333 102.167,292.667 102.5,293C 101.213,294.41 100.046,295.91 99,297.5C 98.6258,296.584 98.1258,295.75 97.5,295C 101.445,293.591 101.445,292.425 97.5,291.5C 98.1667,290.833 98.8333,290.167 99.5,289.5C 130.467,276.203 162.8,267.869 196.5,264.5C 201.822,264.02 207.155,263.687 212.5,263.5C 212.802,260.941 212.468,258.607 211.5,256.5C 209.245,251.243 205.578,247.243 200.5,244.5C 200.389,243.883 200.056,243.383 199.5,243C 200.672,242.581 201.672,241.915 202.5,241C 197.561,240.875 197.395,239.375 202,236.5C 203.826,237.673 205.659,237.673 207.5,236.5 Z"/></g>
<g><path style="opacity:0.267" fill="#99969c" d="M 169.5,275.5 C 169.5,275.833 169.5,276.167 169.5,276.5C 168.791,277.404 167.791,277.737 166.5,277.5C 164.435,277.517 162.435,277.85 160.5,278.5C 163.008,276.446 166.008,275.446 169.5,275.5 Z"/></g>
<g><path style="opacity:0.09" fill="#c3c1c4" d="M 180.5,272.5 C 181.833,272.5 183.167,272.5 184.5,272.5C 179.888,274.905 174.888,276.238 169.5,276.5C 169.5,276.167 169.5,275.833 169.5,275.5C 173.019,274.368 176.686,273.368 180.5,272.5 Z"/></g>
<g><path style="opacity:0.792" fill="#49454c" d="M 203.5,268.5 C 206.625,267.521 209.958,267.187 213.5,267.5C 213.025,270.082 213.692,272.082 215.5,273.5C 214.739,274.391 213.739,275.058 212.5,275.5C 211.294,273.516 211.294,271.516 212.5,269.5C 211.311,268.571 209.978,268.238 208.5,268.5C 208.167,268.5 207.833,268.5 207.5,268.5C 206.167,268.5 204.833,268.5 203.5,268.5 Z"/></g>
<g><path style="opacity:0.063" fill="#bdbbc2" d="M 203.5,268.5 C 204.833,268.5 206.167,268.5 207.5,268.5C 200.145,270.884 192.478,272.217 184.5,272.5C 183.167,272.5 181.833,272.5 180.5,272.5C 187.855,270.116 195.522,268.783 203.5,268.5 Z"/></g>
<g><path style="opacity:0.996" fill="#09070b" d="M 101.5,303.5 C 95.2633,308.23 89.43,313.563 84,319.5C 81.8431,321.817 80.3431,324.484 79.5,327.5C 78.0937,327.973 77.427,328.973 77.5,330.5C 75.226,335.989 73.5593,341.655 72.5,347.5C 71.764,350.695 71.0973,354.029 70.5,357.5C 71.0253,358.192 71.6919,358.692 72.5,359C 70.0028,361.26 70.6695,362.593 74.5,363C 74.0426,363.414 73.7093,363.914 73.5,364.5C 74.6053,365.892 75.9386,367.059 77.5,368C 76.3463,368.914 76.513,369.747 78,370.5C 78.6708,369.748 79.5041,369.414 80.5,369.5C 86.3083,374.063 92.975,375.563 100.5,374C 126.124,369.559 138.624,354.392 138,328.5C 137.548,324.763 136.382,321.263 134.5,318C 134.833,317.5 135.167,317 135.5,316.5C 145.894,336.388 142.894,354.055 126.5,369.5C 118.246,376.256 108.913,380.922 98.5,383.5C 95.5718,383.565 92.9052,384.232 90.5,385.5C 75.6209,387.141 63.1209,382.475 53,371.5C 45.8604,357.322 45.6937,342.988 52.5,328.5C 59.0209,319.135 66.6876,310.802 75.5,303.5C 81.5427,299.767 87.5427,296.1 93.5,292.5C 94.8333,292.167 96.1667,291.833 97.5,291.5C 101.445,292.425 101.445,293.591 97.5,295C 98.1258,295.75 98.6258,296.584 99,297.5C 100.046,295.91 101.213,294.41 102.5,293C 102.167,292.667 101.833,292.333 101.5,292C 103.286,291.215 104.786,290.049 106,288.5C 106.667,289.167 107.333,289.833 108,290.5C 108.71,289.027 109.876,288.36 111.5,288.5C 111.037,291.482 110.704,294.482 110.5,297.5C 108.099,298.049 105.765,298.882 103.5,300C 102.177,300.816 101.511,301.983 101.5,303.5 Z"/></g>
<g><path style="opacity:0.467" fill="#afaab3" d="M 75.5,303.5 C 66.6876,310.802 59.0209,319.135 52.5,328.5C 50.4341,325.852 47.9341,323.518 45,321.5C 41.9965,316.824 38.9965,312.157 36,307.5C 33.5083,300.091 34.3416,293.091 38.5,286.5C 41.3351,284.037 44.3351,283.87 47.5,286C 50.1434,289.624 52.31,293.457 54,297.5C 58.0863,291.882 63.5863,290.049 70.5,292C 74.9899,294.663 75.6566,298.163 72.5,302.5C 73.325,303.386 74.325,303.719 75.5,303.5 Z M 47.5,316.5 C 46.8902,315.609 46.5569,314.609 46.5,313.5C 48.1002,312.488 49.4335,312.988 50.5,315C 49.7562,316.039 48.7562,316.539 47.5,316.5 Z M 52.5,319.5 C 51.7109,319.217 51.0442,318.717 50.5,318C 51.816,317.472 52.4827,317.972 52.5,319.5 Z M 56.5,314.5 C 53.5299,314.254 52.1966,312.588 52.5,309.5C 54.7011,303.817 58.7011,299.817 64.5,297.5C 65.737,297.556 66.737,298.056 67.5,299C 62.8371,303.49 59.1704,308.657 56.5,314.5 Z M 44.5,290.5 C 45.9395,292.588 46.6061,294.921 46.5,297.5C 45.718,300.714 44.8847,304.048 44,307.5C 43.7216,306.584 43.2216,305.918 42.5,305.5C 42.8056,301.802 42.139,298.302 40.5,295C 40.8222,292.479 42.1555,290.979 44.5,290.5 Z"/></g>
<g><path style="opacity:0.063" fill="#ccc9d0" d="M 266.5,242.5 C 266.833,242.5 267.167,242.5 267.5,242.5C 264.297,246.888 260.631,250.888 256.5,254.5C 263.248,255.801 269.915,255.468 276.5,253.5C 284.478,256.775 284.478,260.275 276.5,264C 271.313,264.637 266.146,264.471 261,263.5C 254.056,264.481 247.556,266.648 241.5,270C 234.212,275.272 226.878,280.606 219.5,286C 216.397,290.107 212.897,293.94 209,297.5C 193.114,320.597 179.281,344.931 167.5,370.5C 168.5,370.833 169.5,371.167 170.5,371.5C 182.474,370.075 194.474,368.908 206.5,368C 219.368,346.123 234.202,325.623 251,306.5C 266.674,288.817 285.174,274.984 306.5,265C 318.057,260.297 330.057,257.963 342.5,258C 347.994,258.826 352.828,260.993 357,264.5C 362.213,274.942 359.046,279.776 347.5,279C 342.454,277.286 338.621,274.12 336,269.5C 331.16,268.426 326.327,268.592 321.5,270C 301.26,277.312 284.093,289.146 270,305.5C 263.917,313.402 258.083,321.402 252.5,329.5C 252.5,328.833 252.5,328.167 252.5,327.5C 264.883,305.615 281.883,288.115 303.5,275C 309.492,271.89 315.825,269.557 322.5,268C 327.5,267.333 332.5,267.333 337.5,268C 340.079,270.52 342.412,273.187 344.5,276C 348.167,276.667 351.833,276.667 355.5,276C 359.006,270.271 357.673,265.938 351.5,263C 348.382,261.273 345.049,260.439 341.5,260.5C 339.866,259.839 338.033,259.506 336,259.5C 332.549,259.421 329.382,260.087 326.5,261.5C 313.248,264.06 300.915,268.893 289.5,276C 256.831,299.823 230.831,329.323 211.5,364.5C 210.088,366.604 209.088,368.937 208.5,371.5C 193.807,371.834 179.14,372.501 164.5,373.5C 175.724,347.052 189.557,322.052 206,298.5C 214.147,288.179 223.647,279.512 234.5,272.5C 246.554,263.234 260.221,259.734 275.5,262C 276.984,261.338 278.317,260.504 279.5,259.5C 280.404,258.791 280.737,257.791 280.5,256.5C 272.33,256.899 264.33,257.565 256.5,258.5C 253.826,259.34 251.159,259.84 248.5,260C 254.369,253.964 260.369,248.13 266.5,242.5 Z"/></g>
<g><path style="opacity:0.784" fill="#736f76" d="M 341.5,260.5 C 336.473,260.503 331.473,260.836 326.5,261.5C 329.382,260.087 332.549,259.421 336,259.5C 338.033,259.506 339.866,259.839 341.5,260.5 Z"/></g>
<g><path style="opacity:0.98" fill="#39353c" d="M 279.5,259.5 C 279.38,258.414 278.713,257.747 277.5,257.5C 275.761,258.4 273.928,259.067 272,259.5C 266.871,258.631 261.704,258.298 256.5,258.5C 264.33,257.565 272.33,256.899 280.5,256.5C 280.737,257.791 280.404,258.791 279.5,259.5 Z"/></g>
<g><path style="opacity:0.157" fill="#d6d3d9" d="M 334.5,305.5 C 345.799,307.757 349.633,314.423 346,325.5C 339.559,332.952 332.892,333.285 326,326.5C 321.638,316.56 324.471,309.56 334.5,305.5 Z"/></g>
<g><path style="opacity:0.996" fill="#0e0c10" d="M 330.5,308.5 C 341.49,306.992 346.324,311.658 345,322.5C 340.717,330.013 335.051,331.346 328,326.5C 324.091,319.765 324.924,313.765 330.5,308.5 Z"/></g>
<g><path style="opacity:0.063" fill="#dcd9e0" d="M 44.5,290.5 C 46.7525,290.916 48.2525,292.249 49,294.5C 49.1298,298.951 49.7964,303.284 51,307.5C 53.1935,302.456 56.6935,298.623 61.5,296C 64.1667,295.333 66.8333,295.333 69.5,296C 70.0219,296.561 70.3552,297.228 70.5,298C 65.0691,307.647 58.5691,316.48 51,324.5C 45.6536,318.469 41.3203,311.803 38,304.5C 37.3333,300.833 37.3333,297.167 38,293.5C 38.68,290.82 40.3466,289.153 43,288.5C 44.0299,288.836 44.5299,289.503 44.5,290.5 Z M 47.5,316.5 C 46.8902,315.609 46.5569,314.609 46.5,313.5C 48.1002,312.488 49.4335,312.988 50.5,315C 49.7562,316.039 48.7562,316.539 47.5,316.5 Z M 52.5,319.5 C 52.4827,317.972 51.816,317.472 50.5,318C 51.0442,318.717 51.7109,319.217 52.5,319.5 Z M 56.5,314.5 C 53.5299,314.254 52.1966,312.588 52.5,309.5C 54.7011,303.817 58.7011,299.817 64.5,297.5C 65.737,297.556 66.737,298.056 67.5,299C 62.8371,303.49 59.1704,308.657 56.5,314.5 Z M 44.5,290.5 C 45.9395,292.588 46.6061,294.921 46.5,297.5C 45.718,300.714 44.8847,304.048 44,307.5C 43.7216,306.584 43.2216,305.918 42.5,305.5C 42.8056,301.802 42.139,298.302 40.5,295C 40.8222,292.479 42.1555,290.979 44.5,290.5 Z"/></g>
<g><path style="opacity:0.061" fill="#ededed" d="M 46.5,297.5 C 48.0265,298.492 48.6932,299.992 48.5,302C 48.4349,304.526 47.7683,306.859 46.5,309C 47.2529,310.487 48.0862,310.654 49,309.5C 49.3333,310.167 49.6667,310.833 50,311.5C 50.7083,310.619 51.5416,309.953 52.5,309.5C 52.1966,312.588 53.5299,314.254 56.5,314.5C 54.8657,315.955 53.5324,317.622 52.5,319.5C 50.3152,320.087 48.6485,319.087 47.5,316.5C 48.7562,316.539 49.7562,316.039 50.5,315C 49.4335,312.988 48.1002,312.488 46.5,313.5C 45.7834,312.539 44.6167,311.539 43,310.5C 42.5065,308.866 42.3398,307.199 42.5,305.5C 43.2216,305.918 43.7216,306.584 44,307.5C 44.8847,304.048 45.718,300.714 46.5,297.5 Z M 52.5,319.5 C 52.4827,317.972 51.816,317.472 50.5,318C 51.0442,318.717 51.7109,319.217 52.5,319.5 Z"/></g>
<g><path style="opacity:0.055" fill="#cdc9d0" d="M 95.5,385.5 C 96.5,384.833 97.5,384.167 98.5,383.5C 108.913,380.922 118.246,376.256 126.5,369.5C 142.894,354.055 145.894,336.388 135.5,316.5C 135.167,317 134.833,317.5 134.5,318C 136.382,321.263 137.548,324.763 138,328.5C 138.624,354.392 126.124,369.559 100.5,374C 92.975,375.563 86.3083,374.063 80.5,369.5C 74.8787,363.308 72.2121,355.975 72.5,347.5C 73.5593,341.655 75.226,335.989 77.5,330.5C 78.1667,330.167 78.8333,329.833 79.5,329.5C 77.5376,335.894 75.871,342.394 74.5,349C 75.7999,367.165 85.4666,374.498 103.5,371C 127.519,365.245 138.186,350.245 135.5,326C 133.869,322.227 132.536,318.394 131.5,314.5C 132.93,314.579 134.264,314.246 135.5,313.5C 140.791,320.143 143.458,327.81 143.5,336.5C 142.732,342.174 141.899,347.84 141,353.5C 138.634,357.52 136.301,361.52 134,365.5C 123.363,376.236 110.529,382.903 95.5,385.5 Z"/></g>
<g><path style="opacity:0.506" fill="#807d83" d="M 79.5,327.5 C 79.5,328.167 79.5,328.833 79.5,329.5C 78.8333,329.833 78.1667,330.167 77.5,330.5C 77.427,328.973 78.0937,327.973 79.5,327.5 Z"/></g>
<g><path style="opacity:0.996" fill="#08060a" d="M 341.5,260.5 C 345.049,260.439 348.382,261.273 351.5,263C 357.673,265.938 359.006,270.271 355.5,276C 351.833,276.667 348.167,276.667 344.5,276C 342.412,273.187 340.079,270.52 337.5,268C 332.5,267.333 327.5,267.333 322.5,268C 315.825,269.557 309.492,271.89 303.5,275C 281.883,288.115 264.883,305.615 252.5,327.5C 236.768,350.299 224.768,374.965 216.5,401.5C 214.528,404.084 213.528,407.084 213.5,410.5C 213.483,412.565 213.15,414.565 212.5,416.5C 208.538,429.46 205.872,442.794 204.5,456.5C 204.249,462.892 204.582,469.225 205.5,475.5C 205.414,476.496 205.748,477.329 206.5,478C 205.833,478.333 205.167,478.667 204.5,479C 209.393,480.726 210.059,483.059 206.5,486C 207.252,486.671 207.586,487.504 207.5,488.5C 203.027,490.866 198.361,491.033 193.5,489C 184.901,480.208 181.234,469.541 182.5,457C 184.86,429.324 192.193,403.157 204.5,378.5C 206.223,378.608 207.89,378.108 209.5,377C 209.043,376.586 208.709,376.086 208.5,375.5C 210.636,374.148 210.97,372.482 209.5,370.5C 211.086,368.827 211.753,366.827 211.5,364.5C 230.831,329.323 256.831,299.823 289.5,276C 300.915,268.893 313.248,264.06 326.5,261.5C 331.473,260.836 336.473,260.503 341.5,260.5 Z"/></g>
<g><path style="opacity:0.02" fill="#c3c0c7" d="M 252.5,327.5 C 252.5,328.167 252.5,328.833 252.5,329.5C 244.502,342.823 237.002,356.49 230,370.5C 224.97,381.552 220.803,392.886 217.5,404.5C 217.167,404.5 216.833,404.5 216.5,404.5C 216.5,403.5 216.5,402.5 216.5,401.5C 224.768,374.965 236.768,350.299 252.5,327.5 Z"/></g>
<g><path style="opacity:0.996" fill="#232026" d="M 72.5,347.5 C 72.2121,355.975 74.8787,363.308 80.5,369.5C 79.5041,369.414 78.6708,369.748 78,370.5C 76.513,369.747 76.3463,368.914 77.5,368C 75.9386,367.059 74.6053,365.892 73.5,364.5C 73.7093,363.914 74.0426,363.414 74.5,363C 70.6695,362.593 70.0028,361.26 72.5,359C 71.6919,358.692 71.0253,358.192 70.5,357.5C 71.0973,354.029 71.764,350.695 72.5,347.5 Z"/></g>
<g><path style="opacity:0.996" fill="#09070b" d="M 382.5,369.5 C 375.091,379.265 368.424,389.598 362.5,400.5C 359.084,404.323 356.418,408.657 354.5,413.5C 352.841,414.834 351.508,416.501 350.5,418.5C 350.243,421.477 349.243,424.144 347.5,426.5C 348.127,427.417 348.461,428.417 348.5,429.5C 342.327,439.175 336.66,449.175 331.5,459.5C 329.229,461.612 327.896,464.279 327.5,467.5C 326.203,469.371 325.203,471.371 324.5,473.5C 320.445,473.824 316.445,473.491 312.5,472.5C 309.972,471.184 309.972,470.017 312.5,469C 312.146,467.374 312.146,465.541 312.5,463.5C 313.077,459.017 314.744,455.017 317.5,451.5C 321.766,450.43 323.1,447.93 321.5,444C 321.954,442.061 322.621,440.228 323.5,438.5C 334.642,420.227 345.809,401.894 357,383.5C 360.707,377.419 363.874,371.086 366.5,364.5C 372.778,363.21 379.112,363.21 385.5,364.5C 384.237,366.029 383.237,367.695 382.5,369.5 Z"/></g>
<g><path style="opacity:0.996" fill="#08060a" d="M 505.5,379.5 C 504.554,383.392 503.054,387.059 501,390.5C 496.968,397.187 492.968,403.854 489,410.5C 478.355,422.304 469.522,435.304 462.5,449.5C 461.094,449.973 460.427,450.973 460.5,452.5C 457.585,457.673 456.918,463.007 458.5,468.5C 459.058,469.79 460.058,470.623 461.5,471C 463.81,471.497 466.143,471.663 468.5,471.5C 469.11,472.391 469.443,473.391 469.5,474.5C 469.167,474.5 468.833,474.5 468.5,474.5C 463.786,474.647 459.119,474.314 454.5,473.5C 452.629,473.141 451.129,472.141 450,470.5C 448.281,467.975 447.114,465.308 446.5,462.5C 446.5,457.833 446.5,453.167 446.5,448.5C 450.002,437.829 454.836,427.829 461,418.5C 473.145,404.214 483.812,388.881 493,372.5C 493.495,370.527 493.662,368.527 493.5,366.5C 494.574,364.784 496.241,363.784 498.5,363.5C 499.5,365.833 501.167,367.5 503.5,368.5C 505.223,371.94 505.89,375.606 505.5,379.5 Z"/></g>
<g><path style="opacity:0.031" fill="#b0abb7" d="M 387.5,362.5 C 387.075,365.119 386.075,367.453 384.5,369.5C 383.833,369.5 383.167,369.5 382.5,369.5C 383.237,367.695 384.237,366.029 385.5,364.5C 379.112,363.21 372.778,363.21 366.5,364.5C 373.087,362.539 380.087,361.872 387.5,362.5 Z"/></g>
<g><path style="opacity:0.996" fill="#0b080c" d="M 273.5,474.5 C 276.248,474.402 276.914,475.402 275.5,477.5C 269.989,479.21 264.323,479.877 258.5,479.5C 255.167,478.167 252.833,475.833 251.5,472.5C 250.705,468.215 250.372,463.881 250.5,459.5C 252.151,455.225 253.318,450.892 254,446.5C 251.817,448.907 249.65,451.24 247.5,453.5C 247.5,452.5 247.5,451.5 247.5,450.5C 256.818,441.878 263.652,431.545 268,419.5C 279.43,402.972 290.097,385.972 300,368.5C 306.777,367.189 313.61,367.189 320.5,368.5C 302.904,396.607 285.071,424.607 267,452.5C 265.521,456.132 264.021,459.798 262.5,463.5C 260.221,473.319 263.887,476.985 273.5,474.5 Z"/></g>
<g><path style="opacity:0.318" fill="#6a666d" d="M 199.5,374.5 C 201.693,373.203 204.027,373.203 206.5,374.5C 206.376,375.107 206.043,375.44 205.5,375.5C 203.735,374.539 201.735,374.205 199.5,374.5 Z"/></g>
<g><path style="opacity:0.996" fill="#151217" d="M 435.5,367.5 C 434.25,367.423 433.417,366.756 433,365.5C 431.284,366.552 430.284,365.886 430,363.5C 430.291,368.144 430.291,372.811 430,377.5C 428.59,379.884 426.59,381.55 424,382.5C 423.667,384.5 423.333,386.5 423,388.5C 422.658,386.381 421.825,386.047 420.5,387.5C 421.973,383.749 423.64,380.083 425.5,376.5C 426.638,373.696 426.805,370.696 426,367.5C 425.617,366.944 425.117,366.611 424.5,366.5C 421.739,363.864 418.406,363.031 414.5,364C 398.09,371.395 384.257,382.228 373,396.5C 364.325,407.211 356.158,418.211 348.5,429.5C 348.461,428.417 348.127,427.417 347.5,426.5C 349.243,424.144 350.243,421.477 350.5,418.5C 351.508,416.501 352.841,414.834 354.5,413.5C 354.81,414.738 355.31,414.738 356,413.5C 358.51,409.805 361.01,406.138 363.5,402.5C 375.465,386.034 390.132,372.534 407.5,362C 414.625,359.02 421.958,358.687 429.5,361C 432.259,362.529 434.259,364.695 435.5,367.5 Z"/></g>
<g><path style="opacity:0.987" fill="#171419" d="M 483.5,358.5 C 488.193,358.54 492.859,358.873 497.5,359.5C 505.208,364.237 507.875,370.904 505.5,379.5C 505.89,375.606 505.223,371.94 503.5,368.5C 501.167,367.5 499.5,365.833 498.5,363.5C 496.241,363.784 494.574,364.784 493.5,366.5C 490.007,362.706 485.674,361.539 480.5,363C 474.372,365.563 468.705,368.897 463.5,373C 455.364,380.135 447.53,387.635 440,395.5C 431.921,405.4 424.088,415.4 416.5,425.5C 414.86,424.21 414.36,422.543 415,420.5C 417.44,417.272 419.606,413.939 421.5,410.5C 421.393,412.379 421.893,412.712 423,411.5C 426.72,406.62 430.22,401.62 433.5,396.5C 439.967,389.863 446.3,383.03 452.5,376C 458.943,370.224 465.943,365.224 473.5,361C 476.618,359.273 479.951,358.439 483.5,358.5 Z"/></g>
<g><path style="opacity:0.412" fill="#9893a2" d="M 165.5,377.5 C 168.625,376.521 171.958,376.187 175.5,376.5C 175.5,377.167 175.5,377.833 175.5,378.5C 175.167,378.5 174.833,378.5 174.5,378.5C 171.713,377.523 168.713,377.19 165.5,377.5 Z"/></g>
<g><path style="opacity:0.075" fill="#c4c2c8" d="M 165.5,377.5 C 168.713,377.19 171.713,377.523 174.5,378.5C 170.881,379.18 167.214,379.68 163.5,380C 162.692,380.308 162.025,380.808 161.5,381.5C 153.858,397.45 145.692,413.117 137,428.5C 127.236,442.861 116.403,456.361 104.5,469C 93.5171,478.164 81.5171,485.831 68.5,492C 57.4022,496.5 46.4022,498 35.5,496.5C 35.5,496.167 35.5,495.833 35.5,495.5C 52.7346,496.521 68.0679,491.854 81.5,481.5C 86.2572,479.955 90.5906,477.621 94.5,474.5C 102.201,467.491 109.701,460.157 117,452.5C 134.945,429.944 149.279,405.278 160,378.5C 161.699,377.594 163.533,377.261 165.5,377.5 Z"/></g>
<g><path style="opacity:0.227" fill="#96939a" d="M 98.5,383.5 C 97.5,384.167 96.5,384.833 95.5,385.5C 93.8333,385.5 92.1667,385.5 90.5,385.5C 92.9052,384.232 95.5718,383.565 98.5,383.5 Z"/></g>
<g><path style="opacity:0.314" fill="#d3d0d6" d="M 208.5,268.5 C 209.978,268.238 211.311,268.571 212.5,269.5C 211.294,271.516 211.294,273.516 212.5,275.5C 213.739,275.058 214.739,274.391 215.5,273.5C 217.428,272.464 219.428,271.964 221.5,272C 186.399,299.599 159.732,333.766 141.5,374.5C 138.232,375.487 134.898,375.82 131.5,375.5C 131.5,376.833 131.5,378.167 131.5,379.5C 133.857,379.337 136.19,379.503 138.5,380C 126.903,403.363 114.403,426.196 101,448.5C 93.8413,458.54 86.008,467.873 77.5,476.5C 70.1124,482.864 61.779,487.697 52.5,491C 44.1968,492.68 36.5302,491.347 29.5,487C 28.0229,485.188 26.6896,483.355 25.5,481.5C 24.8724,477.842 26.2057,475.342 29.5,474C 31.4388,472.568 32.7721,470.735 33.5,468.5C 34.4682,466.393 34.8016,464.059 34.5,461.5C 36.7891,469.429 34.1225,475.262 26.5,479C 28.5866,483.422 31.92,486.422 36.5,488C 43.2342,488.829 49.9008,488.496 56.5,487C 67.0947,481.746 76.5947,474.913 85,466.5C 104.561,440.721 121.061,413.054 134.5,383.5C 133.472,381.639 131.972,380.305 130,379.5C 129.333,377.833 129.333,376.167 130,374.5C 133.667,373.5 137.333,372.5 141,371.5C 153.11,344.265 169.443,319.932 190,298.5C 197.252,291.983 204.086,285.15 210.5,278C 208.244,275.818 208.244,273.485 210.5,271C 209.944,269.989 209.278,269.156 208.5,268.5 Z"/></g>
<g><path style="opacity:0.133" fill="#cecbd2" d="M 493.5,366.5 C 493.662,368.527 493.495,370.527 493,372.5C 483.812,388.881 473.145,404.214 461,418.5C 454.836,427.829 450.002,437.829 446.5,448.5C 445.833,448.5 445.167,448.5 444.5,448.5C 451.773,428.616 462.606,410.949 477,395.5C 481.333,388.833 485.667,382.167 490,375.5C 493.379,365.545 489.879,362.045 479.5,365C 476.833,366.333 474.167,367.667 471.5,369C 456,380.5 442.5,394 431,409.5C 423.696,419.479 416.362,429.479 409,439.5C 402.918,450.333 397.918,461.666 394,473.5C 386.547,473.789 379.213,473.789 372,473.5C 376.12,460.515 381.454,447.849 388,435.5C 400.032,415.48 412.032,395.48 424,375.5C 425.261,370.3 423.428,366.966 418.5,365.5C 404.774,369.715 392.941,377.048 383,387.5C 363.342,410.825 346.175,435.825 331.5,462.5C 331.5,461.5 331.5,460.5 331.5,459.5C 336.66,449.175 342.327,439.175 348.5,429.5C 356.158,418.211 364.325,407.211 373,396.5C 384.257,382.228 398.09,371.395 414.5,364C 418.406,363.031 421.739,363.864 424.5,366.5C 425.324,369.764 425.658,373.098 425.5,376.5C 423.64,380.083 421.973,383.749 420.5,387.5C 403.328,410.865 388.828,435.865 377,462.5C 375.85,465.768 375.016,469.101 374.5,472.5C 380.5,472.5 386.5,472.5 392.5,472.5C 397.695,455.315 405.695,439.648 416.5,425.5C 424.088,415.4 431.921,405.4 440,395.5C 447.53,387.635 455.364,380.135 463.5,373C 468.705,368.897 474.372,365.563 480.5,363C 485.674,361.539 490.007,362.706 493.5,366.5 Z M 436.5,387.5 C 437.782,388.708 437.782,390.042 436.5,391.5C 436.094,390.443 436.094,389.109 436.5,387.5 Z"/></g>
<g><path style="opacity:0.2" fill="#aaa6ad" d="M 433.5,390.5 C 433.822,392.722 433.155,394.556 431.5,396C 432.094,396.464 432.761,396.631 433.5,396.5C 430.22,401.62 426.72,406.62 423,411.5C 421.893,412.712 421.393,412.379 421.5,410.5C 425.528,403.765 429.528,397.098 433.5,390.5 Z"/></g>
<g><path style="opacity:0.996" fill="#0a080c" d="M 435.5,367.5 C 436.222,367.918 436.722,368.584 437,369.5C 438.299,376.947 437.132,383.947 433.5,390.5C 429.528,397.098 425.528,403.765 421.5,410.5C 419.606,413.939 417.44,417.272 415,420.5C 414.36,422.543 414.86,424.21 416.5,425.5C 405.695,439.648 397.695,455.315 392.5,472.5C 386.5,472.5 380.5,472.5 374.5,472.5C 375.016,469.101 375.85,465.768 377,462.5C 388.828,435.865 403.328,410.865 420.5,387.5C 421.825,386.047 422.658,386.381 423,388.5C 423.333,386.5 423.667,384.5 424,382.5C 426.59,381.55 428.59,379.884 430,377.5C 430.291,372.811 430.291,368.144 430,363.5C 430.284,365.886 431.284,366.552 433,365.5C 433.417,366.756 434.25,367.423 435.5,367.5 Z"/></g>
<g><path style="opacity:0.996" fill="#09070b" d="M 536.5,433.5 C 534.994,436.356 534.328,439.523 534.5,443C 534.504,445.361 534.837,447.527 535.5,449.5C 536.688,463.617 544.355,469.283 558.5,466.5C 557.766,467.708 557.433,469.041 557.5,470.5C 549.326,472.327 540.992,472.994 532.5,472.5C 526.914,469.916 522.58,465.916 519.5,460.5C 519.573,458.973 518.906,457.973 517.5,457.5C 516.124,450.769 515.124,444.102 514.5,437.5C 513.596,436.791 513.263,435.791 513.5,434.5C 521.477,417.668 530.977,401.668 542,386.5C 554.388,372.403 569.221,361.903 586.5,355C 592.833,354.333 599.167,354.333 605.5,355C 614.062,358.289 617.229,364.455 615,373.5C 611.947,381.218 606.781,387.052 599.5,391C 581.622,401.519 562.622,409.519 542.5,415C 539.652,420.895 537.652,427.061 536.5,433.5 Z M 588.5,359.5 C 596.759,358.864 599.926,362.53 598,370.5C 587.861,391.465 571.361,403.465 548.5,406.5C 556.985,390.497 567.652,375.997 580.5,363C 583.158,361.522 585.825,360.355 588.5,359.5 Z"/></g>
<g><path style="opacity:0.894" fill="#5f5b62" d="M 216.5,401.5 C 216.5,402.5 216.5,403.5 216.5,404.5C 215.5,406.5 214.5,408.5 213.5,410.5C 213.528,407.084 214.528,404.084 216.5,401.5 Z"/></g>
<g><path style="opacity:0.812" fill="#78747b" d="M 362.5,400.5 C 362.328,401.492 362.662,402.158 363.5,402.5C 361.01,406.138 358.51,409.805 356,413.5C 355.31,414.738 354.81,414.738 354.5,413.5C 356.418,408.657 359.084,404.323 362.5,400.5 Z"/></g>
<g><path style="opacity:0.02" fill="#e3e2e4" d="M 216.5,404.5 C 216.833,404.5 217.167,404.5 217.5,404.5C 215.497,410.523 213.831,416.523 212.5,422.5C 212.5,420.5 212.5,418.5 212.5,416.5C 213.15,414.565 213.483,412.565 213.5,410.5C 214.5,408.5 215.5,406.5 216.5,404.5 Z"/></g>
<g><path style="opacity:0.31" fill="#d0cdd4" d="M 630.5,313.5 C 630.657,314.873 630.49,316.207 630,317.5C 622.958,329.534 614.791,340.701 605.5,351C 618.006,357.491 621.173,366.991 615,379.5C 612.872,382.63 610.372,385.463 607.5,388C 587.451,400.52 566.118,410.353 543.5,417.5C 536.771,431.181 535.604,445.181 540,459.5C 544.356,463.641 549.523,465.141 555.5,464C 573.269,458.736 588.936,449.736 602.5,437C 610.463,428.803 618.63,420.97 627,413.5C 634.349,405.147 641.349,396.481 648,387.5C 648.93,385.064 650.097,382.731 651.5,380.5C 653.833,379.167 656.167,379.167 658.5,380.5C 659.428,381.768 659.595,383.101 659,384.5C 638.86,413.306 614.693,438.139 586.5,459C 573.623,467.683 559.457,473.183 544,475.5C 539.865,475.18 536.032,474.18 532.5,472.5C 540.992,472.994 549.326,472.327 557.5,470.5C 566.31,467.762 574.644,463.929 582.5,459C 611.064,438.936 635.064,414.436 654.5,385.5C 653.998,384.479 653.332,384.312 652.5,385C 633.167,412.333 609.833,435.667 582.5,455C 574.618,459.545 566.618,463.379 558.5,466.5C 544.355,469.283 536.688,463.617 535.5,449.5C 535.392,444.13 535.725,438.797 536.5,433.5C 537.652,427.061 539.652,420.895 542.5,415C 562.622,409.519 581.622,401.519 599.5,391C 606.781,387.052 611.947,381.218 615,373.5C 617.229,364.455 614.062,358.289 605.5,355C 599.167,354.333 592.833,354.333 586.5,355C 569.221,361.903 554.388,372.403 542,386.5C 530.977,401.668 521.477,417.668 513.5,434.5C 502.985,446.513 491.318,457.346 478.5,467C 475.673,468.664 472.673,469.83 469.5,470.5C 465.633,470.758 461.966,470.092 458.5,468.5C 456.918,463.007 457.585,457.673 460.5,452.5C 461.906,452.027 462.573,451.027 462.5,449.5C 469.522,435.304 478.355,422.304 489,410.5C 492.968,403.854 496.968,397.187 501,390.5C 503.054,387.059 504.554,383.392 505.5,379.5C 507.875,370.904 505.208,364.237 497.5,359.5C 492.928,357.442 488.262,357.109 483.5,358.5C 479.951,358.439 476.618,359.273 473.5,361C 465.943,365.224 458.943,370.224 452.5,376C 446.3,383.03 439.967,389.863 433.5,396.5C 432.761,396.631 432.094,396.464 431.5,396C 433.155,394.556 433.822,392.722 433.5,390.5C 437.132,383.947 438.299,376.947 437,369.5C 436.722,368.584 436.222,367.918 435.5,367.5C 434.259,364.695 432.259,362.529 429.5,361C 421.958,358.687 414.625,359.02 407.5,362C 390.132,372.534 375.465,386.034 363.5,402.5C 362.662,402.158 362.328,401.492 362.5,400.5C 368.424,389.598 375.091,379.265 382.5,369.5C 383.167,369.5 383.833,369.5 384.5,369.5C 382.526,372.482 380.526,375.482 378.5,378.5C 378.808,379.308 379.308,379.975 380,380.5C 389.127,371.033 399.627,363.533 411.5,358C 433.137,354.803 442.137,363.97 438.5,385.5C 439.552,385.649 440.552,385.483 441.5,385C 451.846,372.981 464.179,363.647 478.5,357C 502.244,352.601 511.411,362.101 506,385.5C 494.078,405.016 481.411,424.016 468,442.5C 464.064,449.041 461.23,456.041 459.5,463.5C 459.977,464.931 460.643,466.264 461.5,467.5C 468.056,469.417 474.056,468.25 479.5,464C 491.966,453.868 503.466,442.701 514,430.5C 522.755,410.635 534.255,392.635 548.5,376.5C 561.366,363.567 576.699,355.067 594.5,351C 600.75,345.92 602.083,339.753 598.5,332.5C 593.996,329.157 590.329,324.99 587.5,320C 585.003,315.256 585.003,310.589 587.5,306C 594.903,303.797 601.903,304.63 608.5,308.5C 610.909,304.584 613.909,301.084 617.5,298C 626.156,293.494 631.489,295.994 633.5,305.5C 633.095,308.505 632.095,311.171 630.5,313.5 Z M 436.5,387.5 C 436.094,389.109 436.094,390.443 436.5,391.5C 437.782,390.042 437.782,388.708 436.5,387.5 Z M 376.5,380.5 C 377.776,381.386 377.776,382.386 376.5,383.5C 375.438,382.575 375.438,381.575 376.5,380.5 Z M 588.5,359.5 C 585.825,360.355 583.158,361.522 580.5,363C 567.652,375.997 556.985,390.497 548.5,406.5C 571.361,403.465 587.861,391.465 598,370.5C 599.926,362.53 596.759,358.864 588.5,359.5 Z M 621.5,303.5 C 624.261,302.915 625.927,303.915 626.5,306.5C 623.189,317.884 617.356,327.884 609,336.5C 603.692,329.025 598.192,321.692 592.5,314.5C 595.161,310.784 598.161,310.617 601.5,314C 602.662,316.816 603.829,319.65 605,322.5C 606.333,323.167 607.667,323.833 609,324.5C 611.713,319.705 614.046,314.705 616,309.5C 618.068,307.604 619.901,305.604 621.5,303.5 Z"/></g>
<g><path style="opacity:0.931" fill="#221f25" d="M 557.5,470.5 C 557.433,469.041 557.766,467.708 558.5,466.5C 566.618,463.379 574.618,459.545 582.5,455C 609.833,435.667 633.167,412.333 652.5,385C 653.332,384.312 653.998,384.479 654.5,385.5C 635.064,414.436 611.064,438.936 582.5,459C 574.644,463.929 566.31,467.762 557.5,470.5 Z"/></g>
<g><path style="opacity:0.969" fill="#58545c" d="M 576.5,398.5 C 575.514,400.408 573.848,401.408 571.5,401.5C 572.768,399.953 574.435,398.953 576.5,398.5 Z"/></g>
<g><path style="opacity:0.133" fill="#b0adb4" d="M 424.5,366.5 C 425.117,366.611 425.617,366.944 426,367.5C 426.805,370.696 426.638,373.696 425.5,376.5C 425.658,373.098 425.324,369.764 424.5,366.5 Z"/></g>
<g><path style="opacity:0.102" fill="#ccc8d0" d="M 576.5,398.5 C 574.435,398.953 572.768,399.953 571.5,401.5C 563.025,405.072 554.358,408.072 545.5,410.5C 549.174,400.962 554.008,391.962 560,383.5C 563.955,377.877 568.288,372.543 573,367.5C 578.941,359.101 586.775,356.267 596.5,359C 600.203,362.396 601.369,366.563 600,371.5C 595.196,383.137 587.363,392.137 576.5,398.5 Z M 588.5,359.5 C 585.825,360.355 583.158,361.522 580.5,363C 567.652,375.997 556.985,390.497 548.5,406.5C 571.361,403.465 587.861,391.465 598,370.5C 599.926,362.53 596.759,358.864 588.5,359.5 Z"/></g>
<g><path style="opacity:0.851" fill="#8e8a92" d="M 483.5,358.5 C 488.262,357.109 492.928,357.442 497.5,359.5C 492.859,358.873 488.193,358.54 483.5,358.5 Z"/></g>
<g><path style="opacity:0.227" fill="#a19ea6" d="M 601.5,334.5 C 602.926,336.679 603.592,339.179 603.5,342C 603.492,343.707 603.158,345.207 602.5,346.5C 602.354,342.481 602.021,338.481 601.5,334.5 Z"/></g>
<g><path style="opacity:0.984" fill="#201d22" d="M 630.5,313.5 C 623.619,326.232 614.952,337.732 604.5,348C 603.184,348.528 602.517,348.028 602.5,346.5C 603.158,345.207 603.492,343.707 603.5,342C 603.592,339.179 602.926,336.679 601.5,334.5C 596.447,328.943 591.947,322.943 588,316.5C 587.33,308.839 590.83,305.673 598.5,307C 602.767,308.296 606.1,310.796 608.5,314.5C 611.107,306.569 616.107,300.902 623.5,297.5C 627.612,297.474 630.112,299.474 631,303.5C 631.172,306.826 631.005,310.159 630.5,313.5 Z M 621.5,303.5 C 619.901,305.604 618.068,307.604 616,309.5C 614.046,314.705 611.713,319.705 609,324.5C 607.667,323.833 606.333,323.167 605,322.5C 603.829,319.65 602.662,316.816 601.5,314C 598.161,310.617 595.161,310.784 592.5,314.5C 598.192,321.692 603.692,329.025 609,336.5C 617.356,327.884 623.189,317.884 626.5,306.5C 625.927,303.915 624.261,302.915 621.5,303.5 Z"/></g>
<g><path style="opacity:0.055" fill="#d4d1d8" d="M 621.5,300.5 C 623.722,300.178 625.556,300.845 627,302.5C 627.667,305.833 627.667,309.167 627,312.5C 622.073,323.351 615.406,333.018 607,341.5C 606.124,337.659 604.791,333.993 603,330.5C 598.251,326.422 594.251,321.755 591,316.5C 590.188,309.999 593.021,307.832 599.5,310C 601.333,311.833 603.167,313.667 605,315.5C 605.727,318.155 606.894,320.488 608.5,322.5C 610.741,314.031 615.074,306.698 621.5,300.5 Z M 621.5,303.5 C 619.901,305.604 618.068,307.604 616,309.5C 614.046,314.705 611.713,319.705 609,324.5C 607.667,323.833 606.333,323.167 605,322.5C 603.829,319.65 602.662,316.816 601.5,314C 598.161,310.617 595.161,310.784 592.5,314.5C 598.192,321.692 603.692,329.025 609,336.5C 617.356,327.884 623.189,317.884 626.5,306.5C 625.927,303.915 624.261,302.915 621.5,303.5 Z"/></g>
<g><path style="opacity:0.024" fill="#cecbd2" d="M 387.5,362.5 C 380.087,361.872 373.087,362.539 366.5,364.5C 363.874,371.086 360.707,377.419 357,383.5C 345.809,401.894 334.642,420.227 323.5,438.5C 314.383,446.563 305.049,454.397 295.5,462C 288.473,466.896 281.139,471.063 273.5,474.5C 263.887,476.985 260.221,473.319 262.5,463.5C 264.021,459.798 265.521,456.132 267,452.5C 285.071,424.607 302.904,396.607 320.5,368.5C 313.61,367.189 306.777,367.189 300,368.5C 290.097,385.972 279.43,402.972 268,419.5C 263.652,431.545 256.818,441.878 247.5,450.5C 241.434,455.883 235.767,461.716 230.5,468C 225.986,471.091 221.653,474.425 217.5,478C 214.594,479.318 211.594,479.652 208.5,479C 207.837,477.482 206.837,476.315 205.5,475.5C 204.582,469.225 204.249,462.892 204.5,456.5C 205.167,456.167 205.833,455.833 206.5,455.5C 203.248,477.866 210.248,482.032 227.5,468C 237.03,458.804 246.197,449.304 255,439.5C 269.931,415.3 284.598,390.967 299,366.5C 305.849,365.317 312.682,364.651 319.5,364.5C 322.873,366.041 323.373,368.374 321,371.5C 310,388.167 299,404.833 288,421.5C 280.495,433.172 273.495,445.172 267,457.5C 265.63,461.275 264.464,465.109 263.5,469C 263.585,470.107 263.919,471.107 264.5,472C 266.278,472.704 268.112,473.204 270,473.5C 281.475,469.012 291.975,462.845 301.5,455C 309.026,448.138 316.526,441.305 324,434.5C 336.653,413.199 349.32,391.866 362,370.5C 362.536,366.81 364.036,363.644 366.5,361C 373.242,359.593 379.908,359.593 386.5,361C 387.056,361.383 387.389,361.883 387.5,362.5 Z"/></g>
<g><path style="opacity:0.133" fill="#c0bdc6" d="M 212.5,416.5 C 212.5,418.5 212.5,420.5 212.5,422.5C 210.129,433.425 208.129,444.425 206.5,455.5C 205.833,455.833 205.167,456.167 204.5,456.5C 205.872,442.794 208.538,429.46 212.5,416.5 Z"/></g>
<g><path style="opacity:0.812" fill="#6c6970" d="M 536.5,433.5 C 535.725,438.797 535.392,444.13 535.5,449.5C 534.837,447.527 534.504,445.361 534.5,443C 534.328,439.523 534.994,436.356 536.5,433.5 Z"/></g>
<g><path style="opacity:0.137" fill="#cdcbd3" d="M 317.5,451.5 C 314.744,455.017 313.077,459.017 312.5,463.5C 309.722,466.721 307.722,470.388 306.5,474.5C 312.69,474.823 318.69,474.49 324.5,473.5C 325.203,471.371 326.203,469.371 327.5,467.5C 328.833,465.833 330.167,464.167 331.5,462.5C 330.172,467.319 328.172,471.819 325.5,476C 318.833,476.667 312.167,476.667 305.5,476C 304.692,475.692 304.025,475.192 303.5,474.5C 306.031,469.271 308.698,464.104 311.5,459C 310.968,456.98 309.635,456.147 307.5,456.5C 311.771,452.731 315.938,448.731 320,444.5C 320.667,445.5 320.667,446.5 320,447.5C 318.519,448.471 317.685,449.804 317.5,451.5 Z M 311.5,454.5 C 314.001,454.511 314.168,455.178 312,456.5C 311.536,455.906 311.369,455.239 311.5,454.5 Z"/></g>
<g><path style="opacity:0.996" fill="#09070b" d="M 33.5,468.5 C 32.7721,470.735 31.4388,472.568 29.5,474C 26.2057,475.342 24.8724,477.842 25.5,481.5C 25.2436,483.792 25.5769,485.959 26.5,488C 24.3496,489.411 22.0163,490.245 19.5,490.5C 8.24676,484.256 4.74676,474.923 9,462.5C 12.6103,455.136 18.4437,452.302 26.5,454C 32.4356,457.039 34.769,461.872 33.5,468.5 Z"/></g>
<g><path style="opacity:0.992" fill="#1e1b20" d="M 513.5,434.5 C 513.263,435.791 513.596,436.791 514.5,437.5C 503.691,451.067 491.025,462.567 476.5,472C 474.146,472.847 471.812,473.68 469.5,474.5C 469.443,473.391 469.11,472.391 468.5,471.5C 469.167,471.5 469.5,471.167 469.5,470.5C 472.673,469.83 475.673,468.664 478.5,467C 491.318,457.346 502.985,446.513 513.5,434.5 Z"/></g>
<g><path style="opacity:0.631" fill="#747078" d="M 517.5,457.5 C 518.906,457.973 519.573,458.973 519.5,460.5C 518.094,460.027 517.427,459.027 517.5,457.5 Z"/></g>
<g><path style="opacity:0.024" fill="#d8d5da" d="M 249.5,460.5 C 249.335,463.85 249.502,467.183 250,470.5C 250.278,471.416 250.778,472.082 251.5,472.5C 252.833,475.833 255.167,478.167 258.5,479.5C 258.5,479.833 258.5,480.167 258.5,480.5C 255.215,480.731 252.715,479.397 251,476.5C 249.25,472.504 248.083,468.337 247.5,464C 247.808,462.541 248.475,461.374 249.5,460.5 Z"/></g>
<g><path style="opacity:0.843" fill="#706d73" d="M 249.5,459.5 C 249.833,459.5 250.167,459.5 250.5,459.5C 250.372,463.881 250.705,468.215 251.5,472.5C 250.778,472.082 250.278,471.416 250,470.5C 249.502,467.183 249.335,463.85 249.5,460.5C 249.5,460.167 249.5,459.833 249.5,459.5 Z"/></g>
<g><path style="opacity:0.506" fill="#736f76" d="M 331.5,459.5 C 331.5,460.5 331.5,461.5 331.5,462.5C 330.167,464.167 328.833,465.833 327.5,467.5C 327.896,464.279 329.229,461.612 331.5,459.5 Z"/></g>
<g><path style="opacity:0.063" fill="#d4d1d6" d="M 514.5,437.5 C 515.124,444.102 516.124,450.769 517.5,457.5C 517.427,459.027 518.094,460.027 519.5,460.5C 522.58,465.916 526.914,469.916 532.5,472.5C 529.072,472.453 526.072,471.287 523.5,469C 516.299,461.774 512.799,452.941 513,442.5C 503.2,453.292 492.367,463.125 480.5,472C 472.075,476.367 463.075,477.7 453.5,476C 444.129,468.836 441.129,459.67 444.5,448.5C 445.117,453.269 445.784,457.936 446.5,462.5C 447.114,465.308 448.281,467.975 450,470.5C 451.129,472.141 452.629,473.141 454.5,473.5C 456.807,475.047 459.473,475.713 462.5,475.5C 464.696,475.495 466.696,475.162 468.5,474.5C 468.833,474.5 469.167,474.5 469.5,474.5C 471.812,473.68 474.146,472.847 476.5,472C 491.025,462.567 503.691,451.067 514.5,437.5 Z"/></g>
<g><path style="opacity:0.973" fill="#625e67" d="M 444.5,448.5 C 445.167,448.5 445.833,448.5 446.5,448.5C 446.5,453.167 446.5,457.833 446.5,462.5C 445.784,457.936 445.117,453.269 444.5,448.5 Z"/></g>
<g><path style="opacity:0.631" fill="#7a767e" d="M 462.5,449.5 C 462.573,451.027 461.906,452.027 460.5,452.5C 460.427,450.973 461.094,449.973 462.5,449.5 Z"/></g>
<g><path style="opacity:0.024" fill="#cccad0" d="M 199.5,374.5 C 201.735,374.205 203.735,374.539 205.5,375.5C 204.89,376.391 204.557,377.391 204.5,378.5C 192.193,403.157 184.86,429.324 182.5,457C 181.234,469.541 184.901,480.208 193.5,489C 198.361,491.033 203.027,490.866 207.5,488.5C 223.258,479.751 236.592,468.084 247.5,453.5C 249.65,451.24 251.817,448.907 254,446.5C 253.318,450.892 252.151,455.225 250.5,459.5C 250.167,459.5 249.833,459.5 249.5,459.5C 249.539,458.244 249.039,457.244 248,456.5C 236.981,470.523 223.815,482.023 208.5,491C 196.194,494.764 187.694,490.598 183,478.5C 181.989,471.854 181.156,465.187 180.5,458.5C 182.478,430.991 189.811,404.491 202.5,379C 201.833,378.333 201.167,377.667 200.5,377C 192.077,376.284 183.744,376.784 175.5,378.5C 175.5,377.833 175.5,377.167 175.5,376.5C 183.335,375.616 191.335,374.95 199.5,374.5 Z"/></g>
<g><path style="opacity:0.959" fill="#1c191e" d="M 323.5,438.5 C 322.621,440.228 321.954,442.061 321.5,444C 323.1,447.93 321.766,450.43 317.5,451.5C 317.685,449.804 318.519,448.471 320,447.5C 320.667,446.5 320.667,445.5 320,444.5C 315.938,448.731 311.771,452.731 307.5,456.5C 302.726,460.098 298.06,463.931 293.5,468C 287.573,471.462 281.573,474.628 275.5,477.5C 276.914,475.402 276.248,474.402 273.5,474.5C 281.139,471.063 288.473,466.896 295.5,462C 305.049,454.397 314.383,446.563 323.5,438.5 Z"/></g>
<g><path style="opacity:0.992" fill="#201d24" d="M 312.5,463.5 C 312.146,465.541 312.146,467.374 312.5,469C 309.972,470.017 309.972,471.184 312.5,472.5C 316.445,473.491 320.445,473.824 324.5,473.5C 318.69,474.49 312.69,474.823 306.5,474.5C 307.722,470.388 309.722,466.721 312.5,463.5 Z"/></g>
<g><path style="opacity:0.876" fill="#a49fa8" d="M 458.5,468.5 C 461.966,470.092 465.633,470.758 469.5,470.5C 469.5,471.167 469.167,471.5 468.5,471.5C 466.143,471.663 463.81,471.497 461.5,471C 460.058,470.623 459.058,469.79 458.5,468.5 Z"/></g>
<g><path style="opacity:0.2" fill="#c4c0c8" d="M 307.5,456.5 C 297.455,468.951 284.622,477.284 269,481.5C 265.515,481.625 262.015,481.291 258.5,480.5C 258.5,480.167 258.5,479.833 258.5,479.5C 264.323,479.877 269.989,479.21 275.5,477.5C 281.573,474.628 287.573,471.462 293.5,468C 298.06,463.931 302.726,460.098 307.5,456.5 Z"/></g>
<g><path style="opacity:0.965" fill="#68636b" d="M 454.5,473.5 C 459.119,474.314 463.786,474.647 468.5,474.5C 466.696,475.162 464.696,475.495 462.5,475.5C 459.473,475.713 456.807,475.047 454.5,473.5 Z"/></g>
<g><path style="opacity:0.996" fill="#18161b" d="M 247.5,450.5 C 247.5,451.5 247.5,452.5 247.5,453.5C 236.592,468.084 223.258,479.751 207.5,488.5C 207.586,487.504 207.252,486.671 206.5,486C 210.059,483.059 209.393,480.726 204.5,479C 205.167,478.667 205.833,478.333 206.5,478C 205.748,477.329 205.414,476.496 205.5,475.5C 206.837,476.315 207.837,477.482 208.5,479C 211.594,479.652 214.594,479.318 217.5,478C 221.653,474.425 225.986,471.091 230.5,468C 235.767,461.716 241.434,455.883 247.5,450.5 Z"/></g>
<g><path style="opacity:0.055" fill="#d0cdd3" d="M 34.5,461.5 C 34.8016,464.059 34.4682,466.393 33.5,468.5C 34.769,461.872 32.4356,457.039 26.5,454C 18.4437,452.302 12.6103,455.136 9,462.5C 4.74676,474.923 8.24676,484.256 19.5,490.5C 24.162,494.004 29.4953,495.671 35.5,495.5C 35.5,495.833 35.5,496.167 35.5,496.5C 22.555,496.7 12.7217,491.367 6,480.5C 2.11379,464.786 7.78045,454.786 23,450.5C 29.3126,451.647 33.1459,455.314 34.5,461.5 Z"/></g>
<g><path style="opacity:0.961" fill="#131115" d="M 77.5,476.5 C 76.753,479.266 78.0863,480.932 81.5,481.5C 68.0679,491.854 52.7346,496.521 35.5,495.5C 29.4953,495.671 24.162,494.004 19.5,490.5C 22.0163,490.245 24.3496,489.411 26.5,488C 25.5769,485.959 25.2436,483.792 25.5,481.5C 26.6896,483.355 28.0229,485.188 29.5,487C 36.5302,491.347 44.1968,492.68 52.5,491C 61.779,487.697 70.1124,482.864 77.5,476.5 Z"/></g>
</svg>
